<svg width="348" height="70" viewBox="0 0 348 70" fill="none" xmlns="http://www.w3.org/2000/svg">
<path fill-rule="evenodd" clip-rule="evenodd" d="M228.463 1.72973C220.418 4.81944 231.084 2.65866 236.185 2.53749C236.73 2.03264 236.79 1.21478 238.04 1.1239C237.183 1.43691 237.365 2.36584 236.357 2.5274C238.192 9.65594 236.851 4.67808 228.463 1.72973Z" fill="#6111B0"/>
<path fill-rule="evenodd" clip-rule="evenodd" d="M181.273 4.29437C178.591 4.80932 168.469 2.7899 178.712 2.24466C173.611 3.16349 201.475 4.26408 181.273 4.29437Z" fill="#6111B0"/>
<path fill-rule="evenodd" clip-rule="evenodd" d="M198.895 4.55691C181.333 4.08234 215.892 -0.299791 207.03 3.40584C206.839 4.56701 202.836 4.08234 198.895 4.55691Z" fill="#6111B0"/>
<path fill-rule="evenodd" clip-rule="evenodd" d="M221.578 67.4113C226.85 67.0781 241.791 68.3402 258.354 68.4715C249.876 69.1177 258.354 68.4715 226.931 67.8253C227.848 68.1585 226.961 67.8253 221.578 67.4113Z" fill="#6111B0"/>
<path fill-rule="evenodd" clip-rule="evenodd" d="M306.664 33.2629C308.378 33.4447 307.853 35.4439 305.192 34.2827C307.884 33.5658 301.532 32.6874 306.664 33.2629Z" fill="#6111B0"/>
<path fill-rule="evenodd" clip-rule="evenodd" d="M175.99 67.5021C174.004 68.108 175.99 67.5021 169.77 67.8858C171.474 66.8458 169.78 67.7445 175.99 67.5021Z" fill="#6111B0"/>
<path fill-rule="evenodd" clip-rule="evenodd" d="M110.28 3.71885C110.976 3.67846 130.15 1.94176 125.442 3.91069C125.372 3.51691 109.09 5.9503 110.28 3.71885Z" fill="#6111B0"/>
<path fill-rule="evenodd" clip-rule="evenodd" d="M196.394 67.2497C190.83 67.6738 186.656 67.5122 176.917 67.5022C185.214 66.9064 179.206 67.2699 196.394 67.2497Z" fill="#6111B0"/>
<path fill-rule="evenodd" clip-rule="evenodd" d="M223.271 8.84818C223.775 9.76701 219.37 10.08 223.271 8.84818V8.84818Z" fill="#6111B0"/>
<path fill-rule="evenodd" clip-rule="evenodd" d="M215.166 1.56818C215.589 1.81051 215.216 3.50682 213.825 2.82022C213.633 2.14371 214.722 2.24468 215.166 1.56818Z" fill="#6111B0"/>
<path fill-rule="evenodd" clip-rule="evenodd" d="M129.566 3.11303C130.513 3.54721 149.527 1.66915 145.554 3.88041C142.49 3.29478 131.945 5.35459 129.566 3.11303Z" fill="#6111B0"/>
<path fill-rule="evenodd" clip-rule="evenodd" d="M291.733 68.7848C291.663 68.7848 291.663 68.7848 291.602 68.7848C291.663 68.7542 291.663 68.7848 291.733 68.7542C291.733 68.7848 291.733 68.7848 291.733 68.7848Z" fill="#6111B0"/>
<path fill-rule="evenodd" clip-rule="evenodd" d="M105.098 5.80896C105.128 5.83954 105.169 5.87012 105.169 5.87012H105.098C105.098 5.83954 105.098 5.83954 105.098 5.80896Z" fill="#6111B0"/>
<path fill-rule="evenodd" clip-rule="evenodd" d="M308.136 68.3406C308.136 68.3406 308.105 68.3406 308.065 68.3406C308.065 68.3406 308.095 68.31 308.136 68.31C308.136 68.2998 308.136 68.2998 308.136 68.3406Z" fill="#6111B0"/>
<path fill-rule="evenodd" clip-rule="evenodd" d="M283.981 64.8668C283.981 64.8768 283.981 64.8768 283.981 64.8668C283.971 64.8768 283.971 64.8768 283.971 64.8768C283.971 64.8768 283.971 64.8768 283.981 64.8668Z" fill="#6111B0"/>
<path fill-rule="evenodd" clip-rule="evenodd" d="M6.07968 39.5231C6.07968 39.5231 6.07968 39.5231 6.10992 39.5231C11.332 33.586 3.43839 25.8113 23.6615 20.5103C23.601 20.7425 23.3187 20.8839 23.2784 21.1363C23.359 20.5709 23.6917 20.7223 23.8933 20.4598C25.8491 19.955 27.7141 19.44 30.2244 18.9856C30.1941 18.9856 30.1941 18.9856 30.1941 18.9856C28.7827 19.2078 29.2364 18.5717 25.9298 19.1169C26.1516 19.8944 24.7401 19.3794 23.8933 20.4598C23.8228 20.48 23.732 20.5002 23.6514 20.5103C25.7685 12.7456 39.1161 9.84777 51.3346 10.1911C51.3346 10.1608 51.3044 10.1608 51.3044 10.1608C93.6862 3.63806 115.926 6.83884 204.016 9.80738C205.357 7.61631 216.759 11.0796 214.712 7.52544C217.979 8.63612 219.35 7.75767 220.156 11.9884C220.217 11.9581 220.217 12.0186 220.287 11.9884C222.918 7.89903 233.131 7.07107 241.105 9.42369C243.444 6.88932 250.592 10.9988 256.419 9.29243C235.419 5.80893 251.257 3.1433 242.839 1.0835C254.281 1.82058 254.06 4.92039 308.861 20.7829C309.083 21.0353 309.345 21.1969 309.597 21.419C308.942 22.2874 308.196 20.6718 304.668 21.9643C310.807 22.8427 299.234 23.7515 310.918 25.1449C296.794 24.4583 293.719 25.5891 314.285 28.7394C314.144 29.3755 310.323 29.0625 307.581 29.2847C307.551 29.2544 307.521 29.2241 307.49 29.1938C307.49 29.2241 307.49 29.2544 307.46 29.2847C307.48 29.2847 307.521 29.2847 307.551 29.2847C305.918 29.4159 304.577 29.6986 304.93 30.6276C307.44 31.6979 302.44 30.6175 296.159 31.7181C313.378 35.7367 292.066 30.8093 311.916 40.5429C311.089 40.8357 311.493 40.3915 308.388 40.6035C309.366 42.1483 308.126 41.3103 312.46 42.3705C293.981 41.1084 329.468 45.8136 316.785 45.9348C316.775 47.106 315.949 46.9041 319.507 47.3484C318.066 48.1157 316.755 47.8936 315.313 48.0854C339.872 57.8695 323.076 55.214 347.886 64.2004C346.445 64.7355 340.547 63.3724 337.381 65.4827C325.536 64.2913 309.587 70.1072 291.764 68.7845C294.798 67.2699 288.618 68.5825 284.364 66.0885C255.108 65.9169 248.343 67.1184 178.772 66.341C178.934 66.1491 179.065 65.8967 179.186 65.6948C179.155 65.6948 179.155 65.6948 179.125 65.6948C179.579 68.0171 161.725 65.412 160.132 67.5223C161.059 67.5829 160.132 67.5223 162.985 67.7748C161.785 67.3709 163.187 68.6936 150.01 67.068C150.252 67.1992 149.718 67.28 150.01 67.906C149.305 67.8454 148.599 67.805 147.893 67.7142L147.964 67.6536C144.839 69.2388 120.684 65.927 120.926 68.1685C95.9948 60.9289 43.4208 86.1414 0.605499 42.3705C1.29105 41.8656 2.68228 40.5328 6.07968 39.5231ZM29.1759 15.8757C29.1154 15.9363 29.0953 15.8858 29.1054 16.0373C29.1356 16.007 29.1759 16.007 29.2062 16.007C29.1759 15.9767 29.1759 15.9363 29.1759 15.8757ZM299.546 21.207C299.556 21.2373 299.607 21.2676 299.577 21.207C299.546 21.1767 299.546 21.1767 299.546 21.1363C299.546 21.1767 299.546 21.1767 299.546 21.207ZM324.598 57.5565C324.538 57.5565 324.467 57.5565 324.407 57.5262C324.407 57.5565 324.407 57.5565 324.407 57.5868C324.467 57.5565 324.538 57.5565 324.598 57.5868C324.598 57.5565 324.598 57.5565 324.598 57.5565ZM328.187 64.5437C328.127 64.574 328.056 64.5437 327.996 64.5437C328.026 64.6144 327.925 64.6447 327.925 64.7052C327.996 64.6447 328.127 64.6144 328.187 64.5437ZM324.276 59.6365C324.467 59.6062 324.528 59.7375 324.689 59.7375C324.558 59.6668 324.397 59.6365 324.276 59.5759C324.276 59.6062 324.276 59.6062 324.276 59.6365ZM318.862 51.7204C318.892 51.6901 318.933 51.7204 318.963 51.6901C318.933 51.6901 318.892 51.6901 318.832 51.6901C318.832 51.68 318.862 51.68 318.862 51.7204ZM311.654 66.4117L311.593 66.3814C311.523 66.4117 311.462 66.4117 311.402 66.452C311.462 66.4419 311.563 66.4419 311.654 66.4117ZM310.313 46.5507C310.343 46.5507 310.414 46.5507 310.474 46.5507C310.444 46.48 310.343 46.5204 310.313 46.4598C310.313 46.48 310.313 46.5204 310.313 46.5507ZM306.402 47.005C306.432 46.9748 306.502 47.005 306.533 46.9748C306.462 46.9748 306.402 46.9748 306.371 46.9748C306.402 46.9647 306.402 47.005 306.402 47.005ZM305.958 38.9779C305.918 38.887 305.676 38.6649 306.089 38.6548C305.988 38.6548 305.898 38.7153 305.766 38.7153C305.827 38.786 305.887 38.9173 305.958 38.9779ZM301.986 54.4466C301.986 54.4466 301.986 54.4466 301.986 54.4163C301.956 54.4466 301.915 54.4466 301.915 54.4466C301.926 54.4466 301.905 54.4466 301.986 54.4466ZM298.296 64.9072C298.296 64.9072 298.296 64.9072 298.296 64.8769C298.266 64.9072 298.266 64.9072 298.266 64.9476L298.296 64.9072ZM295.796 50.7511C295.766 50.7511 295.766 50.7511 295.766 50.7208C295.705 50.7511 295.705 50.7511 295.635 50.7511C295.675 50.7814 295.766 50.7511 295.796 50.7511ZM295.161 66.866C295.131 66.8357 295.09 66.7953 295.06 66.765C295.06 66.7953 295.03 66.8256 295.03 66.8256C295.06 66.8256 295.121 66.866 295.161 66.866ZM290.645 22.8427C290.624 22.8124 290.584 22.7922 290.705 22.7821C290.604 22.7518 290.513 22.7518 290.413 22.7518C290.513 22.7821 290.574 22.8023 290.645 22.8427ZM283.628 19.7631C283.658 19.3693 283.759 19.1876 283.92 18.8645C283.981 18.9856 282.358 18.9553 283.628 19.7631ZM284.011 18.1274C284.082 18.1577 284.142 18.188 284.172 18.2586C284.203 18.2284 284.203 18.188 284.243 18.188C284.112 18.2183 284.112 18.087 284.011 18.1274ZM286.793 60.313C286.793 60.313 286.793 60.2827 286.793 60.2524C286.673 60.3231 286.773 60.2322 286.35 60.414C286.481 60.3433 286.602 60.2827 286.793 60.313ZM283.951 64.9375C283.951 64.9072 283.971 64.8971 283.981 64.8769C284.001 64.8769 284.021 64.8769 284.051 64.8971C284.021 64.8668 283.991 64.8971 283.991 64.8668H283.961C283.971 64.8668 283.971 64.8769 283.981 64.8769C283.951 64.8971 283.88 64.8769 283.951 64.9375ZM286.189 55.0221C285.503 55.2645 285.806 54.8606 283.275 56.2439C284.112 55.6986 285.13 55.3452 286.189 55.0221ZM282.055 54.0629C282.025 54.0629 281.985 54.0629 281.954 54.0629C281.985 54.1336 281.854 54.1538 281.894 54.2245C281.934 54.1538 281.995 54.0932 282.055 54.0629ZM281.35 23.0649C281.541 23.0951 281.672 23.1355 281.823 23.1961C281.662 23.1355 281.471 23.1355 281.35 22.974C281.35 23.0043 281.35 23.0346 281.35 23.0649ZM279.686 41.6132C279.747 41.5728 279.878 41.5728 279.938 41.5122C279.878 41.5122 279.747 41.5425 279.686 41.5122C279.686 41.5425 279.686 41.5728 279.686 41.6132ZM278.658 32.1421C278.658 32.1421 278.658 32.1421 278.688 32.1421C278.688 32.1421 278.658 32.1421 278.658 32.1118C278.658 32.1421 278.658 32.1421 278.658 32.1421ZM278.113 14.9771L278.144 14.9468C278.113 14.9771 278.083 14.9468 278.083 14.9468C278.083 14.9771 278.113 14.9771 278.113 14.9771ZM277.438 56.3651C277.388 56.355 277.388 56.2843 277.378 56.4357C277.408 56.4054 277.378 56.3651 277.438 56.3651ZM262.387 9.7468C262.417 9.77709 262.447 9.77709 262.487 9.80738H262.518C262.447 9.77709 262.447 9.77709 262.387 9.7468ZM271.803 8.75728C271.803 8.81787 271.863 8.81786 271.863 8.88854C271.893 8.85825 271.863 8.81787 271.893 8.78758C271.873 8.78758 271.833 8.78757 271.803 8.75728ZM273.95 31.2435C273.92 31.2435 273.92 31.2435 273.92 31.2435C273.91 31.3041 273.748 31.3142 273.728 31.5565C273.668 31.4051 273.789 31.3142 273.95 31.2435ZM272.639 63.1402C272.317 62.8878 271.903 62.8474 271.48 62.8474C272.609 62.9483 272.266 63.2311 272.639 63.1402ZM271.389 8.75728L271.42 8.6866C271.379 8.6866 271.379 8.7068 271.359 8.62602C271.5 8.77748 271.49 8.73709 271.389 8.75728ZM271.097 19.6621C271.157 19.6621 271.228 19.6621 271.288 19.6621C271.188 19.6621 271.157 19.6318 271.097 19.6016C271.097 19.6318 271.097 19.6318 271.097 19.6621ZM271.167 11.6753C271.036 11.6753 270.915 11.645 270.784 11.6753C270.855 11.7056 270.976 11.7056 271.036 11.7662C271.067 11.7359 271.097 11.7056 271.167 11.6753ZM270.653 32.8186C270.724 32.7884 270.784 32.7884 270.784 32.7884C270.754 32.7581 270.724 32.7884 270.653 32.7581C270.653 32.7884 270.653 32.7884 270.653 32.8186ZM266.933 32.7581C266.933 32.7581 266.903 32.7581 266.903 32.7278C266.873 32.7581 266.833 32.7581 266.802 32.7581C266.843 32.7581 266.873 32.7177 266.933 32.7581ZM264.443 61.979C264.443 61.9487 264.413 61.9184 264.443 61.9184C264.443 61.9184 264.443 61.9184 264.413 61.9184C264.443 61.9184 264.443 61.9487 264.443 61.979ZM264.917 37.5037C264.625 37.534 264.312 37.6047 264.05 37.6652C264.111 37.5441 264.625 38.2711 264.917 37.5037ZM263.153 14.1491C262.76 14.3915 263.143 14.1592 262.256 15.0478C262.578 14.8256 262.83 14.5328 263.153 14.1491ZM262.004 31.7887C262.004 31.7584 262.034 31.7584 262.034 31.7584C262.004 31.7584 261.973 31.7584 261.943 31.7584C261.943 31.7887 262.004 31.7584 262.004 31.7887ZM261.782 57.3647C261.812 57.3647 261.812 57.3647 261.883 57.3647C261.792 57.3546 261.862 57.3748 261.802 57.2738H261.812C261.782 57.2031 261.812 57.1122 261.842 57.0517C261.792 57.1122 261.802 57.1829 261.792 57.2738H261.772C261.802 57.3142 261.792 57.2738 261.782 57.3647ZM260.018 21.8128C259.957 21.7825 259.886 21.7825 259.826 21.7421C259.826 21.7724 259.796 21.8128 259.766 21.833C259.886 21.8431 259.886 21.7825 260.018 21.8128ZM258.475 12.8264C258.526 12.8163 258.445 12.8567 258.546 12.8567C258.435 12.8062 258.485 12.8567 258.354 12.6649C258.354 12.7355 258.354 12.7658 258.324 12.8264C258.354 12.8264 258.415 12.8264 258.475 12.8264ZM253.989 27.7196C253.928 27.7196 253.828 27.7196 253.737 27.7196C253.666 27.7903 253.666 27.8812 253.606 27.9417C253.807 27.9417 253.646 28.0124 253.989 27.7196ZM252.971 20.6214C252.971 20.6214 252.971 20.5911 253.001 20.5911C252.971 20.5911 252.971 20.5911 252.94 20.5911C252.971 20.6214 252.971 20.5911 252.971 20.6214ZM247.073 34.4544C247.003 34.4241 247.003 34.4544 246.942 34.4241C246.942 34.4241 246.872 34.4544 246.811 34.4544C246.912 34.4544 246.982 34.4544 247.073 34.4544ZM245.662 57.9099C245.692 57.8796 245.722 57.8392 245.763 57.819C245.732 57.819 245.732 57.819 245.662 57.819C245.702 57.8392 245.662 57.8392 245.662 57.9099ZM239.26 49.9534C239.069 49.7313 239.038 49.5697 239.038 49.3779C238.625 49.6303 238.242 49.8221 237.758 50.0544C238.232 50.014 238.806 49.9534 239.26 49.9534ZM232.788 38.7557C232.788 38.7254 232.818 38.7254 232.859 38.7254C232.828 38.6951 232.859 38.7254 232.788 38.5942C232.788 38.6245 232.788 38.685 232.788 38.7557ZM232.727 38.5942C232.758 38.5942 232.758 38.5942 232.788 38.5639C232.788 38.5639 232.758 38.5639 232.727 38.5336C232.748 38.6043 232.758 38.5538 232.727 38.5942ZM226.507 35.1309C226.477 35.141 226.427 35.04 226.316 35.1006C226.376 35.0602 226.447 35.1309 226.507 35.1309ZM215.105 38.0489C215.045 38.0489 215.005 38.0792 214.974 38.0489C214.974 38.1196 214.843 38.1196 214.914 38.1802C214.974 38.1398 215.045 38.1095 215.105 38.0489ZM214.017 56.3651C214.017 56.3348 214.047 56.3651 214.047 56.3348C214.017 56.3651 213.946 56.3348 213.886 56.3651C213.946 56.3651 213.986 56.3651 214.017 56.3651ZM212.857 61.7569C212.857 61.6963 212.797 61.6963 212.827 61.6256C212.797 61.6256 212.736 61.6256 212.696 61.6256C212.736 61.6559 212.827 61.6963 212.857 61.7569ZM212.545 54.2144C212.545 54.1841 212.575 54.1841 212.575 54.1437C212.514 54.174 212.444 54.1437 212.383 54.2144C212.444 54.2144 212.474 54.2144 212.545 54.2144ZM207.161 25.892C207.161 25.8618 207.161 25.8617 207.161 25.8315C207.131 25.8617 207.161 25.8618 207.131 25.892C207.161 25.892 207.161 25.892 207.161 25.892ZM204.278 12.4427V12.4124C204.278 12.4124 204.278 12.4427 204.207 12.473C204.278 12.4427 204.278 12.473 204.278 12.4427ZM202.998 37.3118C202.998 37.2816 202.998 37.2513 202.998 37.2513C202.937 37.2816 202.867 37.2513 202.806 37.2513C202.867 37.2816 202.937 37.2816 202.998 37.3118ZM197.806 19.3491C197.836 19.3188 197.937 19.3188 197.937 19.2784C197.806 19.3087 197.806 19.2482 197.715 19.2784C197.745 19.3087 197.806 19.3087 197.806 19.3491ZM197.675 17.1883C197.836 17.1278 197.715 17.1076 198.058 17.0268C198.058 17.0268 198.058 17.0268 198.088 16.9965C197.917 17.0369 197.907 17.1177 197.574 17.1883C197.614 17.1883 197.614 17.1883 197.675 17.1883ZM189.479 55.6986C189.61 55.6381 189.61 55.6381 189.731 55.5371C189.569 55.5573 189.227 55.4563 189.479 55.6986ZM188.319 14.4621C188.319 14.4318 188.289 14.4318 188.289 14.4016C188.259 14.4016 188.188 14.4016 188.188 14.4016C188.229 14.4016 188.259 14.4318 188.319 14.4621ZM179.448 37.6652C179.418 37.6652 179.418 37.6652 179.347 37.6652C179.559 37.7359 179.327 38.6649 179.448 37.6652ZM173.591 11.6148C173.591 11.6451 173.591 11.6451 173.56 11.6854C173.591 11.6854 173.621 11.6854 173.661 11.6854C173.621 11.6451 173.621 11.6451 173.591 11.6148ZM174.901 51.0742C174.901 51.0742 174.901 51.0439 174.931 51.0439C174.871 51.0439 174.8 51.0439 174.74 51.0439C174.8 51.0742 174.871 51.0439 174.901 51.0742ZM174.135 59.8687C174.135 59.8687 174.105 59.8687 174.105 59.8384C173.591 60 173.076 59.9697 172.572 60.0606C173.076 60 173.591 59.9293 174.135 59.8687ZM163.59 54.3456C163.529 54.275 163.59 54.2749 163.59 54.2144C163.56 54.2447 163.529 54.275 163.489 54.3456C163.529 54.3456 163.529 54.3456 163.59 54.3456ZM163.338 28.8101C163.469 28.7495 163.469 28.7192 163.59 28.6788C163.459 28.6788 163.338 28.6485 163.177 28.6485C163.207 28.7091 163.338 28.7091 163.338 28.8101ZM160.455 58.3239C160.455 58.3542 160.394 58.3845 160.354 58.4249C160.273 58.4047 161.16 58.3845 160.455 58.3239ZM151.452 46.4598C151.482 46.4598 151.482 46.4598 151.482 46.4598C151.543 46.4093 151.492 46.4497 151.674 46.3891C151.633 46.3588 151.553 46.379 151.452 46.4598ZM159.557 39.1091C159.557 38.8163 159.618 38.7254 159.688 38.5942C159.567 38.6649 159.578 38.5841 159.366 39.1394C159.426 39.1394 159.557 39.1394 159.557 39.1091ZM157.511 62.1709C157.45 62.1103 157.38 62.0699 157.319 62.0093C157.319 62.1103 157.319 62.1103 157.289 62.2012C157.309 62.1709 157.44 62.1709 157.511 62.1709ZM156.835 61.1107C156.805 61.0804 156.805 61.0501 156.835 61.0501C156.785 61.0602 156.805 61.0198 156.805 61.1107C156.805 61.1107 156.805 61.1107 156.835 61.1107ZM153.277 34.7472C153.337 34.7169 153.468 34.7169 153.529 34.6866C153.398 34.6866 153.277 34.6866 153.146 34.6866C153.186 34.6765 153.216 34.7068 153.277 34.7472ZM151.936 48.2874C151.482 48.2874 151.069 48.4489 150.625 48.4489C150.525 48.2773 152.127 48.9942 151.936 48.2874ZM150.908 61.7569C150.847 61.7064 150.635 61.9487 150.393 61.5953C150.333 61.6963 150.202 61.7266 150.071 61.7569C150.222 61.8074 150.252 61.7266 150.908 61.7569ZM146.875 16.3604C146.805 16.3907 146.805 16.4311 146.774 16.4311C146.875 16.4311 146.905 16.4917 146.996 16.4917C146.996 16.3907 146.875 16.421 146.875 16.3604ZM147.379 38.786C147.127 38.6548 146.936 38.6548 146.613 38.4932C146.643 38.5942 146.542 38.5942 146.542 38.685C146.744 38.5942 147.127 38.7557 147.379 38.786ZM145.907 11.9682C145.837 11.9984 145.776 11.9984 145.716 11.9984C145.847 12.059 146.099 12.1297 146.169 12.2206C146.139 12.0893 146.25 12.0085 145.907 11.9682ZM145.393 55.5977C145.393 55.5977 145.454 55.5977 145.524 55.5977C145.454 55.5674 145.423 55.5371 145.393 55.4967C145.393 55.5371 145.433 55.5674 145.393 55.5977ZM145.464 27.6186C145.534 27.5581 145.625 27.5884 145.716 27.5177C145.524 27.5177 145.464 27.5177 145.333 27.5177C145.393 27.5581 145.434 27.5581 145.464 27.6186ZM144.304 67.1185C144.274 67.0882 144.173 67.0882 144.173 67.0478H144.113C144.153 67.068 144.133 67.1185 144.304 67.1185ZM127.751 16.3907C127.721 16.3907 127.68 16.421 127.65 16.4513C127.781 16.4513 127.842 16.4816 127.902 16.4816C127.842 16.421 127.811 16.421 127.751 16.3907ZM128.991 24.4179V24.4482L129.051 24.4179C129.031 24.4179 128.991 24.4179 128.991 24.4179ZM139.375 52.5181C139.435 52.5181 139.435 52.5181 139.435 52.4878C139.405 52.5181 139.375 52.5181 139.304 52.5181C139.314 52.5181 139.375 52.5483 139.375 52.5181ZM132.902 18.4101C132.842 18.4101 132.842 18.3798 132.842 18.3798C132.842 18.4101 132.812 18.4101 132.812 18.4101C132.842 18.4101 132.842 18.4101 132.902 18.4101ZM132.136 29.7996C132.197 29.6684 132.267 29.6381 132.328 29.5068C132.197 29.5068 132.005 29.5371 131.945 29.5068C132.005 29.6381 132.076 29.6784 132.136 29.7996ZM130.826 49.0548C130.856 49.0245 130.926 49.0245 130.957 48.9841C130.856 49.0144 130.795 49.0144 130.735 49.0144C130.725 49.0245 130.785 49.0245 130.826 49.0548ZM129.697 8.72699C129.767 8.72699 129.828 8.66641 129.888 8.66641C129.828 8.63612 129.757 8.66641 129.697 8.63612C129.697 8.65631 129.697 8.6866 129.697 8.72699ZM129.636 30.1227C128.951 29.6986 129.646 30.0419 127.549 29.6078C128.225 29.6784 128.87 29.8299 129.636 30.1227ZM126.501 24.6097C126.35 24.5794 126.4 24.4683 125.795 24.4179C125.664 24.5491 125.543 24.4784 125.412 24.5491C125.765 24.539 126.118 24.539 126.501 24.6097ZM119.968 38.786C119.938 38.7557 119.938 38.7557 119.898 38.7557C119.898 38.8163 119.898 38.786 119.867 38.8567C119.898 38.8163 119.898 38.786 119.968 38.786ZM113.687 57.7181C113.798 57.6575 113.738 57.7282 113.748 57.405C113.718 57.405 113.687 57.405 113.687 57.405C113.748 57.4959 113.819 57.5868 113.687 57.7181ZM113.365 25.8214C113.617 25.6598 113.879 25.5689 114.131 25.8214C113.879 25.7204 113.657 25.4983 113.365 25.7608C113.365 25.7608 113.365 25.7911 113.365 25.8214ZM112.306 18.0264C112.276 17.9961 112.276 17.9658 112.276 17.9254C112.276 17.9557 112.276 17.986 112.206 18.0264C112.276 18.0264 112.276 18.0264 112.306 18.0264ZM111.117 45.2381C111.187 45.2078 111.308 45.2078 111.439 45.2078C111.379 45.1775 111.278 45.1775 111.218 45.1775C111.318 45.1068 111.409 45.1472 111.5 45.0866C111.207 45.1977 111.47 45.1169 110.925 45.1169C110.996 45.1371 111.056 45.2078 111.117 45.2381ZM107.215 59.475C107.145 59.5052 107.054 59.5052 106.993 59.5052C107.094 59.374 106.893 59.4447 106.923 59.5355C107.024 59.5456 107.084 59.5153 107.215 59.475ZM103.052 10.5243H103.082C103.001 10.5445 102.265 10.1709 103.052 10.5243ZM101.832 9.58524C101.832 9.55495 101.862 9.58525 101.862 9.55495C101.832 9.55495 101.832 9.55495 101.832 9.52466C101.832 9.55495 101.832 9.55495 101.832 9.58524ZM101.287 62.7565C101.388 62.7565 101.509 62.7565 101.61 62.7565C101.539 62.6555 101.388 62.6555 101.257 62.6252C101.257 62.6555 101.318 62.6858 101.287 62.7565ZM101.257 55.7592C101.257 55.7289 101.257 55.6885 101.257 55.6582C101.227 55.6582 101.197 55.6583 101.156 55.628C101.187 55.6986 101.227 55.6986 101.257 55.7592ZM100.481 52.7402C100.552 52.7099 100.552 52.6695 100.612 52.6695C100.552 52.6695 100.552 52.6695 100.481 52.6392C100.481 52.6796 100.481 52.7099 100.481 52.7402ZM93.2124 13.725C93.1821 13.7856 93.2124 13.8563 93.1821 13.9169C93.1821 13.9169 93.2426 13.9169 93.2829 13.9169C93.2426 13.8563 93.2426 13.7957 93.2124 13.725ZM98.8176 29.8299C98.5655 29.6684 98.9587 29.7289 98.7571 29.0625C98.6865 29.1231 98.7268 29.1938 98.6562 29.2544C98.9083 29.3251 98.7974 29.1837 98.8176 29.8299ZM93.5047 7.72738C93.5753 7.72738 93.5753 7.72738 93.6055 7.72738C93.5753 7.69709 93.5047 7.69709 93.4745 7.69709C93.5047 7.69709 93.5047 7.72738 93.5047 7.72738ZM93.1216 23.4485C93.1922 23.4183 93.2829 23.4183 93.3434 23.3779C93.2124 23.3476 93.0511 23.3476 92.9301 23.3476C92.9906 23.388 93.0511 23.388 93.1216 23.4485ZM89.4016 6.76816C89.4319 6.76816 89.4722 6.76816 89.4722 6.73787C89.4016 6.76816 89.3412 6.76816 89.2806 6.79845C89.3412 6.79845 89.3714 6.76816 89.4016 6.76816ZM88.8572 10.7767C88.827 10.7464 88.827 10.7464 88.827 10.7464C88.7968 10.7464 88.7665 10.7464 88.7665 10.7464C88.827 10.7464 88.827 10.7767 88.8572 10.7767ZM86.1958 22.0652C86.1252 22.0047 86.0647 22.0047 86.0647 21.934C85.9941 21.9946 85.9639 22.0249 85.9337 22.0854C86.0042 22.0955 86.105 22.0652 86.1958 22.0652ZM76.8101 8.11107C76.7798 8.14136 76.7798 8.14136 76.7798 8.14136C76.7798 8.14136 76.7798 8.14136 76.8101 8.14136C76.8101 8.14136 76.8101 8.14136 76.8101 8.11107ZM81.3971 20.1771C81.3265 20.1064 81.4273 20.1064 81.3971 20.0458C81.3265 20.0761 81.3265 20.1468 81.266 20.1771C81.3265 20.1771 81.3265 20.1468 81.3971 20.1771ZM77.294 36.5748C77.294 36.5748 77.294 36.5748 77.294 36.5445L77.2234 36.5748H77.294ZM77.4855 24.5087C77.5561 24.4683 77.1931 24.4482 77.3847 24.3775C77.0016 24.4179 77.3646 24.3977 76.4572 24.3775C76.8403 24.4179 77.1932 24.3169 77.4855 24.5087ZM73.4127 56.7487C73.4429 56.7184 73.4127 56.6579 73.4429 56.6175C73.3824 56.6781 73.3522 56.6781 73.3119 56.7487C73.3522 56.7487 73.3824 56.7487 73.4127 56.7487ZM70.1161 37.4128C70.1161 37.4128 70.0858 37.4128 70.0858 37.3825C70.0858 37.4128 70.0556 37.4128 70.0556 37.4128C70.0556 37.4128 70.0858 37.4128 70.1161 37.4128ZM68.0696 60.3837C68.0696 60.3534 68.0696 60.3534 68.0696 60.3534C67.9184 60.2827 67.3336 60.2928 68.0696 60.3837ZM67.7167 60.0909C67.747 60.0606 67.747 60.0606 67.7772 60.0202C67.747 60.0202 67.747 60.0202 67.7167 60.0202C67.7167 60.0606 67.7167 60.0606 67.7167 60.0909ZM67.4244 13.412C67.4244 13.412 67.5554 13.3212 67.6764 13.2808C66.7792 13.4423 65.882 13.2808 64.9847 13.2505C65.8215 13.1798 66.628 13.0889 67.4244 13.412ZM64.8033 22.9639C64.773 22.9639 64.7428 22.9336 64.7428 22.9336C64.7428 22.9639 64.7427 22.9639 64.7125 22.9639C64.7327 22.9639 64.7327 22.9639 64.8033 22.9639ZM62.6559 23.1658H62.6862C62.6458 23.1557 62.6358 23.1557 62.6156 23.1355C62.6358 23.1557 62.5854 23.1557 62.6559 23.1658ZM57.5548 11.4229C56.2845 11.635 57.5346 11.4229 56.3047 11.6451C56.7281 11.6148 57.1717 11.5138 57.5548 11.4229ZM53.7441 11.9984C53.6534 11.8975 53.4517 11.8672 53.3912 11.7763C53.3912 11.8066 53.361 11.7763 53.3206 11.8066C53.5525 11.8066 53.6231 11.9278 53.7441 11.9984ZM51.0624 21.3988C51.0322 21.1767 51.1532 21.1363 51.2238 20.9849C51.0624 21.0454 50.9616 21.1363 50.8406 21.1363C50.9011 21.2676 50.9919 21.2676 51.0624 21.3988ZM48.3304 55.0221C48.3304 54.8303 48.4615 54.6384 48.7135 54.5072C48.5824 54.699 48.4615 54.8606 48.2598 55.0221C48.2699 55.0221 48.3001 55.0221 48.3304 55.0221ZM43.2696 41.4113C42.947 40.9569 43.1284 41.3002 41.3441 41.1185C42.2514 41.2295 42.826 41.2901 43.2696 41.4113ZM39.4286 40.967C39.358 40.9367 39.2975 40.8054 39.2371 40.7449C39.2068 40.8458 39.2673 40.8761 39.2068 40.967C39.2975 40.967 39.3379 40.967 39.4286 40.967ZM37.4426 40.0986C37.5132 40.028 37.5132 40.0684 37.5736 40.028C37.5132 40.028 37.4426 40.028 37.3821 40.028C37.4124 40.0684 37.4426 40.0684 37.4426 40.0986ZM35.3255 52.932C35.3255 52.932 35.3557 52.932 35.386 52.932C35.2953 52.8816 35.4263 52.8311 35.134 52.6392C35.2348 52.7402 35.3961 52.8412 35.3255 52.932ZM35.2953 14.1491C35.1642 13.8866 35.0735 13.6039 34.8214 13.3817C34.6904 13.7957 34.4989 13.8967 34.2771 13.9876C34.6198 14.0179 34.9424 14.0482 35.2953 14.1491ZM31.9987 52.5484C31.9987 52.5181 32.0693 52.5483 32.0693 52.5181C32.0693 52.5181 31.9987 52.5181 31.9684 52.5181C31.9684 52.5181 31.9987 52.5181 31.9987 52.5484ZM30.174 59.0004C30.2748 59.0004 30.1942 59.0105 30.3051 58.9297C30.2748 58.9297 30.2748 58.9297 30.2748 58.9297C29.8816 59.0509 30.2042 58.9499 29.3171 59.0307C29.5388 59.0004 29.3473 59.1418 30.174 59.0004ZM26.9984 46.6516H26.9278C26.9278 46.6819 26.8976 46.7122 26.8673 46.7425C26.9379 46.7122 26.9379 46.6819 26.9984 46.6516ZM26.6455 21.207C26.5851 21.1363 26.5447 21.1767 26.4842 21.1363C26.4137 21.1969 26.4137 21.0757 26.2019 21.2979C26.3733 21.1767 26.202 21.2575 26.6455 21.207ZM24.0849 24.3472C24.0244 24.3775 23.9538 24.4381 23.8631 24.4784C24.0546 24.4784 24.1857 24.3775 24.3369 24.3775C24.2462 24.3472 24.1756 24.3775 24.0849 24.3472ZM23.9941 36.7969C23.9941 36.7969 24.0244 36.7969 24.0546 36.7969C23.8026 36.7969 23.5405 36.7666 23.1271 36.6959C23.4094 36.7363 23.6715 36.7969 23.9941 36.7969ZM22.4517 28.6788C22.3912 28.6183 22.4517 28.588 22.4517 28.5274C22.3307 28.5274 22.4013 28.487 22.4517 28.6788ZM20.8488 41.4819C20.7076 41.1487 21.2318 41.0579 20.2036 41.068C20.3951 41.2295 20.5967 41.3204 20.8488 41.4819ZM19.5684 43.2489C19.5987 43.2186 19.639 43.1783 19.6995 43.1783C19.639 43.148 19.5685 43.0874 19.5079 43.047C19.5079 43.148 19.5987 43.1177 19.5684 43.2489ZM10.1525 43.8548C10.2533 43.8548 10.2836 43.8548 10.3743 43.8548C10.3138 43.8245 10.213 43.8548 10.1525 43.8245V43.8548Z" fill="#6111B0"/>
<path fill-rule="evenodd" clip-rule="evenodd" d="M21.746 60.5654C21.4536 60.5352 21.1714 60.5049 20.9092 60.3736C21.2923 60.3433 21.6149 60.3433 21.998 60.3433C21.877 60.414 21.8065 60.4746 21.746 60.5654Z" fill="#6111B0"/>
<path fill-rule="evenodd" clip-rule="evenodd" d="M203.542 67.1487C210.77 67.0175 222.445 67.9868 201.334 67.5425C198.764 67.5425 195.064 66.8862 203.542 67.1487Z" fill="#6111B0"/>
<path fill-rule="evenodd" clip-rule="evenodd" d="M193.894 2.08312C192.483 1.02293 197.282 1.22487 193.894 2.08312V2.08312Z" fill="#6111B0"/>
<path fill-rule="evenodd" clip-rule="evenodd" d="M300.827 34.3231C301.724 34.515 302.621 34.6765 303.256 35.2218C302.621 34.6765 301.018 35.4843 300.827 34.3231Z" fill="#6111B0"/>
<path fill-rule="evenodd" clip-rule="evenodd" d="M105.673 3.46642C105.905 4.14292 106.127 3.93088 104.13 4.26408C104.584 3.80972 104.846 3.33515 105.673 3.46642Z" fill="#6111B0"/>
<path fill-rule="evenodd" clip-rule="evenodd" d="M164.104 3.85011C163.348 3.01206 172.22 3.60778 167.048 3.98138C165.727 4.05206 166.856 4.06215 164.104 3.85011Z" fill="#6111B0"/>
<path fill-rule="evenodd" clip-rule="evenodd" d="M165.354 67.8253C166.352 67.4719 165.939 67.6536 169.84 67.381C169.175 68.3301 169.76 67.8454 165.354 67.8253Z" fill="#6111B0"/>
<path fill-rule="evenodd" clip-rule="evenodd" d="M291.602 68.7845C290.453 69.1076 290.453 68.9258 285.07 68.9763C286.36 68.5523 285.977 68.6633 291.602 68.7845Z" fill="#6111B0"/>
<path fill-rule="evenodd" clip-rule="evenodd" d="M317.259 32.5258C315.848 32.7076 316.352 32.7783 311.019 31.7585C312.34 31.4959 312.168 31.6272 317.259 32.5258Z" fill="#6111B0"/>
<path fill-rule="evenodd" clip-rule="evenodd" d="M302.813 69.2994C302.198 69.461 301.593 69.6225 300.827 69.9052C301.18 68.8451 302.238 69.461 302.813 69.2994Z" fill="#6111B0"/>
<path fill-rule="evenodd" clip-rule="evenodd" d="M119.545 5.32428C119.635 5.26369 118.264 5.30408 119.192 4.80933C119.061 4.74874 120.835 4.98098 119.545 5.32428Z" fill="#6111B0"/>
<path fill-rule="evenodd" clip-rule="evenodd" d="M283.205 66.866C283.709 67.2901 280.916 67.0882 283.205 66.866V66.866Z" fill="#6111B0"/>
<path fill-rule="evenodd" clip-rule="evenodd" d="M150.111 2.82022C150.726 3.10294 151.089 2.93129 150.021 3.98139C149.728 3.46643 149.758 3.11304 150.111 2.82022Z" fill="#6111B0"/>
<path fill-rule="evenodd" clip-rule="evenodd" d="M270.976 68.9158C270.643 68.9258 267.79 68.6431 270.976 68.9158V68.9158Z" fill="#6111B0"/>
<path fill-rule="evenodd" clip-rule="evenodd" d="M311.916 37.5946C312.319 38.3216 307.813 37.1099 311.916 37.5946V37.5946Z" fill="#6111B0"/>
<path fill-rule="evenodd" clip-rule="evenodd" d="M263.153 68.4008C263.828 68.4008 264.564 68.2998 265.27 68.6532C263.808 68.8955 263.274 68.8955 258.929 68.5623C259.866 68.3301 259.634 68.9157 263.153 68.4008Z" fill="#6111B0"/>
<path fill-rule="evenodd" clip-rule="evenodd" d="M314.799 38.786C315.031 38.8466 315.072 38.3418 315.697 38.8769C315.404 38.9476 315.374 39.2808 314.799 38.786Z" fill="#6111B0"/>
<path fill-rule="evenodd" clip-rule="evenodd" d="M231.508 0.447393C231.578 0.538267 231.699 -0.0675582 232.274 0.447393C232.264 0.235354 231.8 1.34603 231.508 0.447393Z" fill="#6111B0"/>
</svg>
