<svg width="283" height="70" viewBox="0 0 283 70" fill="none" xmlns="http://www.w3.org/2000/svg">
<path fill-rule="evenodd" clip-rule="evenodd" d="M185.682 1.4923C179.126 4.58201 187.818 2.42123 191.975 2.30007C192.418 1.79521 192.468 0.977348 193.486 0.886475C192.788 1.19948 192.936 2.12842 192.114 2.28997C193.61 9.41851 192.517 4.44065 185.682 1.4923Z" fill="#6111B0"/>
<path fill-rule="evenodd" clip-rule="evenodd" d="M147.226 4.05697C145.041 4.57192 136.793 2.55251 145.139 2.00726C140.982 2.9261 163.689 4.02668 147.226 4.05697Z" fill="#6111B0"/>
<path fill-rule="evenodd" clip-rule="evenodd" d="M161.586 4.31948C147.275 3.84492 175.437 -0.537218 168.216 3.16841C168.06 4.32958 164.799 3.84492 161.586 4.31948Z" fill="#6111B0"/>
<path fill-rule="evenodd" clip-rule="evenodd" d="M180.071 67.1739C184.367 66.8406 196.542 68.1028 210.04 68.234C203.131 68.8803 210.04 68.234 184.433 67.5878C185.181 67.921 184.458 67.5878 180.071 67.1739Z" fill="#6111B0"/>
<path fill-rule="evenodd" clip-rule="evenodd" d="M249.408 33.0255C250.804 33.2072 250.377 35.2065 248.208 34.0453C250.402 33.3284 245.226 32.45 249.408 33.0255Z" fill="#6111B0"/>
<path fill-rule="evenodd" clip-rule="evenodd" d="M142.921 67.2647C141.303 67.8705 142.921 67.2647 137.852 67.6484C139.241 66.6084 137.861 67.507 142.921 67.2647Z" fill="#6111B0"/>
<path fill-rule="evenodd" clip-rule="evenodd" d="M89.374 3.48142C89.9408 3.44103 105.566 1.70433 101.73 3.67327C101.672 3.27948 88.4046 5.71288 89.374 3.48142Z" fill="#6111B0"/>
<path fill-rule="evenodd" clip-rule="evenodd" d="M159.549 67.0123C155.014 67.4364 151.613 67.2748 143.677 67.2647C150.438 66.669 145.542 67.0325 159.549 67.0123Z" fill="#6111B0"/>
<path fill-rule="evenodd" clip-rule="evenodd" d="M181.451 8.61075C181.862 9.52958 178.272 9.84259 181.451 8.61075V8.61075Z" fill="#6111B0"/>
<path fill-rule="evenodd" clip-rule="evenodd" d="M174.846 1.33075C175.191 1.57308 174.887 3.26939 173.753 2.58279C173.597 1.90629 174.484 2.00725 174.846 1.33075Z" fill="#6111B0"/>
<path fill-rule="evenodd" clip-rule="evenodd" d="M105.09 2.87558C105.862 3.30975 121.356 1.43169 118.119 3.64296C115.622 3.05733 107.029 5.11713 105.09 2.87558Z" fill="#6111B0"/>
<path fill-rule="evenodd" clip-rule="evenodd" d="M237.241 68.5473C237.183 68.5473 237.183 68.5473 237.134 68.5473C237.183 68.5168 237.183 68.5473 237.241 68.5168C237.241 68.5473 237.241 68.5473 237.241 68.5473Z" fill="#6111B0"/>
<path fill-rule="evenodd" clip-rule="evenodd" d="M85.1518 5.57153C85.1763 5.60212 85.2089 5.6327 85.2089 5.6327H85.1518C85.1518 5.60212 85.1518 5.60212 85.1518 5.57153Z" fill="#6111B0"/>
<path fill-rule="evenodd" clip-rule="evenodd" d="M250.607 68.1031C250.607 68.1031 250.583 68.1031 250.55 68.1031C250.55 68.1031 250.574 68.0726 250.607 68.0726C250.607 68.0624 250.607 68.0624 250.607 68.1031Z" fill="#6111B0"/>
<path fill-rule="evenodd" clip-rule="evenodd" d="M230.923 64.6294C230.923 64.6394 230.923 64.6394 230.923 64.6294C230.915 64.6394 230.915 64.6394 230.915 64.6394C230.915 64.6394 230.915 64.6394 230.923 64.6294Z" fill="#6111B0"/>
<path fill-rule="evenodd" clip-rule="evenodd" d="M4.46091 39.2857C4.46091 39.2857 4.46091 39.2857 4.48557 39.2857C8.74109 33.3486 2.3085 25.5738 18.7884 20.2729C18.7391 20.5051 18.509 20.6465 18.4762 20.8989C18.5419 20.3334 18.813 20.4849 18.9773 20.2224C20.5711 19.7175 22.0909 19.2026 24.1365 18.7482C24.1118 18.7482 24.1118 18.7482 24.1118 18.7482C22.9617 18.9703 23.3314 18.3342 20.6368 18.8795C20.8175 19.6569 19.6674 19.142 18.9773 20.2224C18.9198 20.2426 18.8459 20.2628 18.7802 20.2729C20.5053 12.5082 31.3824 9.61034 41.3393 9.95364C41.3393 9.92335 41.3147 9.92335 41.3147 9.92335C75.8517 3.40063 93.9746 6.60141 165.76 9.56995C166.852 7.37889 176.144 10.8422 174.476 7.28801C177.138 8.39869 178.255 7.52025 178.912 11.7509C178.962 11.7206 178.962 11.7812 179.019 11.7509C181.163 7.6616 189.485 6.83364 195.984 9.18626C197.89 6.6519 203.714 10.7614 208.463 9.055C191.35 5.57151 204.257 2.90588 197.397 0.846069C206.721 1.58316 206.54 4.68296 251.199 20.5455C251.379 20.7979 251.593 20.9595 251.798 21.1816C251.264 22.05 250.656 20.4344 247.781 21.7268C252.784 22.6053 243.353 23.514 252.875 24.9074C241.365 24.2208 238.859 25.3517 255.618 28.502C255.503 29.1381 252.39 28.8251 250.155 29.0472C250.131 29.0169 250.106 28.9867 250.081 28.9564C250.081 28.9867 250.081 29.0169 250.057 29.0472C250.073 29.0472 250.106 29.0472 250.131 29.0472C248.8 29.1785 247.707 29.4612 247.995 30.3901C250.04 31.4604 245.966 30.3801 240.847 31.4806C254.879 35.4993 237.512 30.5719 253.688 40.3055C253.014 40.5983 253.343 40.154 250.813 40.3661C251.609 41.9109 250.599 41.0729 254.132 42.1331C239.073 40.8709 267.991 45.5762 257.656 45.6973C257.648 46.8686 256.974 46.6667 259.874 47.1109C258.699 47.8783 257.631 47.6562 256.456 47.848C276.469 57.6321 262.782 54.9766 283 63.963C281.825 64.4981 277.019 63.135 274.44 65.2453C264.787 64.0538 251.79 69.8698 237.266 68.547C239.738 67.0325 234.702 68.3451 231.236 65.8511C207.395 65.6795 201.882 66.881 145.189 66.1035C145.32 65.9117 145.427 65.6593 145.525 65.4573C145.501 65.4573 145.501 65.4573 145.476 65.4573C145.846 67.7797 131.297 65.1746 129.999 67.2849C130.754 67.3455 129.999 67.2849 132.324 67.5373C131.346 67.1334 132.488 68.4562 121.75 66.8305C121.948 66.9618 121.512 67.0426 121.75 67.6686C121.175 67.608 120.6 67.5676 120.025 67.4767L120.083 67.4162C117.536 69.0014 97.8522 65.6896 98.0494 67.9311C77.733 60.6915 34.8903 85.9039 0 42.1331C0.558624 41.6282 1.69235 40.2954 4.46091 39.2857ZM23.2821 15.6383C23.2328 15.6989 23.2164 15.6484 23.2246 15.7999C23.2493 15.7696 23.2821 15.7696 23.3068 15.7696C23.2821 15.7393 23.2821 15.6989 23.2821 15.6383ZM243.608 20.9696C243.616 20.9999 243.657 21.0301 243.632 20.9696C243.608 20.9393 243.608 20.9393 243.608 20.8989C243.608 20.9393 243.608 20.9393 243.608 20.9696ZM264.023 57.3191C263.973 57.3191 263.916 57.3191 263.867 57.2888C263.867 57.3191 263.867 57.3191 263.867 57.3494C263.916 57.3191 263.973 57.3191 264.023 57.3494C264.023 57.3191 264.023 57.3191 264.023 57.3191ZM266.947 64.3063C266.898 64.3366 266.841 64.3063 266.791 64.3063C266.816 64.3769 266.734 64.4072 266.734 64.4678C266.791 64.4072 266.898 64.3769 266.947 64.3063ZM263.76 59.3991C263.916 59.3688 263.965 59.5 264.097 59.5C263.99 59.4294 263.858 59.3991 263.76 59.3385C263.76 59.3688 263.76 59.3688 263.76 59.3991ZM259.348 51.483C259.373 51.4527 259.406 51.483 259.43 51.4527C259.406 51.4527 259.373 51.4527 259.324 51.4527C259.324 51.4426 259.348 51.4426 259.348 51.483ZM253.474 66.1742L253.425 66.1439C253.367 66.1742 253.318 66.1742 253.269 66.2146C253.318 66.2045 253.4 66.2045 253.474 66.1742ZM252.382 46.3133C252.406 46.3133 252.464 46.3133 252.513 46.3133C252.488 46.2426 252.406 46.283 252.382 46.2224C252.382 46.2426 252.382 46.283 252.382 46.3133ZM249.194 46.7676C249.219 46.7373 249.276 46.7676 249.301 46.7373C249.243 46.7373 249.194 46.7373 249.169 46.7373C249.194 46.7272 249.194 46.7676 249.194 46.7676ZM248.833 38.7404C248.8 38.6496 248.603 38.4274 248.939 38.4173C248.857 38.4173 248.783 38.4779 248.677 38.4779C248.726 38.5486 248.775 38.6799 248.833 38.7404ZM245.596 54.2092C245.596 54.2092 245.596 54.2092 245.596 54.1789C245.571 54.2092 245.538 54.2092 245.538 54.2092C245.547 54.2092 245.53 54.2092 245.596 54.2092ZM242.589 64.6698C242.589 64.6698 242.589 64.6698 242.589 64.6395C242.564 64.6698 242.564 64.6698 242.564 64.7101L242.589 64.6698ZM240.552 50.5136C240.527 50.5136 240.527 50.5136 240.527 50.4833C240.478 50.5136 240.478 50.5136 240.42 50.5136C240.453 50.5439 240.527 50.5136 240.552 50.5136ZM240.034 66.6286C240.009 66.5983 239.977 66.5579 239.952 66.5276C239.952 66.5579 239.927 66.5882 239.927 66.5882C239.952 66.5882 240.001 66.6286 240.034 66.6286ZM236.354 22.6053C236.337 22.575 236.304 22.5548 236.403 22.5447C236.321 22.5144 236.247 22.5144 236.165 22.5144C236.247 22.5447 236.296 22.5649 236.354 22.6053ZM230.636 19.5257C230.66 19.1319 230.743 18.9501 230.874 18.627C230.923 18.7482 229.601 18.7179 230.636 19.5257ZM230.948 17.89C231.005 17.9202 231.055 17.9505 231.079 18.0212C231.104 17.9909 231.104 17.9505 231.137 17.9505C231.03 17.9808 231.03 17.8496 230.948 17.89ZM233.215 60.0756C233.215 60.0756 233.215 60.0453 233.215 60.015C233.117 60.0857 233.199 59.9948 232.854 60.1766C232.961 60.1059 233.059 60.0453 233.215 60.0756ZM230.899 64.7001C230.899 64.6698 230.915 64.6597 230.923 64.6395C230.94 64.6395 230.956 64.6395 230.981 64.6597C230.956 64.6294 230.932 64.6597 230.932 64.6294H230.907C230.915 64.6294 230.915 64.6395 230.923 64.6395C230.899 64.6597 230.841 64.6395 230.899 64.7001ZM232.722 54.7847C232.164 55.027 232.41 54.6232 230.348 56.0065C231.03 55.4612 231.86 55.1078 232.722 54.7847ZM229.354 53.8255C229.33 53.8255 229.297 53.8255 229.272 53.8255C229.297 53.8962 229.19 53.9164 229.223 53.987C229.256 53.9164 229.305 53.8558 229.354 53.8255ZM228.779 22.8274C228.935 22.8577 229.042 22.8981 229.165 22.9587C229.034 22.8981 228.878 22.8981 228.779 22.7366C228.779 22.7668 228.779 22.7971 228.779 22.8274ZM227.424 41.3758C227.473 41.3354 227.58 41.3354 227.629 41.2748C227.58 41.2748 227.473 41.3051 227.424 41.2748C227.424 41.3051 227.424 41.3354 227.424 41.3758ZM226.586 31.9047C226.586 31.9047 226.586 31.9047 226.61 31.9047C226.61 31.9047 226.586 31.9047 226.586 31.8744C226.586 31.9047 226.586 31.9047 226.586 31.9047ZM226.142 14.7397L226.167 14.7094C226.142 14.7397 226.117 14.7094 226.117 14.7094C226.117 14.7397 226.142 14.7397 226.142 14.7397ZM225.592 56.1276C225.551 56.1175 225.551 56.0468 225.542 56.1983C225.567 56.168 225.542 56.1276 225.592 56.1276ZM213.326 9.50937C213.351 9.53966 213.375 9.53966 213.408 9.56995H213.433C213.375 9.53966 213.375 9.53966 213.326 9.50937ZM220.999 8.51986C220.999 8.58044 221.049 8.58044 221.049 8.65112C221.073 8.62083 221.049 8.58044 221.073 8.55015C221.057 8.55015 221.024 8.55015 220.999 8.51986ZM222.749 31.0061C222.724 31.0061 222.724 31.0061 222.724 31.0061C222.716 31.0667 222.585 31.0768 222.568 31.3191C222.519 31.1676 222.618 31.0767 222.749 31.0061ZM221.681 62.9028C221.418 62.6503 221.081 62.61 220.736 62.61C221.656 62.7109 221.377 62.9936 221.681 62.9028ZM220.662 8.51986L220.687 8.44918C220.654 8.44918 220.654 8.46937 220.638 8.3886C220.753 8.54005 220.745 8.49966 220.662 8.51986ZM220.424 19.4247C220.473 19.4247 220.531 19.4247 220.58 19.4247C220.498 19.4247 220.473 19.3944 220.424 19.3641C220.424 19.3944 220.424 19.3944 220.424 19.4247ZM220.482 11.4379C220.375 11.4379 220.276 11.4076 220.17 11.4379C220.227 11.4682 220.326 11.4682 220.375 11.5288C220.4 11.4985 220.424 11.4682 220.482 11.4379ZM220.063 32.5812C220.12 32.5509 220.17 32.5509 220.17 32.5509C220.145 32.5206 220.12 32.5509 220.063 32.5206C220.063 32.5509 220.063 32.5509 220.063 32.5812ZM217.031 32.5206C217.031 32.5206 217.007 32.5206 217.007 32.4903C216.982 32.5206 216.949 32.5206 216.924 32.5206C216.957 32.5206 216.982 32.4802 217.031 32.5206ZM215.002 61.7416C215.002 61.7113 214.977 61.681 215.002 61.681C215.002 61.681 215.002 61.681 214.977 61.681C215.002 61.681 215.002 61.7113 215.002 61.7416ZM215.388 37.2663C215.15 37.2966 214.895 37.3672 214.682 37.4278C214.731 37.3067 215.15 38.0336 215.388 37.2663ZM213.951 13.9117C213.63 14.154 213.942 13.9218 213.219 14.8103C213.482 14.5882 213.688 14.2954 213.951 13.9117ZM213.014 31.5513C213.014 31.521 213.039 31.521 213.039 31.521C213.014 31.521 212.989 31.521 212.965 31.521C212.965 31.5513 213.014 31.521 213.014 31.5513ZM212.833 57.1272C212.858 57.1272 212.858 57.1272 212.915 57.1272C212.842 57.1171 212.899 57.1373 212.85 57.0364H212.858C212.833 56.9657 212.858 56.8748 212.883 56.8142C212.842 56.8748 212.85 56.9455 212.841 57.0364H212.825C212.85 57.0768 212.841 57.0364 212.833 57.1272ZM211.396 21.5754C211.346 21.5451 211.289 21.5451 211.24 21.5047C211.24 21.535 211.215 21.5754 211.19 21.5956C211.289 21.6057 211.289 21.5451 211.396 21.5754ZM210.139 12.589C210.18 12.5789 210.114 12.6193 210.196 12.6193C210.106 12.5688 210.147 12.6193 210.04 12.4274C210.04 12.4981 210.04 12.5284 210.015 12.589C210.04 12.589 210.089 12.589 210.139 12.589ZM206.483 27.4822C206.434 27.4822 206.351 27.4822 206.277 27.4822C206.22 27.5529 206.22 27.6437 206.171 27.7043C206.335 27.7043 206.204 27.775 206.483 27.4822ZM205.653 20.3839C205.653 20.3839 205.653 20.3536 205.678 20.3536C205.653 20.3536 205.653 20.3536 205.628 20.3536C205.653 20.3839 205.653 20.3536 205.653 20.3839ZM200.847 34.2169C200.79 34.1867 200.79 34.2169 200.74 34.1866C200.74 34.1866 200.683 34.2169 200.634 34.2169C200.716 34.2169 200.773 34.2169 200.847 34.2169ZM199.697 57.6725C199.722 57.6422 199.746 57.6018 199.779 57.5816C199.755 57.5816 199.755 57.5816 199.697 57.5816C199.73 57.6018 199.697 57.6018 199.697 57.6725ZM194.48 49.716C194.324 49.4938 194.3 49.3323 194.3 49.1404C193.963 49.3929 193.651 49.5847 193.256 49.8169C193.642 49.7766 194.111 49.716 194.48 49.716ZM189.206 38.5183C189.206 38.488 189.231 38.488 189.264 38.488C189.239 38.4577 189.264 38.488 189.206 38.3568C189.206 38.387 189.206 38.4476 189.206 38.5183ZM189.157 38.3568C189.181 38.3568 189.181 38.3568 189.206 38.3265C189.206 38.3265 189.181 38.3265 189.157 38.2962C189.173 38.3669 189.181 38.3164 189.157 38.3568ZM184.088 34.8935C184.063 34.9035 184.022 34.8026 183.932 34.8632C183.981 34.8228 184.039 34.8935 184.088 34.8935ZM174.797 37.8115C174.747 37.8115 174.714 37.8418 174.69 37.8115C174.69 37.8822 174.583 37.8822 174.64 37.9428C174.69 37.9024 174.747 37.8721 174.797 37.8115ZM173.909 56.1276C173.909 56.0973 173.934 56.1276 173.934 56.0973C173.909 56.1276 173.852 56.0973 173.802 56.1276C173.852 56.1276 173.885 56.1276 173.909 56.1276ZM172.965 61.5195C172.965 61.4589 172.915 61.4589 172.94 61.3882C172.915 61.3882 172.866 61.3882 172.833 61.3882C172.866 61.4185 172.94 61.4589 172.965 61.5195ZM172.71 53.9769C172.71 53.9466 172.734 53.9466 172.734 53.9063C172.685 53.9366 172.628 53.9063 172.578 53.9769C172.628 53.9769 172.652 53.9769 172.71 53.9769ZM168.323 25.6546C168.323 25.6243 168.323 25.6243 168.323 25.594C168.298 25.6243 168.323 25.6243 168.298 25.6546C168.323 25.6546 168.323 25.6546 168.323 25.6546ZM165.973 12.2053V12.175C165.973 12.175 165.973 12.2053 165.916 12.2356C165.973 12.2053 165.973 12.2356 165.973 12.2053ZM164.93 37.0744C164.93 37.0441 164.93 37.0138 164.93 37.0138C164.881 37.0441 164.823 37.0138 164.774 37.0138C164.823 37.0441 164.881 37.0441 164.93 37.0744ZM160.699 19.1117C160.724 19.0814 160.806 19.0814 160.806 19.041C160.699 19.0713 160.699 19.0107 160.625 19.041C160.65 19.0713 160.699 19.0713 160.699 19.1117ZM160.592 16.9509C160.724 16.8903 160.625 16.8701 160.905 16.7894C160.905 16.7894 160.905 16.7894 160.929 16.7591C160.789 16.7995 160.781 16.8802 160.51 16.9509C160.543 16.9509 160.543 16.9509 160.592 16.9509ZM153.913 55.4612C154.02 55.4006 154.02 55.4006 154.119 55.2997C153.987 55.3199 153.708 55.2189 153.913 55.4612ZM152.969 14.2247C152.969 14.1944 152.944 14.1944 152.944 14.1641C152.919 14.1641 152.862 14.1641 152.862 14.1641C152.895 14.1641 152.919 14.1944 152.969 14.2247ZM145.739 37.4278C145.714 37.4278 145.714 37.4278 145.657 37.4278C145.829 37.4985 145.641 38.4274 145.739 37.4278ZM140.966 11.3773C140.966 11.4076 140.966 11.4076 140.941 11.448C140.966 11.448 140.991 11.448 141.024 11.448C140.991 11.4076 140.991 11.4076 140.966 11.3773ZM142.034 50.8368C142.034 50.8368 142.034 50.8065 142.059 50.8065C142.009 50.8065 141.952 50.8065 141.903 50.8065C141.952 50.8367 142.009 50.8065 142.034 50.8368ZM141.41 59.6313C141.41 59.6313 141.385 59.6313 141.385 59.601C140.966 59.7626 140.547 59.7323 140.136 59.8232C140.547 59.7626 140.966 59.6919 141.41 59.6313ZM132.816 54.1082C132.767 54.0375 132.816 54.0375 132.816 53.9769C132.792 54.0072 132.767 54.0375 132.734 54.1082C132.767 54.1082 132.767 54.1082 132.816 54.1082ZM132.611 28.5727C132.718 28.5121 132.718 28.4818 132.816 28.4414C132.71 28.4414 132.611 28.4111 132.48 28.4111C132.504 28.4717 132.611 28.4717 132.611 28.5727ZM130.262 58.0865C130.262 58.1167 130.212 58.147 130.179 58.1874C130.114 58.1672 130.837 58.147 130.262 58.0865ZM122.925 46.2224C122.95 46.2224 122.95 46.2224 122.95 46.2224C122.999 46.1719 122.958 46.2123 123.106 46.1517C123.073 46.1214 123.007 46.1416 122.925 46.2224ZM129.53 38.8717C129.53 38.5789 129.58 38.488 129.637 38.3568C129.539 38.4274 129.547 38.3467 129.374 38.902C129.424 38.902 129.53 38.902 129.53 38.8717ZM127.863 61.9334C127.813 61.8729 127.756 61.8325 127.707 61.7719C127.707 61.8729 127.707 61.8729 127.682 61.9637C127.698 61.9334 127.805 61.9334 127.863 61.9334ZM127.312 60.8733C127.288 60.843 127.288 60.8127 127.312 60.8127C127.271 60.8228 127.288 60.7824 127.288 60.8733C127.288 60.8733 127.288 60.8733 127.312 60.8733ZM124.412 34.5098C124.462 34.4795 124.568 34.4795 124.618 34.4492C124.511 34.4492 124.412 34.4492 124.305 34.4492C124.338 34.4391 124.363 34.4694 124.412 34.5098ZM123.32 48.05C122.95 48.05 122.613 48.2115 122.252 48.2115C122.169 48.0399 123.476 48.7567 123.32 48.05ZM122.482 61.5195C122.432 61.469 122.26 61.7113 122.063 61.3579C122.013 61.4589 121.907 61.4892 121.8 61.5195C121.923 61.57 121.948 61.4892 122.482 61.5195ZM119.196 16.123C119.138 16.1533 119.138 16.1936 119.113 16.1936C119.196 16.1936 119.22 16.2542 119.294 16.2542C119.294 16.1533 119.196 16.1835 119.196 16.123ZM119.606 38.5486C119.401 38.4173 119.245 38.4173 118.982 38.2558C119.007 38.3568 118.924 38.3567 118.924 38.4476C119.089 38.3567 119.401 38.5183 119.606 38.5486ZM118.407 11.7307C118.349 11.761 118.3 11.761 118.251 11.761C118.358 11.8216 118.563 11.8923 118.62 11.9832C118.596 11.8519 118.686 11.7711 118.407 11.7307ZM117.988 55.3602C117.988 55.3602 118.037 55.3602 118.095 55.3602C118.037 55.33 118.013 55.2997 117.988 55.2593C117.988 55.2997 118.021 55.33 117.988 55.3602ZM118.045 27.3812C118.103 27.3206 118.177 27.3509 118.251 27.2802C118.095 27.2802 118.045 27.2802 117.939 27.2802C117.988 27.3206 118.021 27.3206 118.045 27.3812ZM117.101 66.881C117.076 66.8507 116.994 66.8507 116.994 66.8103H116.945C116.977 66.8305 116.961 66.881 117.101 66.881ZM103.611 16.1533C103.586 16.1533 103.554 16.1835 103.529 16.2138C103.636 16.2138 103.685 16.2441 103.734 16.2441C103.685 16.1835 103.66 16.1835 103.611 16.1533ZM104.622 24.1804V24.2107L104.671 24.1804C104.654 24.1804 104.622 24.1804 104.622 24.1804ZM113.083 52.2806C113.133 52.2806 113.133 52.2806 113.133 52.2503C113.108 52.2806 113.083 52.2806 113.026 52.2806C113.034 52.2806 113.083 52.3109 113.083 52.2806ZM107.809 18.1727C107.76 18.1727 107.76 18.1424 107.76 18.1424C107.76 18.1727 107.735 18.1727 107.735 18.1727C107.76 18.1727 107.76 18.1727 107.809 18.1727ZM107.185 29.5622C107.234 29.4309 107.292 29.4006 107.341 29.2694C107.234 29.2694 107.078 29.2997 107.029 29.2694C107.078 29.4006 107.135 29.441 107.185 29.5622ZM106.117 48.8173C106.141 48.787 106.199 48.787 106.224 48.7466C106.141 48.7769 106.092 48.7769 106.043 48.7769C106.035 48.787 106.084 48.787 106.117 48.8173ZM105.197 8.48956C105.254 8.48956 105.303 8.42898 105.353 8.42898C105.303 8.39869 105.246 8.42898 105.197 8.39869C105.197 8.41888 105.197 8.44918 105.197 8.48956ZM105.147 29.8853C104.589 29.4612 105.156 29.8045 103.447 29.3703C103.997 29.441 104.523 29.5925 105.147 29.8853ZM102.592 24.3723C102.469 24.342 102.51 24.2309 102.017 24.1804C101.911 24.3117 101.812 24.241 101.705 24.3117C101.993 24.3016 102.28 24.3016 102.592 24.3723ZM97.2689 38.5486C97.2443 38.5183 97.2443 38.5183 97.2114 38.5183C97.2114 38.5789 97.2114 38.5486 97.1868 38.6193C97.2114 38.5789 97.2114 38.5486 97.2689 38.5486ZM92.1508 57.4806C92.2412 57.42 92.1919 57.4907 92.2001 57.1676C92.1755 57.1676 92.1508 57.1676 92.1508 57.1676C92.2001 57.2585 92.2576 57.3494 92.1508 57.4806ZM91.8879 25.5839C92.0933 25.4224 92.3069 25.3315 92.5123 25.5839C92.3069 25.483 92.1262 25.2608 91.8879 25.5234C91.8879 25.5234 91.8879 25.5536 91.8879 25.5839ZM91.0253 17.789C91.0007 17.7587 91.0007 17.7284 91.0007 17.688C91.0007 17.7183 91.0007 17.7486 90.9432 17.789C91.0007 17.789 91.0007 17.789 91.0253 17.789ZM90.0559 45.0006C90.1134 44.9703 90.212 44.9703 90.3188 44.9703C90.2695 44.94 90.1874 44.94 90.1381 44.94C90.2202 44.8694 90.2942 44.9098 90.3681 44.8492C90.1299 44.9602 90.3434 44.8795 89.8998 44.8795C89.9573 44.8997 90.0066 44.9703 90.0559 45.0006ZM86.8766 59.2375C86.8191 59.2678 86.7452 59.2678 86.6959 59.2678C86.778 59.1366 86.6137 59.2072 86.6384 59.2981C86.7205 59.3082 86.7698 59.2779 86.8766 59.2375ZM83.4837 10.2868H83.5083C83.4426 10.307 82.8429 9.93345 83.4837 10.2868ZM82.4896 9.34782C82.4896 9.31753 82.5143 9.34782 82.5143 9.31753C82.4896 9.31753 82.4896 9.31753 82.4896 9.28724C82.4896 9.31753 82.4896 9.31753 82.4896 9.34782ZM82.046 62.5191C82.1282 62.5191 82.2267 62.5191 82.3089 62.5191C82.2514 62.4181 82.1282 62.4181 82.0214 62.3878C82.0214 62.4181 82.0707 62.4484 82.046 62.5191ZM82.0214 55.5218C82.0214 55.4915 82.0214 55.4511 82.0214 55.4208C81.9967 55.4208 81.9721 55.4208 81.9392 55.3905C81.9639 55.4612 81.9967 55.4612 82.0214 55.5218ZM81.3888 52.5028C81.4463 52.4725 81.4463 52.4321 81.4956 52.4321C81.4463 52.4321 81.4463 52.4321 81.3888 52.4018C81.3888 52.4422 81.3888 52.4725 81.3888 52.5028ZM75.4656 13.4876C75.4409 13.5482 75.4656 13.6189 75.4409 13.6795C75.4409 13.6795 75.4902 13.6795 75.5231 13.6795C75.4902 13.6189 75.4902 13.5583 75.4656 13.4876ZM80.0333 29.5925C79.8279 29.4309 80.1483 29.4915 79.984 28.8251C79.9265 28.8857 79.9593 28.9564 79.9018 29.0169C80.1072 29.0876 80.0168 28.9463 80.0333 29.5925ZM75.7038 7.48995C75.7613 7.48995 75.7613 7.48995 75.786 7.48995C75.7613 7.45966 75.7038 7.45966 75.6792 7.45966C75.7038 7.45966 75.7038 7.48995 75.7038 7.48995ZM75.3916 23.2111C75.4492 23.1808 75.5231 23.1808 75.5724 23.1404C75.4656 23.1101 75.3341 23.1101 75.2355 23.1101C75.2849 23.1505 75.3341 23.1505 75.3916 23.2111ZM72.3602 6.53073C72.3849 6.53073 72.4177 6.53073 72.4177 6.50044C72.3602 6.53073 72.3109 6.53073 72.2616 6.56102C72.3109 6.56102 72.3356 6.53073 72.3602 6.53073ZM71.9166 10.5393C71.8919 10.509 71.8919 10.509 71.8919 10.509C71.8673 10.509 71.8426 10.509 71.8426 10.509C71.8919 10.509 71.8919 10.5393 71.9166 10.5393ZM69.7478 21.8278C69.6902 21.7672 69.6409 21.7672 69.6409 21.6966C69.5835 21.7571 69.5588 21.7874 69.5341 21.848C69.5917 21.8581 69.6738 21.8278 69.7478 21.8278ZM62.0993 7.87364C62.0747 7.90393 62.0747 7.90393 62.0747 7.90393C62.0747 7.90393 62.0747 7.90393 62.0993 7.90393C62.0993 7.90393 62.0993 7.90393 62.0993 7.87364ZM65.8373 19.9397C65.7798 19.869 65.8619 19.869 65.8373 19.8084C65.7798 19.8387 65.7798 19.9094 65.7305 19.9397C65.7798 19.9397 65.7798 19.9094 65.8373 19.9397ZM62.4937 36.3373C62.4937 36.3373 62.4937 36.3373 62.4937 36.307L62.4361 36.3373H62.4937ZM62.6497 24.2713C62.7072 24.2309 62.4115 24.2107 62.5676 24.1401C62.2554 24.1804 62.5512 24.1602 61.8118 24.1401C62.124 24.1804 62.4115 24.0795 62.6497 24.2713ZM59.3308 56.5113C59.3554 56.481 59.3307 56.4204 59.3554 56.3801C59.3061 56.4406 59.2815 56.4406 59.2486 56.5113C59.2815 56.5113 59.3061 56.5113 59.3308 56.5113ZM56.6444 37.1754C56.6444 37.1754 56.6197 37.1754 56.6197 37.1451C56.6197 37.1754 56.5951 37.1754 56.5951 37.1754C56.5951 37.1754 56.6197 37.1754 56.6444 37.1754ZM54.9767 60.1463C54.9767 60.116 54.9767 60.116 54.9767 60.116C54.8534 60.0453 54.377 60.0554 54.9767 60.1463ZM54.6891 59.8534C54.7138 59.8232 54.7138 59.8232 54.7384 59.7828C54.7138 59.7828 54.7138 59.7828 54.6891 59.7828C54.6891 59.8232 54.6891 59.8232 54.6891 59.8534ZM54.4509 13.1746C54.4509 13.1746 54.5577 13.0837 54.6563 13.0434C53.9251 13.2049 53.194 13.0434 52.4628 13.0131C53.1447 12.9424 53.8019 12.8515 54.4509 13.1746ZM52.3149 22.7265C52.2903 22.7265 52.2656 22.6962 52.2656 22.6962C52.2656 22.7265 52.2656 22.7265 52.241 22.7265C52.2574 22.7265 52.2574 22.7265 52.3149 22.7265ZM50.5651 22.9284H50.5897C50.5569 22.9183 50.5486 22.9183 50.5322 22.8981C50.5486 22.9183 50.5076 22.9183 50.5651 22.9284ZM46.4081 11.1855C45.373 11.3975 46.3917 11.1855 45.3894 11.4076C45.7345 11.3773 46.096 11.2764 46.4081 11.1855ZM43.3028 11.761C43.2288 11.66 43.0645 11.6298 43.0152 11.5389C43.0152 11.5692 42.9906 11.5389 42.9577 11.5692C43.1467 11.5692 43.2042 11.6903 43.3028 11.761ZM41.1175 21.1614C41.0928 20.9393 41.1914 20.8989 41.2489 20.7474C41.1175 20.808 41.0353 20.8989 40.9368 20.8989C40.9861 21.0301 41.06 21.0301 41.1175 21.1614ZM38.8911 54.7847C38.8911 54.5929 38.9979 54.401 39.2033 54.2698C39.0965 54.4616 38.998 54.6232 38.8336 54.7847C38.8419 54.7847 38.8665 54.7847 38.8911 54.7847ZM34.7671 41.1738C34.5042 40.7195 34.6521 41.0628 33.198 40.881C33.9373 40.9921 34.4056 41.0527 34.7671 41.1738ZM31.6371 40.7296C31.5795 40.6993 31.5303 40.568 31.481 40.5074C31.4563 40.6084 31.5056 40.6387 31.4563 40.7296C31.5303 40.7296 31.5631 40.7296 31.6371 40.7296ZM30.0186 39.8612C30.0761 39.7905 30.0762 39.8309 30.1254 39.7905C30.0762 39.7905 30.0186 39.7905 29.9693 39.7905C29.994 39.8309 30.0186 39.8309 30.0186 39.8612ZM28.2934 52.6946C28.2934 52.6946 28.3181 52.6946 28.3427 52.6946C28.2688 52.6441 28.3756 52.5936 28.1373 52.4018C28.2195 52.5028 28.3509 52.6037 28.2934 52.6946ZM28.2688 13.9117C28.162 13.6492 28.088 13.3665 27.8827 13.1443C27.7759 13.5583 27.6198 13.6593 27.4391 13.7501C27.7184 13.7804 27.9812 13.8107 28.2688 13.9117ZM25.5824 52.3109C25.5824 52.2806 25.6399 52.3109 25.6399 52.2806C25.6399 52.2806 25.5824 52.2806 25.5577 52.2806C25.5577 52.2806 25.5824 52.2806 25.5824 52.3109ZM24.0954 58.763C24.1776 58.763 24.1119 58.7731 24.2022 58.6923C24.1776 58.6923 24.1776 58.6923 24.1776 58.6923C23.8572 58.8134 24.1201 58.7125 23.3971 58.7933C23.5779 58.763 23.4218 58.9043 24.0954 58.763ZM21.5076 46.4142H21.4501C21.4501 46.4445 21.4255 46.4748 21.4008 46.5051C21.4583 46.4748 21.4583 46.4445 21.5076 46.4142ZM21.2201 20.9696C21.1708 20.8989 21.1379 20.9393 21.0886 20.8989C21.0311 20.9595 21.0311 20.8383 20.8586 21.0604C20.9983 20.9393 20.8586 21.0201 21.2201 20.9696ZM19.1334 24.1098C19.0841 24.14 19.0266 24.2006 18.9527 24.241C19.1087 24.241 19.2155 24.1401 19.3388 24.1401C19.2648 24.1098 19.2073 24.14 19.1334 24.1098ZM19.0594 36.5595C19.0594 36.5595 19.0841 36.5595 19.1088 36.5595C18.9034 36.5595 18.6898 36.5292 18.3529 36.4585C18.5829 36.4989 18.7966 36.5595 19.0594 36.5595ZM17.8025 28.4414C17.7532 28.3808 17.8025 28.3505 17.8025 28.29C17.7039 28.29 17.7614 28.2496 17.8025 28.4414ZM16.4963 41.2445C16.3813 40.9113 16.8085 40.8204 15.9705 40.8305C16.1266 40.9921 16.2909 41.083 16.4963 41.2445ZM15.4529 43.0115C15.4776 42.9812 15.5104 42.9408 15.5598 42.9408C15.5104 42.9105 15.4529 42.85 15.4037 42.8096C15.4037 42.9105 15.4776 42.8802 15.4529 43.0115ZM7.77988 43.6173C7.86203 43.6173 7.88666 43.6173 7.9606 43.6173C7.91132 43.587 7.82916 43.6173 7.77988 43.587V43.6173Z" fill="#6111B0"/>
<path fill-rule="evenodd" clip-rule="evenodd" d="M17.2275 60.328C16.9892 60.2977 16.7592 60.2674 16.5456 60.1362C16.8578 60.1059 17.1207 60.1059 17.4329 60.1059C17.3343 60.1766 17.2768 60.2371 17.2275 60.328Z" fill="#6111B0"/>
<path fill-rule="evenodd" clip-rule="evenodd" d="M165.374 66.9113C171.264 66.7801 180.777 67.7494 163.575 67.3051C161.48 67.3051 158.465 66.6488 165.374 66.9113Z" fill="#6111B0"/>
<path fill-rule="evenodd" clip-rule="evenodd" d="M157.512 1.8457C156.361 0.785503 160.272 0.987445 157.512 1.8457V1.8457Z" fill="#6111B0"/>
<path fill-rule="evenodd" clip-rule="evenodd" d="M244.651 34.0857C245.382 34.2775 246.113 34.4391 246.631 34.9843C246.113 34.4391 244.807 35.2469 244.651 34.0857Z" fill="#6111B0"/>
<path fill-rule="evenodd" clip-rule="evenodd" d="M85.6197 3.22899C85.8087 3.90549 85.9894 3.69345 84.3628 4.02666C84.7325 3.57229 84.9461 3.09773 85.6197 3.22899Z" fill="#6111B0"/>
<path fill-rule="evenodd" clip-rule="evenodd" d="M133.235 3.61269C132.619 2.77463 139.849 3.37036 135.634 3.74395C134.558 3.81463 135.478 3.82473 133.235 3.61269Z" fill="#6111B0"/>
<path fill-rule="evenodd" clip-rule="evenodd" d="M134.254 67.5878C135.067 67.2344 134.731 67.4162 137.91 67.1436C137.368 68.0927 137.844 67.608 134.254 67.5878Z" fill="#6111B0"/>
<path fill-rule="evenodd" clip-rule="evenodd" d="M237.134 68.5471C236.197 68.8702 236.197 68.6884 231.811 68.7389C232.862 68.3148 232.55 68.4259 237.134 68.5471Z" fill="#6111B0"/>
<path fill-rule="evenodd" clip-rule="evenodd" d="M258.042 32.2884C256.892 32.4702 257.303 32.5408 252.957 31.521C254.033 31.2585 253.893 31.3898 258.042 32.2884Z" fill="#6111B0"/>
<path fill-rule="evenodd" clip-rule="evenodd" d="M246.269 69.062C245.768 69.2236 245.275 69.3851 244.651 69.6678C244.939 68.6076 245.801 69.2236 246.269 69.062Z" fill="#6111B0"/>
<path fill-rule="evenodd" clip-rule="evenodd" d="M96.9239 5.08688C96.9979 5.0263 95.8806 5.06669 96.6364 4.57193C96.5296 4.51135 97.9755 4.74358 96.9239 5.08688Z" fill="#6111B0"/>
<path fill-rule="evenodd" clip-rule="evenodd" d="M230.291 66.6286C230.701 67.0527 228.426 66.8507 230.291 66.6286V66.6286Z" fill="#6111B0"/>
<path fill-rule="evenodd" clip-rule="evenodd" d="M121.833 2.58276C122.334 2.86548 122.63 2.69383 121.759 3.74393C121.52 3.22898 121.545 2.87558 121.833 2.58276Z" fill="#6111B0"/>
<path fill-rule="evenodd" clip-rule="evenodd" d="M220.326 68.6783C220.054 68.6884 217.73 68.4057 220.326 68.6783V68.6783Z" fill="#6111B0"/>
<path fill-rule="evenodd" clip-rule="evenodd" d="M253.688 37.3572C254.017 38.0841 250.344 36.8725 253.688 37.3572V37.3572Z" fill="#6111B0"/>
<path fill-rule="evenodd" clip-rule="evenodd" d="M213.951 68.1634C214.501 68.1634 215.101 68.0624 215.676 68.4158C214.485 68.6581 214.049 68.6581 210.508 68.3249C211.272 68.0927 211.083 68.6783 213.951 68.1634Z" fill="#6111B0"/>
<path fill-rule="evenodd" clip-rule="evenodd" d="M256.038 38.5486C256.226 38.6092 256.259 38.1043 256.769 38.6395C256.53 38.7102 256.506 39.0434 256.038 38.5486Z" fill="#6111B0"/>
<path fill-rule="evenodd" clip-rule="evenodd" d="M188.163 0.209967C188.22 0.30084 188.319 -0.304985 188.787 0.209967C188.779 -0.00207229 188.401 1.10861 188.163 0.209967Z" fill="#6111B0"/>
</svg>
