<svg width="351" height="295" viewBox="0 0 351 295" fill="none" xmlns="http://www.w3.org/2000/svg">
<g filter="url(#filter0_d_109_73)">
<path d="M335 177C344.944 223.959 299 286 215 277C132 262 54.0001 232.364 54.0001 162.5C54.0001 75 120.262 24 202 24C283.738 24 317 92 335 177Z" fill="#6111B0"/>
</g>
<path d="M315.871 153.854C329.529 198.144 290.761 263.016 207.409 261.695C165.496 257.978 124.726 250.525 93.6973 235.45C62.7222 220.402 41.685 197.896 38.6131 164.022C34.7108 120.991 47.9088 85.5859 72.0293 60.0147C96.1757 34.4158 131.39 18.5483 171.688 14.8938C211.722 11.2632 241.287 25.3202 264.087 50.5216C286.982 75.8271 303.095 112.423 315.871 153.854Z" stroke="#22D3B9" stroke-width="4"/>
<path d="M43.8127 98.3491C51.9591 100.226 54.6972 110.445 48.5807 116.144L27.0375 136.216C21.2824 141.578 11.8889 138.882 9.85303 131.284L2.70317 104.601C0.667302 97.0028 7.45444 89.9715 15.1196 91.7377L43.8127 98.3491Z" fill="#9732CC"/>
<path d="M339.317 178.505C345.693 180.011 347.795 188.03 342.977 192.47L326.009 208.107C321.477 212.285 314.127 210.132 312.564 204.169L307.075 183.229C305.513 177.266 310.861 171.785 316.86 173.202L339.317 178.505Z" fill="#00E3B2"/>
<path d="M39.7205 201.491C33.0299 201.041 29.5611 193.297 33.6799 188.005L48.1872 169.368C52.0627 164.389 59.845 165.328 62.4242 171.086L71.4822 191.309C74.0614 197.067 69.5809 203.5 63.2857 203.076L39.7205 201.491Z" fill="#FFC801"/>
<path d="M266.61 287.107C262.677 285.533 262.102 280.204 265.608 277.827L277.956 269.455C281.255 267.218 285.748 269.299 286.175 273.261L287.678 287.177C288.106 291.139 284.16 294.131 280.46 292.65L266.61 287.107Z" fill="#9732CC"/>
<defs>
<filter id="filter0_d_109_73" x="54.0001" y="24" width="282.34" height="263.878" filterUnits="userSpaceOnUse" color-interpolation-filters="sRGB">
<feFlood flood-opacity="0" result="BackgroundImageFix"/>
<feColorMatrix in="SourceAlpha" type="matrix" values="0 0 0 0 0 0 0 0 0 0 0 0 0 0 0 0 0 0 127 0" result="hardAlpha"/>
<feOffset dy="10"/>
<feComposite in2="hardAlpha" operator="out"/>
<feColorMatrix type="matrix" values="0 0 0 0 0 0 0 0 0 0 0 0 0 0 0 0 0 0 0.1 0"/>
<feBlend mode="normal" in2="BackgroundImageFix" result="effect1_dropShadow_109_73"/>
<feBlend mode="normal" in="SourceGraphic" in2="effect1_dropShadow_109_73" result="shape"/>
</filter>
</defs>
</svg>
