<svg width="70" height="70" viewBox="0 0 70 70" fill="none" xmlns="http://www.w3.org/2000/svg">
<path d="M63.2 6H56.7V4.1C56.7 1.8 54.9 0 52.6 0C50.3 0 48.5 1.8 48.5 4.1V6H25.5V4.1C25.5 1.8 23.7 0 21.4 0C19.1 0 17.3 1.8 17.3 4.1V6.1C17.2 6 17 6 16.9 6H11.5C7.7 6 4.7 9.1 4.7 12.8V36.1C4.7 36.9 5.3 37.5 6.1 37.5C6.9 37.5 7.5 36.9 7.5 36.1V20.1H56.8C57.6 20.1 58.2 19.5 58.2 18.7C58.2 17.9 57.6 17.3 56.8 17.3H7.4V12.8C7.4 10.5 9.2 8.7 11.5 8.7H16.9C17 8.7 17.1 8.7 17.3 8.6V10.4C17.3 12.7 19.1 14.5 21.4 14.5C23.7 14.5 25.5 12.7 25.5 10.4V8.8H48.5V10.5C48.5 12.8 50.3 14.6 52.6 14.6C54.9 14.6 56.7 12.8 56.7 10.5V8.8H63.2C65.5 8.8 67.3 10.6 67.3 12.9V64.9C67.3 66.3 66.2 67.4 64.8 67.4C63.4 67.4 62.3 66.3 62.3 64.9V61.4C62.3 60.6 61.7 60 60.9 60H45.1C44.3 60 43.7 60.6 43.7 61.4C43.7 62.2 44.3 62.8 45.1 62.8H59.6V65C59.6 65.9 59.8 66.7 60.2 67.5H5.2C3.8 67.5 2.7 66.4 2.7 65V62.8H33.3C34.1 62.8 34.7 62.2 34.7 61.4C34.7 60.6 34.1 60 33.3 60H19.7C22.1 57.9 23.6 54.9 23.6 51.5C23.6 45.3 18.6 40.3 12.4 40.3C6.2 40.3 1.2 45.3 1.2 51.5C1.2 54.9 2.7 57.9 5.1 60H1.4C0.6 60 0 60.6 0 61.4V64.9C0 67.7 2.3 70 5.2 70H64.8C67.7 70 70 67.7 70 64.8V12.8C70 9.1 66.9 6 63.2 6ZM22.7 10.5C22.7 11.3 22.1 11.9 21.3 11.9C20.5 11.9 19.9 11.3 19.9 10.5V4.1C19.9 3.3 20.5 2.7 21.3 2.7C22.1 2.7 22.7 3.3 22.7 4.1V10.5ZM53.9 10.5C53.9 11.3 53.3 11.9 52.5 11.9C51.7 11.9 51.1 11.3 51.1 10.5V4.1C51.1 3.3 51.7 2.7 52.5 2.7C53.3 2.7 53.9 3.3 53.9 4.1V10.5ZM3.9 51.4C3.9 46.7 7.7 42.9 12.4 42.9C17.1 42.9 20.9 46.7 20.9 51.4C20.9 56.1 17.1 59.9 12.4 59.9C7.7 59.9 3.9 56.1 3.9 51.4Z" fill="#6111B0"/>
<path d="M64 17.7999C63.7 17.4999 63.4 17.3999 63 17.3999C62.6 17.3999 62.3 17.4999 62 17.7999C61.7 18.0999 61.6 18.3999 61.6 18.7999C61.6 19.1999 61.7 19.4999 62 19.7999C62.3 20.0999 62.6 20.1999 63 20.1999C63.4 20.1999 63.7 20.0999 64 19.7999C64.3 19.4999 64.4 19.1999 64.4 18.7999C64.4 18.3999 64.3 17.9999 64 17.7999Z" fill="#6111B0"/>
<path d="M40.8 60.2999C40.5 59.9999 40.2 59.8999 39.8 59.8999C39.4 59.8999 39.1 59.9999 38.8 60.2999C38.5 60.5999 38.4 60.8999 38.4 61.2999C38.4 61.6999 38.5 61.9999 38.8 62.2999C39.1 62.5999 39.4 62.6999 39.8 62.6999C40.2 62.6999 40.5 62.5999 40.8 62.2999C41.1 61.9999 41.2 61.6999 41.2 61.2999C41.2 60.8999 41.1 60.5999 40.8 60.2999Z" fill="#6111B0"/>
<path d="M30.9 41.6001C28 41.6001 25.7 43.9001 25.7 46.8001C25.7 49.7001 28 52.0001 30.9 52.0001C33.8 52.0001 36.1 49.7001 36.1 46.8001C36.1 43.9001 33.8 41.6001 30.9 41.6001ZM30.9 49.2001C29.5 49.2001 28.4 48.1001 28.4 46.7001C28.4 45.3001 29.5 44.2001 30.9 44.2001C32.3 44.2001 33.4 45.3001 33.4 46.7001C33.4 48.1001 32.3 49.2001 30.9 49.2001Z" fill="#6111B0"/>
<path d="M43.7 41.6001C40.8 41.6001 38.5 43.9001 38.5 46.8001C38.5 49.7001 40.8 52.0001 43.7 52.0001C46.6 52.0001 48.9 49.7001 48.9 46.8001C48.9 43.9001 46.6 41.6001 43.7 41.6001ZM43.7 49.2001C42.3 49.2001 41.2 48.1001 41.2 46.7001C41.2 45.3001 42.3 44.2001 43.7 44.2001C45.1 44.2001 46.2 45.3001 46.2 46.7001C46.2 48.1001 45 49.2001 43.7 49.2001Z" fill="#6111B0"/>
<path d="M56.5 41.6001C53.6 41.6001 51.3 43.9001 51.3 46.8001C51.3 49.7001 53.6 52.0001 56.5 52.0001C59.4 52.0001 61.7 49.7001 61.7 46.8001C61.7 43.9001 59.3 41.6001 56.5 41.6001ZM56.5 49.2001C55.1 49.2001 54 48.1001 54 46.7001C54 45.3001 55.1 44.2001 56.5 44.2001C57.9 44.2001 59 45.3001 59 46.7001C59 48.1001 57.8 49.2001 56.5 49.2001Z" fill="#6111B0"/>
<path d="M18.2 27.2998C15.3 27.2998 13 29.5998 13 32.4998C13 35.3998 15.3 37.6998 18.2 37.6998C21.1 37.6998 23.4 35.3998 23.4 32.4998C23.4 29.6998 21 27.2998 18.2 27.2998ZM18.2 34.9998C16.8 34.9998 15.7 33.8998 15.7 32.4998C15.7 31.0998 16.8 29.9998 18.2 29.9998C19.6 29.9998 20.7 31.0998 20.7 32.4998C20.6 33.8998 19.5 34.9998 18.2 34.9998Z" fill="#6111B0"/>
<path d="M43.7 27.2998C40.8 27.2998 38.5 29.5998 38.5 32.4998C38.5 35.3998 40.8 37.6998 43.7 37.6998C46.6 37.6998 48.9 35.3998 48.9 32.4998C48.9 29.6998 46.6 27.2998 43.7 27.2998ZM43.7 34.9998C42.3 34.9998 41.2 33.8998 41.2 32.4998C41.2 31.0998 42.3 29.9998 43.7 29.9998C45.1 29.9998 46.2 31.0998 46.2 32.4998C46.2 33.8998 45 34.9998 43.7 34.9998Z" fill="#6111B0"/>
<path d="M56.5 27.2998C53.6 27.2998 51.3 29.5998 51.3 32.4998C51.3 35.3998 53.6 37.6998 56.5 37.6998C59.4 37.6998 61.7 35.3998 61.7 32.4998C61.6 29.6998 59.3 27.2998 56.5 27.2998ZM56.5 34.9998C55.1 34.9998 54 33.8998 54 32.4998C54 31.0998 55.1 29.9998 56.5 29.9998C57.9 29.9998 59 31.0998 59 32.4998C58.9 33.8998 57.8 34.9998 56.5 34.9998Z" fill="#6111B0"/>
<path d="M30.9 27.2998C28 27.2998 25.7 29.5998 25.7 32.4998C25.7 35.3998 28 37.6998 30.9 37.6998C33.8 37.6998 36.1 35.3998 36.1 32.4998C36.1 29.6998 33.8 27.2998 30.9 27.2998ZM30.9 34.9998C29.5 34.9998 28.4 33.8998 28.4 32.4998C28.4 31.0998 29.5 29.9998 30.9 29.9998C32.3 29.9998 33.4 31.0998 33.4 32.4998C33.4 33.8998 32.3 34.9998 30.9 34.9998Z" fill="#6111B0"/>
<path d="M17.2 48.1001C16.7 47.6001 15.8 47.6001 15.3 48.1001L10.8 52.6001L9.29999 51.0001C8.79999 50.5001 7.89999 50.5001 7.39999 51.0001C6.89999 51.5001 6.89999 52.4001 7.39999 52.9001L9.89999 55.4001C10.2 55.7001 10.5 55.8001 10.9 55.8001C11.3 55.8001 11.6 55.7001 11.9 55.4001L17.3 50.0001C17.8 49.5001 17.8 48.6001 17.2 48.1001Z" fill="#DB2A2A"/>
</svg>
