<svg width="62" height="70" viewBox="0 0 62 70" fill="none" xmlns="http://www.w3.org/2000/svg">
<path d="M60.2 43.2999C61.2 42.1999 61.8 40.7999 61.8 39.1999C61.8 35.7999 59 32.9999 55.6 32.9999H43.7C44.9 29.3999 45.4 24.5999 45.4 22.5999V20.5999C45.4 16.0999 41.7 12.3999 37.2 12.3999H35.1C34.2 12.3999 33.3 12.9999 33.1 13.9999L32 18.4999C30.4 24.7999 25.5 31.6999 20.3 32.8999C19.4 30.5999 17.2 28.9999 14.6 28.9999H2.3C1.2 28.9999 0.199997 29.8999 0.199997 31.0999V67.9999C0.199997 69.0999 1.1 70.0999 2.3 70.0999H14.6C17 70.0999 19.2 68.6999 20.2 66.5999L27.2 68.8999C29.5 69.6999 31.9 70.0999 34.3 70.0999H51.5C54.9 70.0999 57.7 67.2999 57.7 63.8999C57.7 63.0999 57.5 62.2999 57.3 61.5999C59.9 60.8999 61.8 58.4999 61.8 55.6999C61.8 54.0999 61.2 52.6999 60.2 51.5999C61.2 50.4999 61.8 49.0999 61.8 47.4999C61.8 45.8999 61.2 44.3999 60.2 43.2999ZM16.6 63.7999C16.6 64.8999 15.7 65.8999 14.5 65.8999H4.3V33.0999H14.6C15.7 33.0999 16.7 33.9999 16.7 35.1999V63.7999H16.6ZM51.5 45.3999H55.6C56.7 45.3999 57.7 46.2999 57.7 47.4999C57.7 48.5999 56.8 49.5999 55.6 49.5999H51.5C50.4 49.5999 49.4 50.4999 49.4 51.6999C49.4 52.7999 50.3 53.7999 51.5 53.7999H55.6C56.7 53.7999 57.7 54.6999 57.7 55.8999C57.7 56.9999 56.8 57.9999 55.6 57.9999H51.5C50.4 57.9999 49.4 58.8999 49.4 60.0999C49.4 61.2999 50.3 62.1999 51.5 62.1999C52.6 62.1999 53.6 63.0999 53.6 64.2999C53.6 65.3999 52.7 66.3999 51.5 66.3999H34.3C32.3 66.3999 30.3 66.0999 28.5 65.4999L20.8 62.8999V36.9999C24 36.3999 27.2 34.3999 30 30.9999C32.8 27.6999 35 23.3999 36 19.3999L36.7 16.4999H37.1C39.4 16.4999 41.2 18.2999 41.2 20.5999V22.5999C41.2 25.3999 40.3 30.5999 39.2 32.9999H35C33.9 32.9999 32.9 33.8999 32.9 35.0999C32.9 36.2999 33.8 37.1999 35 37.1999H55.5C56.6 37.1999 57.6 38.0999 57.6 39.2999C57.6 40.3999 56.7 41.3999 55.5 41.3999H51.4C50.3 41.3999 49.3 42.2999 49.3 43.4999C49.5 44.4999 50.4 45.3999 51.5 45.3999Z" fill="#6111B0"/>
<path d="M10.5 61.8001C11.6 61.8001 12.6 60.9001 12.6 59.7001C12.6 58.6001 11.7 57.6001 10.5 57.6001C9.29999 57.6001 8.39999 58.5001 8.39999 59.7001C8.39999 60.9001 9.39999 61.8001 10.5 61.8001Z" fill="#6111B0"/>
<path d="M39.2 0C38.1 0 37.1 0.9 37.1 2.1V6.3C37.1 7.4 38 8.4 39.2 8.4C40.3 8.4 41.3 7.5 41.3 6.3V2.1C41.3 0.9 40.3 0 39.2 0Z" fill="#DB2A2A"/>
<path d="M30.5 9L27.6 6.1C26.8 5.3 25.5 5.3 24.7 6.1C23.9 6.9 23.9 8.2 24.7 9L27.6 11.9C28.4 12.7 29.7 12.7 30.5 11.9C31.3 11.1 31.3 9.8 30.5 9Z" fill="#DB2A2A"/>
<path d="M53.7 6.1C52.9 5.3 51.6 5.3 50.8 6.1L47.9 9C47.1 9.8 47.1 11.1 47.9 11.9C48.7 12.7 50 12.7 50.8 11.9L53.7 9C54.5 8.2 54.5 6.9 53.7 6.1Z" fill="#DB2A2A"/>
</svg>
