<svg width="323" height="91" viewBox="0 0 323 91" fill="none" xmlns="http://www.w3.org/2000/svg">
<path fill-rule="evenodd" clip-rule="evenodd" d="M38.6895 82.2027C38.6825 82.1773 38.6549 82.1646 38.6342 82.1392C38.6134 82.1392 38.5996 82.1392 38.5789 82.1265C38.6134 82.1519 38.6618 82.1646 38.6895 82.2027Z" fill="#DB2A2A"/>
<path fill-rule="evenodd" clip-rule="evenodd" d="M14.5073 79.458C14.6378 79.458 14.7752 79.458 14.9264 79.458C14.8302 79.4455 14.7409 79.4455 14.6447 79.4331C14.5966 79.4455 14.5485 79.458 14.5073 79.458Z" fill="#DB2A2A"/>
<path fill-rule="evenodd" clip-rule="evenodd" d="M14.5072 79.4586C12.7142 79.4713 13.408 79.4586 12.6249 79.573C14.4797 79.4078 14.1225 79.5476 14.5072 79.4586Z" fill="#DB2A2A"/>
<path fill-rule="evenodd" clip-rule="evenodd" d="M17.1246 45.385C16.9391 45.4358 16.7467 45.4993 16.5406 45.6264C16.7467 45.5502 16.9322 45.4612 17.1246 45.385Z" fill="#DB2A2A"/>
<path fill-rule="evenodd" clip-rule="evenodd" d="M314.495 79.4205C314.633 79.4586 314.763 79.4586 314.839 79.5348C314.852 79.4967 314.866 79.4586 314.88 79.4205C314.715 79.5348 314.633 79.3824 314.495 79.4205Z" fill="#DB2A2A"/>
<path fill-rule="evenodd" clip-rule="evenodd" d="M323 72.9538C322.643 72.7633 319.208 68.8757 310.119 65.2167C322.581 60.9988 305.537 54.4687 310.772 51.0893C313.52 48.65 321.688 52.1945 316.233 41.5354C317.958 42.8059 325.384 38.2957 316.996 33.9127C310.195 29.2374 324.779 30.2919 307.454 14.5128C308.821 14.7542 307.893 15.1099 309.982 12.8866C308.237 11.9465 309.659 8.78303 305.736 12.4165C306.217 12.696 306.884 12.2514 307.268 12.8866C303.662 15.5037 302.755 8.1478 298.846 10.0662C298.53 8.75762 298.853 9.98996 296.916 9.5453C296.916 9.5453 296.916 9.5453 296.902 9.5453C295.727 8.1351 296.977 10.2695 281.424 5.69582C281.63 5.3782 282.07 5.77205 282.262 5.26386C276.712 5.11141 215.598 5.94991 191.17 2.92622C179.498 -1.16465 151.05 3.34547 130.427 1.1857C116.564 3.04056 51.6176 -6.28459 20.848 8.71951C23.17 9.82481 22.483 7.56339 34.8348 6.49621C33.4678 7.65232 30.1703 6.07696 15.3385 14.7034C17.3994 14.6525 14.2943 14.2968 23.3486 13.6362C21.4045 14.5001 19.5565 15.3132 15.8949 17.8795C13.9508 17.3459 12.7967 18.7561 7.50698 19.1118C8.57179 19.6708 9.83583 18.6418 10.6465 19.7852C8.96337 20.9413 10.1381 19.1245 26.1103 20.5348C26.0759 20.4585 25.9935 20.4585 25.9522 20.4204C27.4636 21.17 26.1103 21.0175 22.7029 25.2227C23.3692 24.4478 30.3283 23.9777 25.5538 27.0014C26.227 27.6747 27.2025 26.8489 27.8483 27.5223C28.391 29.5931 10.0144 26.5059 27.7933 31.8799C29.2085 30.9271 28.604 33.6332 32.3823 32.9471C23.9738 34.2811 27.2369 41.1543 17.1178 45.3595C18.2032 45.08 18.9108 45.9312 19.7077 46.5156C19.268 46.8586 19.5909 46.5537 19.955 47.9385C18.6222 48.7897 12.8242 49.7807 18.6772 50.0348C16.9598 50.7208 18.3612 50.0856 13.8271 51.229C14.2806 51.5085 14.782 51.1528 15.2011 51.5847C13.5936 52.1691 14.2874 52.4995 10.4816 53.3253C12.6936 54.5703 11.3197 53.9224 15.8469 54.8752C15.2973 56.2981 14.0745 54.8752 13.1196 55.6629C15.7644 57.5178 21.7548 53.8588 24.8943 59.0296C24.8531 59.0677 24.8119 58.9915 24.7638 59.0296C20.9717 58.9407 20.5801 61.2021 29.1948 63.8319C26.9415 65.4835 27.601 66.1061 4.96518 69.1933C4.96518 69.1933 4.99953 69.2314 5.0064 69.2695C4.4843 75.4312 -6.30807 71.1752 5.50789 77.8832C6.17425 77.0193 19.1993 79.2426 38.5651 82.1011C38.5582 82.1011 38.5514 82.0884 38.5445 82.0884C38.7918 81.8343 38.6956 81.9105 38.9704 81.9487C39.1971 81.9105 39.4032 81.936 39.5406 81.936C39.2521 81.9741 39.0872 81.9614 38.9704 81.9487C38.8468 81.9741 38.7231 82.0122 38.5926 82.0884C38.5926 82.1011 38.6063 82.1011 38.6132 82.1138C89.3119 89.6095 293.247 101.323 323 72.9538ZM316.233 76.8033C316.254 76.8795 316.254 76.9685 316.288 77.0066C316.275 77.0066 316.254 77.0447 316.233 77.0447C316.281 76.9558 316.199 76.8795 316.233 76.8033ZM316.013 70.7305C315.938 70.7305 315.876 70.6924 315.8 70.6924C315.835 70.7432 315.958 70.1715 316.013 70.7305ZM311.177 75.0501C311.383 75.1136 311.342 75.0374 311.438 75.2152C311.445 75.2152 311.445 75.2152 311.452 75.2279H311.438C311.438 75.2279 311.438 75.2279 311.431 75.2152C311.321 75.139 311.239 75.0882 311.177 75.0501C311.102 75.0247 310.999 74.9866 310.834 74.8976C311.095 74.8722 310.95 74.8849 311.177 75.0501ZM313.389 31.9816C313.389 32.0197 313.375 32.0578 313.355 32.0959C313.369 32.0578 313.341 32.0197 313.334 31.9816C313.355 31.9816 313.369 31.9816 313.389 31.9816ZM311.905 44.9529C311.912 44.9657 311.912 44.9784 311.919 44.9911C312.043 45.0927 312.125 45.1816 312.187 45.2579C312.283 45.296 312.434 45.3595 312.675 45.5119C312.668 45.5501 312.675 45.5882 312.654 45.6263C312.654 45.5882 312.64 45.5501 312.64 45.5119C312.249 45.6517 312.482 45.6136 312.187 45.2579C311.967 45.1689 311.995 45.2197 311.919 44.9911C311.898 44.9784 311.892 44.9657 311.871 44.9529H311.905ZM298.125 22.415H298.118C298.125 22.4023 298.125 22.3896 298.125 22.3769C298.125 22.3896 298.125 22.415 298.125 22.415ZM298.612 52.6011C298.599 52.6011 298.599 52.563 298.585 52.563C298.647 52.5249 298.64 52.563 298.715 52.5249C298.695 52.6011 298.633 52.563 298.612 52.6011ZM299.512 23.5584C299.512 23.5584 299.526 23.4949 299.519 23.5711C299.519 23.5584 299.512 23.5584 299.512 23.5584ZM299.629 36.1868C299.629 36.1487 299.643 36.1868 299.643 36.1487C299.643 36.1868 299.657 36.1868 299.657 36.1868C299.657 36.1868 299.643 36.1868 299.629 36.1868ZM300.866 17.6127C300.852 17.6508 300.852 17.6508 300.852 17.6508C300.859 17.6762 300.838 17.6127 300.866 17.6127ZM300.879 18.2098C300.866 18.2479 300.879 18.2479 300.879 18.2479C300.879 18.2479 300.859 18.2479 300.852 18.2098C300.866 18.2098 300.873 18.2479 300.879 18.2098ZM300.873 57.3272C300.866 57.2891 300.873 57.2891 300.866 57.251C300.879 57.2383 300.914 57.2637 300.873 57.3272ZM301.958 17.6127C301.965 17.6127 301.965 17.5746 301.965 17.5746L301.979 17.6127C301.979 17.6127 301.965 17.6127 301.958 17.6127ZM307.351 79.6237C307.378 79.6237 307.392 79.6237 307.426 79.5856C307.426 79.6237 307.447 79.6618 307.454 79.6618C307.413 79.6618 307.385 79.6618 307.351 79.6237ZM309.741 18.8196C309.748 18.7688 309.748 18.7688 309.789 18.7307C309.769 18.7688 309.755 18.7815 309.741 18.8196C309.735 18.8705 309.721 18.9594 309.659 19.1627C309.501 18.9086 309.611 19.0737 309.741 18.8196ZM309.59 68.1134C309.611 67.8339 309.59 67.6433 309.515 67.4019C309.755 67.6433 309.741 67.872 309.59 68.1134ZM308.361 25.9088C308.374 25.9469 308.367 25.9723 308.347 25.9088C308.361 25.9088 308.361 25.9088 308.361 25.9088ZM307.55 61.1767C307.55 61.1767 307.55 61.1767 307.55 61.1386C307.722 61.2275 307.687 61.1259 308.161 61.5705C307.935 61.38 308.161 61.507 307.55 61.1767ZM307.605 51.7753C307.68 51.6864 307.612 51.6991 307.811 51.661C307.749 51.6864 307.674 51.6864 307.605 51.7753ZM307.777 22.4531C307.777 22.4531 307.777 22.4531 307.777 22.4913C307.763 22.4531 307.763 22.4531 307.763 22.4531H307.777ZM307.502 21.2335C307.557 21.3478 307.66 21.3478 307.729 21.4368C307.639 21.3606 307.577 21.3224 307.488 21.2716C307.488 21.2716 307.502 21.2716 307.502 21.2335ZM307.536 25.9088C307.495 25.985 307.481 26.0231 307.385 26.0231C307.385 26.0231 307.385 25.985 307.371 25.9469C307.406 25.985 307.488 25.9088 307.536 25.9088ZM307.502 60.5796C307.419 60.6177 307.344 60.5796 307.268 60.5796C307.296 60.5669 307.296 60.5033 307.502 60.5796ZM307.179 74.6943C307.158 74.6943 307.138 74.6943 307.124 74.6943C307.103 74.7325 307.179 74.6181 307.179 74.6943ZM306.904 44.1526L306.89 44.1907C306.884 44.2161 306.877 44.1526 306.904 44.1526ZM306.313 33.8873C306.176 33.9762 306.252 33.9635 305.963 33.9254C306.073 33.8873 306.19 33.9254 306.313 33.8873ZM306.664 80.729C306.416 80.729 306.169 80.6528 305.942 80.6909C306.183 80.5766 306.43 80.6147 306.664 80.729ZM305.75 68.7486C305.75 68.7867 305.716 68.7867 305.716 68.8248C305.709 68.8248 305.695 68.8248 305.688 68.8248C305.709 68.8248 305.716 68.7867 305.75 68.7486ZM305.338 65.3819C305.262 65.3819 305.187 65.3438 305.111 65.3438C305.221 65.3438 305.317 65.3057 305.42 65.3057C305.386 65.3438 305.352 65.3438 305.338 65.3819ZM304.981 15.237C305.036 15.2751 305.042 15.3513 305.111 15.3513C305.036 15.3894 304.974 15.3894 304.884 15.3894C304.912 15.3513 304.967 15.3132 304.981 15.237ZM304.871 39.3121C304.871 39.3883 304.836 39.4646 304.829 39.5535C304.747 39.7187 304.781 39.6551 304.63 39.7187C304.699 39.6551 304.781 39.5408 304.871 39.3121ZM304.713 50.4286C304.706 50.4286 304.713 50.4286 304.706 50.4667C304.706 50.4159 304.713 50.454 304.692 50.3905C304.692 50.3905 304.706 50.3905 304.713 50.3905L304.706 50.4286C304.699 50.4286 304.699 50.4286 304.713 50.4286ZM304.472 39.7949C304.431 39.8203 304.397 39.833 304.349 39.8711C304.369 39.7822 304.41 39.7949 304.472 39.7949ZM304.733 69.7014C304.548 69.6252 304.404 69.4601 304.198 69.422C304.404 69.4601 304.562 69.6252 304.733 69.7014ZM304.101 44.2288C304.094 44.305 304.143 44.3558 304.026 44.3939C304.06 44.3177 304.067 44.3177 304.101 44.2288ZM303.662 21.386C303.648 21.386 303.648 21.386 303.641 21.386C303.641 21.386 303.723 21.2843 303.662 21.386ZM303.353 45.9439C303.291 45.982 303.325 46.1091 303.394 46.2234C303.298 46.1472 303.311 46.0201 303.188 45.982C303.249 45.982 303.284 45.9439 303.353 45.9439ZM303.126 24.0031C303.146 24.0031 303.126 24.0412 303.14 24.0412C303.14 24.0412 303.126 24.0412 303.119 24.0412C303.133 24.0412 303.126 24.0031 303.126 24.0031ZM303.091 54.5449C303.105 54.5449 303.112 54.5068 303.133 54.5068C303.098 54.7101 303.14 54.5576 303.091 54.9769C303.078 54.8625 303.126 54.9641 303.091 54.5449ZM303.085 78.8996C303.071 78.8615 303.03 78.8996 303.023 78.8615C303.043 78.8742 303.03 78.8487 303.085 78.8996ZM302.521 14.7161C302.521 14.7161 302.494 14.6779 302.48 14.6779C302.494 14.7034 302.514 14.6271 302.521 14.7161ZM302.267 21.945C302.288 21.945 302.301 21.9069 302.322 21.9069C302.308 21.945 302.288 21.9831 302.267 22.0212C302.267 21.9831 302.267 21.945 302.267 21.945ZM302.343 61.8119C302.329 61.85 302.329 61.9263 302.329 61.9644C302.233 61.9263 302.157 62.0025 302.061 61.9644C302.192 61.9263 302.233 61.8881 302.343 61.8119ZM302.13 72.7124C302.123 72.776 302.143 72.7633 302.02 72.7124C302.054 72.7124 302.02 72.7124 302.13 72.7124ZM301.999 16.1517C301.985 16.1898 301.999 16.1898 301.999 16.1898C302.034 16.2025 301.882 16.139 301.999 16.1517ZM301.766 67.1987C301.669 67.2749 301.635 67.44 301.553 67.5544C301.573 67.3765 301.422 67.0081 301.766 67.1987ZM301.14 26.3026C301.14 26.3026 301.134 26.2645 301.12 26.2645C301.154 26.2645 301.587 25.8453 301.14 26.3026ZM300.831 13.2169C300.859 13.255 300.879 13.2804 300.907 13.3186C300.879 13.2932 300.859 13.255 300.804 13.255C300.811 13.255 300.831 13.255 300.831 13.2169ZM300.323 53.4396C300.33 53.4269 300.316 53.3761 300.364 53.4015C300.344 53.4015 300.344 53.4396 300.323 53.4396ZM300.261 45.855C300.289 45.8931 300.316 45.8677 300.337 45.8931C300.323 45.9058 300.289 45.9439 300.261 45.855ZM300.282 44.7116C300.295 44.6861 300.234 44.7624 300.241 44.6734C300.247 44.6734 300.261 44.6734 300.282 44.7116ZM300.302 49.0692C300.144 48.993 299.979 48.9803 299.808 48.9168C299.87 48.9041 299.863 48.6881 300.302 49.0692ZM299.842 29.1612C299.842 29.123 299.828 29.123 299.828 29.123C299.87 29.123 299.904 29.0849 299.945 29.0849C299.918 29.123 299.876 29.123 299.842 29.1612ZM299.876 15.5165C299.76 15.4021 299.622 15.3513 299.471 15.3132C299.609 15.3513 299.767 15.3513 299.876 15.5165ZM299.519 22.7708C299.54 22.8851 299.505 22.8851 299.519 22.974C299.499 22.974 299.492 22.9359 299.464 22.9359C299.492 22.8978 299.512 22.8597 299.519 22.7708ZM298.901 44.3177C298.839 44.4321 298.743 44.521 298.715 44.6353C298.702 44.6353 298.702 44.6734 298.702 44.6734C298.66 44.521 298.585 44.4321 298.551 44.3177C298.667 44.3939 298.777 44.3939 298.901 44.3177ZM298.502 66.7286C298.461 66.7667 298.482 66.8937 298.482 67.0081C298.461 66.9319 298.461 66.8429 298.441 66.7286C298.468 66.7286 298.461 66.6905 298.502 66.7286ZM298.2 14.7161C298.166 14.7542 298.145 14.8304 298.132 14.8812C298.104 14.8431 298.056 14.8812 298.035 14.8431C298.104 14.805 298.138 14.7161 298.2 14.7161ZM297.541 23.2154C297.5 23.2154 297.479 23.2535 297.445 23.2535C297.458 23.19 297.438 23.2154 297.541 23.2154ZM297.087 63.7938V63.8319C297.074 63.8319 297.074 63.8319 297.074 63.8319C297.074 63.8319 297.074 63.8319 297.087 63.7938ZM285.979 53.8716C285.979 53.8716 286 53.8716 286 53.8334C286.02 53.8843 286.041 53.9224 286.068 53.9605C286.034 53.9351 286.006 53.9097 285.979 53.8716ZM296.819 68.3929C296.799 68.4056 296.771 68.4183 296.751 68.431C296.764 68.4056 296.792 68.3421 296.819 68.3929ZM296.62 68.4945C296.613 68.4945 296.6 68.5072 296.593 68.5072H296.579C296.6 68.5072 296.606 68.4945 296.62 68.4945ZM295.459 65.0262C295.466 65.0262 295.466 65.0262 295.466 65.0262C295.48 65.0643 295.466 65.0643 295.459 65.0643C295.459 65.0643 295.459 65.0643 295.459 65.0262ZM295.116 18.6926C295.088 18.7307 295.095 18.7307 295.074 18.7688C295.061 18.7307 295.088 18.7307 295.061 18.6926C295.081 18.6926 295.102 18.6926 295.116 18.6926ZM295.507 70.6162C295.507 70.6162 295.5 70.6162 295.494 70.6162C295.26 70.7178 295.494 70.6289 294.862 70.6162C295.102 70.5781 294.868 70.6162 295.507 70.6162ZM294.546 66.97C294.532 66.97 294.491 66.97 294.491 66.97C294.47 66.97 294.47 66.9319 294.463 66.9319C294.491 66.9191 294.511 66.97 294.546 66.97ZM294.477 74.3767C294.491 74.4148 294.463 74.4148 294.477 74.453C294.456 74.453 294.436 74.453 294.415 74.453C294.429 74.4276 294.47 74.4276 294.477 74.3767ZM294.017 16.5836C294.003 16.6217 293.989 16.6599 293.975 16.698H293.941C293.989 16.6599 293.975 16.6217 294.017 16.5836ZM293.728 21.0683C293.721 21.0683 293.707 21.0683 293.701 21.0683C293.694 21.0938 293.728 20.9794 293.728 21.0683ZM293.172 47.8496C293.151 47.8115 293.13 47.8115 293.096 47.8115C293.123 47.8115 293.103 47.7861 293.172 47.8496ZM291.818 75.4566C291.825 75.3804 291.791 75.355 291.928 75.3804C291.894 75.4185 291.866 75.4185 291.818 75.4566ZM291.811 24.6383C291.832 24.6383 291.866 24.6764 291.887 24.6764C291.866 24.6764 291.818 24.7146 291.811 24.7527C291.791 24.7146 291.832 24.6764 291.811 24.6383ZM291.406 71.5309C291.42 71.569 291.42 71.569 291.427 71.6071C291.413 71.5944 291.303 71.6325 291.406 71.5309ZM291.619 77.0447C291.53 77.0828 291.468 77.1209 291.358 77.1209C291.447 77.0828 291.53 77.0447 291.619 77.0447ZM291.427 81.1991C291.413 81.2626 291.475 81.288 291.358 81.2753C291.379 81.288 291.406 81.2499 291.427 81.1991ZM290.066 51.572C290.053 51.8134 289.95 51.9278 289.785 51.9278C289.75 51.9278 289.75 51.8896 289.73 51.8515C289.908 51.8896 289.984 51.7753 290.066 51.572ZM289.744 61.4054C289.744 61.4435 289.757 61.4435 289.764 61.4816H289.73C289.744 61.4562 289.716 61.4562 289.744 61.4054ZM289.84 70.6162C289.799 70.5399 289.744 70.4764 289.695 70.4002C289.757 70.4129 289.95 70.3494 289.84 70.6162ZM289.709 71.01C289.702 71.01 289.709 71.01 289.702 71.0481C289.682 71.0227 289.668 71.0227 289.661 71.01C289.675 71.01 289.689 71.01 289.709 71.01ZM289.4 71.0481C289.503 70.8957 289.428 70.9973 289.592 71.01C289.565 71.0227 289.517 71.0354 289.407 71.0481C289.421 71.0481 289.407 71.0863 289.407 71.0863C289.407 71.0863 289.393 71.0481 289.386 71.0481C289.4 71.0481 289.4 71.0481 289.4 71.0481ZM288.734 39.9473C288.734 39.9855 288.699 39.9855 288.713 40.0236C288.672 40.0236 288.658 39.9855 288.617 39.9855C288.644 39.9092 288.699 39.9855 288.734 39.9473ZM288.486 27.6112C288.273 27.4969 288.349 27.2555 288.301 27.0903C288.335 27.2555 288.418 27.4587 288.486 27.6112ZM288.088 10.676C288.074 10.676 288.088 10.676 288.067 10.6379C288.06 10.6506 288.095 10.5998 288.088 10.676ZM287.861 44.0255C287.827 44.0382 287.799 44.0509 287.765 44.0763C287.772 44.0509 287.82 44.0382 287.861 44.0255ZM287.841 69.2695C287.82 69.3457 287.765 69.3838 287.765 69.4347C287.744 69.4347 287.731 69.3965 287.724 69.3965C287.758 69.3838 287.799 69.3076 287.841 69.2695ZM287.422 25.3498C287.401 25.3498 287.38 25.3498 287.367 25.3498C287.394 25.3498 287.401 25.3117 287.422 25.3498ZM287.346 37.6478C287.346 37.6478 287.332 37.6478 287.325 37.6478C287.319 37.6224 287.305 37.6097 287.291 37.5843C287.312 37.6097 287.332 37.6351 287.346 37.6478ZM287.188 37.4064C287.209 37.4064 287.222 37.4445 287.243 37.4445C287.236 37.47 287.25 37.5081 287.264 37.5335C287.236 37.4954 287.215 37.4572 287.188 37.4064ZM287.25 33.6078C287.215 33.6078 287.25 33.6078 287.167 33.5696C287.202 33.5696 287.229 33.6078 287.25 33.6078ZM287.133 21.5511C287.112 21.5892 287.092 21.6273 287.078 21.6655C287.099 21.6655 287.037 21.5257 287.133 21.5511ZM286.48 53.3634C286.535 53.3253 286.57 53.3253 286.632 53.2871C286.563 53.3126 286.522 53.3126 286.48 53.3634ZM286.494 51.7372C286.487 51.8261 286.508 51.8388 286.405 51.7753C286.439 51.7753 286.467 51.7753 286.494 51.7372ZM286.371 69.6633C286.35 69.7014 286.35 69.6633 286.329 69.6633C286.329 69.6633 286.343 69.6633 286.371 69.6633ZM286.171 43.2886C286.158 43.3268 286.158 43.3649 286.151 43.3649C286.158 43.3903 286.116 43.2759 286.171 43.2886ZM286.13 13.128C286.075 13.1407 286.027 13.1661 285.986 13.2169C285.89 13.0137 285.8 13.1407 286.13 13.128ZM285.608 54.6847C285.718 54.7482 285.725 54.7482 285.773 54.8244C285.8 54.8498 285.828 54.8752 285.869 54.9006L285.848 54.9387C285.814 54.8879 285.793 54.8498 285.78 54.8244C285.711 54.7736 285.649 54.7228 285.608 54.6847C285.553 54.6465 285.471 54.5957 285.34 54.5068C285.471 54.5449 285.429 54.5195 285.608 54.6847ZM284.955 65.5725C284.969 65.6106 284.976 65.6106 284.976 65.6106C284.976 65.6106 284.962 65.6106 284.955 65.6106C284.955 65.6106 284.955 65.6106 284.955 65.5725ZM284.742 37.724C284.708 37.724 284.742 37.724 284.653 37.724C284.66 37.7749 284.763 37.4827 284.742 37.724ZM284.66 39.7568C284.598 39.7568 284.529 39.7568 284.509 39.6805C284.55 39.7187 284.591 39.7568 284.66 39.7568ZM284.722 53.9097C284.687 54.024 284.626 54.1129 284.605 54.1892C284.543 54.2273 284.55 54.1129 284.495 54.1511C284.612 54.1129 284.632 53.9986 284.722 53.9097ZM284.097 40.7477C283.808 40.6715 283.691 41.0272 283.43 40.9891C283.616 40.824 283.808 40.6207 284.097 40.7477ZM283.65 6.99169C283.65 6.99169 283.65 6.99169 283.65 7.0298C283.65 6.99169 283.629 6.99169 283.616 6.99169C283.629 6.99169 283.636 6.99169 283.65 6.99169ZM283.437 13.9665C283.451 14.0046 283.478 13.9665 283.499 14.0046C283.478 14.0046 283.444 14.0046 283.423 14.0427C283.437 14.0046 283.437 14.0046 283.437 13.9665ZM283.101 79.4967C283.087 79.4967 283.087 79.4967 283.08 79.4586C283.094 79.4586 283.162 79.4586 283.101 79.4967ZM283.018 49.1963C282.956 49.1582 282.881 49.1582 282.812 49.12C282.874 49.1582 282.963 49.1582 283.018 49.1963ZM282.29 77.718C282.269 77.6799 282.249 77.6799 282.214 77.6799C282.228 77.718 282.262 77.5529 282.29 77.718ZM282.084 18.7307C282.125 18.7307 282.173 18.7307 282.221 18.7307C282.166 18.7688 282.125 18.7307 282.084 18.7688C282.084 18.7307 282.084 18.7307 282.084 18.7307ZM281.994 71.569C281.981 71.569 281.988 71.5817 281.981 71.5309C281.994 71.5309 281.988 71.5309 281.994 71.569ZM282.015 75.6853C282.015 75.7234 282.029 75.7615 282.029 75.7615C281.981 75.7615 281.933 75.7742 281.891 75.7742C281.946 75.7742 281.994 75.7488 282.015 75.6853ZM194.254 78.5438C194.247 78.493 194.24 78.493 194.268 78.5438H194.254ZM194.433 31.0668C194.44 31.016 194.426 31.016 194.495 31.0668C194.481 31.0668 194.453 31.0287 194.433 31.0668ZM194.735 84.0957C194.783 84.0449 194.756 83.9052 194.893 83.9814C194.831 84.0195 194.79 84.0576 194.735 84.0957ZM195.985 68.2277C195.999 68.215 196.013 68.1642 196.123 68.2277C196.075 68.2023 196.033 68.2404 195.985 68.2277ZM197.435 57.6448C197.414 57.6448 197.435 57.6067 197.414 57.6067C197.435 57.6067 197.449 57.6067 197.455 57.6067C197.449 57.6448 197.449 57.6067 197.435 57.6448ZM197.49 68.5072L197.476 68.4691C197.49 68.4691 197.497 68.4691 197.51 68.5072H197.49ZM198.094 75.8505C198.156 75.7742 198.17 75.6091 198.225 75.5329C198.266 75.6091 198.19 75.7361 198.094 75.8505ZM268.969 35.5897C268.956 35.5516 268.99 35.5516 268.99 35.5134C269.004 35.5516 269.004 35.5516 269.011 35.5897C269.011 35.5897 268.976 35.5897 268.969 35.5897ZM271.614 50.1872C271.621 50.1491 271.525 50.1491 271.635 50.1491L271.614 50.1872ZM273.215 50.3778C273.181 50.4159 273.201 50.3397 273.181 50.3397C273.194 50.3397 273.194 50.3778 273.215 50.3397C273.215 50.3778 273.215 50.3778 273.215 50.3778ZM280.112 80.8942C280.098 80.8942 280.112 80.8942 280.092 80.8942C280.105 80.8561 280.092 80.7798 280.071 80.729C280.112 80.7417 280.112 80.6528 280.112 80.8942ZM280.497 68.3548C280.463 68.3929 280.476 68.431 280.456 68.4691C280.476 68.4945 280.366 68.2404 280.497 68.3548ZM280.25 69.1043C280.25 69.1806 280.195 69.2187 280.208 69.2568C280.435 69.2187 279.13 69.8158 280.25 69.1043ZM279.982 57.0477C279.995 57.1239 279.92 57.2129 279.947 57.2891H279.927C279.947 57.2002 279.961 57.1239 279.982 57.0477ZM279.721 5.87368C279.755 5.87368 279.782 5.87368 279.81 5.87368C279.776 5.9118 279.734 5.9118 279.714 5.9118L279.721 5.87368ZM279.755 37.8511C279.755 37.8511 279.755 37.8765 279.755 37.9654C279.734 37.9273 279.714 37.8892 279.679 37.8511C279.714 37.8511 279.734 37.8511 279.755 37.8511ZM279.563 40.8113C279.549 40.824 279.535 40.8367 279.515 40.8621C279.515 40.824 279.501 40.824 279.501 40.824C279.514 40.824 279.542 40.8113 279.563 40.8113ZM279.446 48.2434C279.466 48.3197 279.46 48.3197 279.425 48.3578C279.425 48.3197 279.446 48.2815 279.446 48.2434ZM278.779 23.9269C278.766 23.8888 278.779 23.8888 278.759 23.8507C278.779 23.8507 278.814 23.8252 278.779 23.9269ZM278.546 57.2891C278.532 57.3272 278.532 57.3653 278.525 57.4034C278.505 57.3653 278.505 57.3272 278.484 57.2891C278.498 57.2891 278.525 57.2891 278.546 57.2891ZM278.113 26.8235C278.092 26.8235 278.072 26.8235 278.058 26.8235C278.058 26.8235 278.024 26.8235 278.017 26.8235C278.051 26.7854 278.086 26.8235 278.113 26.8235ZM277.426 5.44173C277.412 5.47984 277.412 5.47984 277.405 5.51796C277.371 5.47984 277.309 5.44173 277.275 5.44173C277.33 5.44173 277.378 5.44173 277.426 5.44173ZM277.254 83.5875C277.234 83.5494 277.22 83.5875 277.193 83.5875C277.172 83.5875 277.172 83.5494 277.138 83.5113C277.179 83.5494 277.213 83.5494 277.254 83.5875ZM276.636 27.9669V28.005C276.574 27.9669 276.499 28.0432 276.423 28.005C276.499 27.9669 276.567 28.005 276.636 27.9669ZM275.956 79.8524C275.935 79.7762 275.942 79.8397 275.935 79.7C275.949 79.7127 275.956 79.6618 275.956 79.8524ZM275.757 35.3864C275.509 35.5897 275.262 35.4245 275.008 35.4245C275.262 35.3864 275.509 35.3483 275.757 35.3864ZM274.321 35.0688C274.307 35.1069 274.3 35.1069 274.3 35.145C274.266 35.145 274.239 35.145 274.204 35.1069C274.266 35.1069 274.204 35.1196 274.321 35.0688ZM274.177 65.5725C274.19 65.6106 274.19 65.6106 274.197 65.6106C274.184 65.6106 274.177 65.6106 274.177 65.6106C274.177 65.6106 274.177 65.6106 274.177 65.5725ZM274.019 29.6821C273.957 29.6439 273.888 29.6058 273.826 29.5677C273.833 29.555 274.108 29.5804 274.019 29.6821ZM273.929 22.3388C273.916 22.3769 273.929 22.4531 273.943 22.504C273.888 22.4913 273.703 22.6056 273.929 22.3388ZM273.236 16.355C273.236 16.355 273.236 16.355 273.236 16.3931C273.242 16.3931 273.167 16.2533 273.236 16.355ZM273.297 25.7436C273.297 25.7817 273.318 25.7817 273.318 25.7817C273.229 25.7817 273.208 25.8199 273.146 25.8199C273.215 25.7945 273.242 25.7944 273.297 25.7436ZM273.002 23.1773C272.988 23.1392 272.981 23.1392 272.968 23.1392C272.968 23.1519 273.002 23.0884 273.002 23.1773ZM272.246 31.0668C272.26 31.105 272.281 31.105 272.288 31.105C272.267 31.105 272.253 31.105 272.233 31.0668C272.246 31.0668 272.246 31.0668 272.246 31.0668ZM271.807 42.5264C271.807 42.5264 271.82 42.5264 271.82 42.5645C271.82 42.5264 271.8 42.5264 271.8 42.5264C271.8 42.5264 271.8 42.5264 271.807 42.5264ZM271.917 77.0447C271.82 77.0828 271.765 77.0447 271.731 76.9304C271.786 77.0066 271.827 77.0447 271.917 77.0447ZM271.683 16.7107C271.669 16.7488 271.697 16.7488 271.697 16.7488C271.662 16.7107 271.601 16.7488 271.58 16.7107C271.607 16.7107 271.635 16.7107 271.683 16.7107ZM270.996 59.3853C271.037 59.4235 271.037 59.4616 271.072 59.4616C271.03 59.4997 270.934 59.5759 270.866 59.6267C270.886 59.5505 270.996 59.5124 270.996 59.3853ZM270.467 49.12C270.433 49.1582 270.453 49.1963 270.405 49.2344C270.371 49.2344 270.385 49.1963 270.35 49.1963C270.405 49.1963 270.433 49.1582 270.467 49.12ZM270.254 58.9534C270.268 58.9915 270.275 58.9915 270.275 58.9915C270.261 58.9534 270.254 59.0296 270.22 59.0296C270.233 58.9915 270.24 58.9915 270.254 58.9534ZM269.869 82.3933C269.883 82.3933 269.904 82.3933 269.904 82.3933C269.904 82.3933 269.883 82.4314 269.869 82.4314C269.869 82.4314 269.876 82.3933 269.869 82.3933ZM269.512 67.7958C269.512 67.8339 269.512 67.8339 269.512 67.8339H269.498L269.512 67.7958ZM269.285 26.1121C269.292 26.1502 269.368 26.2137 269.244 26.2772C269.285 26.2264 269.285 26.1121 269.285 26.1121ZM269.382 33.2012C269.34 33.2393 269.272 33.2393 269.244 33.2393C269.251 33.1631 269.23 33.2012 269.382 33.2012ZM269.018 5.68311C269.004 5.68311 269.004 5.72123 268.997 5.75934C269.004 5.74664 268.983 5.6323 269.018 5.68311ZM269.011 29.7202C268.976 29.7202 268.949 29.7202 268.921 29.7202C268.935 29.7456 268.949 29.5423 269.011 29.7202ZM200.025 39.0072C200.011 39.0072 200.032 39.0453 199.997 39.0707C200.011 39.0453 200.018 39.0326 200.025 39.0072ZM200.004 43.1235C199.983 43.1235 199.997 43.1362 199.963 43.0854C199.97 43.0854 199.977 43.1235 200.004 43.1235ZM268.763 45.423C268.702 45.4611 199.949 45.4611 199.894 45.4611C199.935 45.423 268.708 45.4611 268.763 45.423ZM199.564 77.159C199.578 77.1972 199.564 77.1971 199.564 77.1971H199.53C199.53 77.1971 199.564 77.1972 199.564 77.159ZM199.035 76.5238C199.077 76.6381 199.035 76.8414 198.974 77.0828C199.056 76.8414 199.049 76.689 199.035 76.5238ZM198.829 15.9103C198.816 15.9484 198.795 15.9484 198.795 15.9865C198.774 15.9484 198.74 15.9865 198.719 15.9484C198.754 15.9103 198.802 15.9484 198.829 15.9103ZM198.252 19.4422C198.252 19.4041 198.197 19.5565 198.211 19.4041C198.232 19.4422 198.245 19.4422 198.252 19.4422ZM198.534 25.985C198.438 25.985 198.342 26.0612 198.245 26.0612C198.17 26.0612 198.087 26.0612 198.012 26.0231C198.156 26.1121 198.348 26.0231 198.534 25.985ZM198.136 42.0944C198.074 42.0944 198.094 42.1325 198.046 42.1706C198.06 42.0817 198.026 42.0817 198.136 42.0944ZM198.136 43.2378C198.094 43.2378 198.046 43.2378 198.005 43.2378C198.039 43.1616 198.026 43.06 198.136 43.2378ZM198.218 51.1401L198.184 51.1782C197.929 50.8225 198.177 51.1782 197.648 50.3524C197.641 50.3397 197.634 50.3651 197.634 50.3016C197.991 50.5303 197.62 50.327 198.218 51.1401ZM197.545 3.92988C197.545 3.92988 197.504 3.968 197.483 3.968C197.442 3.968 197.387 4.04422 197.352 3.92988C197.455 3.9807 197.346 3.91718 197.545 3.92988ZM196.686 62.409C196.652 62.409 196.631 62.409 196.61 62.409C196.617 62.4217 196.638 62.3074 196.686 62.409ZM196.624 81.0466C196.562 80.9704 196.487 80.8942 196.37 80.9323C196.494 80.8434 196.583 80.8942 196.624 81.0466ZM195.333 5.44173C195.319 5.51796 195.34 5.46714 195.243 5.47984C195.285 5.47984 195.312 5.47984 195.333 5.44173ZM195.037 3.58686C195.044 3.63768 195.058 3.6885 195.065 3.72661C195.051 3.72661 195.03 3.72661 195.01 3.72661C195.024 3.67579 195.037 3.63768 195.037 3.58686ZM195.092 27.3825C195.058 27.3571 195.106 27.6239 194.975 27.4969C195.037 27.4587 195.037 27.4206 195.092 27.3825ZM195.463 54.4306C195.731 54.4179 195.477 54.4179 196.136 54.3924C195.93 54.4306 195.731 54.5195 195.518 54.4433C195.175 54.6465 195.504 54.4941 194.694 54.5068C194.955 54.4306 194.701 54.583 195.463 54.4306ZM194.79 19.1627C194.577 19.1245 194.337 19.2389 194.144 19.0483C194.357 19.0864 194.577 19.1245 194.79 19.1627ZM194.048 47.9639C194.062 48.002 194.062 48.0402 194.082 48.0402C194.062 48.0402 194.041 48.0402 194.027 48.0402C194.027 48.0402 194.041 48.002 194.048 47.9639ZM194.11 60.1857C194.076 60.2238 194.055 60.262 194.027 60.262C194 60.2365 194.048 60.2111 194.11 60.1857ZM193.945 36.0216C193.959 36.0216 193.959 36.0089 193.945 36.0597C193.945 36.0597 193.945 36.0597 193.945 36.0216ZM193.78 46.3377C193.759 46.3377 193.766 46.3377 193.759 46.2996C193.753 46.2996 193.794 46.2869 193.78 46.3377ZM192.805 36.5806C192.818 36.6187 192.825 36.6187 192.839 36.6569C192.818 36.6569 192.805 36.6569 192.784 36.6569C192.791 36.6187 192.805 36.6187 192.805 36.5806ZM191.96 64.5434C191.96 64.5434 191.98 64.5434 192.001 64.5434C191.987 64.5434 191.966 64.5434 191.96 64.5815C191.96 64.5434 191.96 64.5434 191.96 64.5434ZM191.733 3.25654L191.747 3.33277C191.726 3.33277 191.692 3.33277 191.65 3.33277C191.678 3.29465 191.712 3.29465 191.733 3.25654ZM191.499 5.31468C191.486 5.27657 191.479 5.31468 191.465 5.27657C191.479 5.28927 191.486 5.25116 191.499 5.31468ZM184.107 50.1872C184.094 50.1491 184.073 50.1491 184.053 50.111C184.073 50.111 184.087 50.0729 184.107 50.0729C184.087 50.1491 184.128 50.1491 184.107 50.1872ZM184.341 45.7025C184.348 45.7279 184.348 45.6009 184.355 45.7025C184.355 45.7025 184.355 45.7025 184.341 45.7025ZM184.952 86.2428C184.925 86.2301 184.932 86.2555 184.918 86.1285C184.932 86.1793 184.966 86.1031 184.952 86.2428ZM186.368 84.9342C186.347 84.9724 186.347 84.9342 186.326 84.9342C186.34 84.8961 186.381 84.8961 186.381 84.858C186.388 84.8961 186.361 84.8961 186.368 84.9342ZM190.833 62.8029C190.86 62.8918 190.964 62.5996 191.101 63.0061C191.005 62.9553 190.964 62.841 190.833 62.8029ZM191.067 57.5178C191.08 57.5559 191.067 57.5559 191.067 57.594C191.053 57.5559 191.046 57.5559 191.032 57.5178H191.067ZM190.991 46.0964C190.847 45.8169 191.012 46.0837 190.723 45.3468C191.067 45.5374 190.709 45.3468 191.012 46.0964C191.005 46.0964 190.991 46.0964 190.991 46.0964ZM190.744 4.95895C190.806 4.95895 190.84 5.03518 190.902 5.03518C190.812 5.04788 190.833 5.086 190.668 4.95895C190.702 4.95895 190.723 4.95895 190.744 4.95895ZM190.338 37.5716L190.352 37.6097H190.331L190.338 37.5716ZM190.62 68.7486C190.435 68.99 190.428 69.1043 190.352 69.2695C190.29 69.1552 190.215 69.0662 190.16 68.99C190.318 68.9519 190.455 68.9138 190.62 68.7486ZM190.167 83.9814C190.153 83.9814 190.105 83.9814 190.07 83.9814C190.091 83.9687 190.112 83.9306 190.167 83.9814ZM189.844 44.9529C189.844 44.9148 189.878 44.8767 189.878 44.8386C189.899 44.9148 189.878 44.9529 189.933 45.0419C189.899 44.9911 189.878 44.9911 189.844 44.9529V44.9911C189.851 44.9402 189.768 44.9784 189.782 44.7497C189.823 44.8259 189.803 44.864 189.844 44.9529ZM189.768 64.0352C189.754 64.0733 189.768 64.0479 189.748 64.1496C189.761 64.1496 189.699 64.0352 189.768 64.0352ZM189.61 80.2971C189.686 80.3352 189.727 80.259 189.782 80.259C189.727 80.3352 189.693 80.2971 189.645 80.4241C189.596 80.3987 189.596 80.4368 189.61 80.2971ZM189.212 66.6524C189.219 66.6905 189.239 66.6905 189.198 66.6905L189.212 66.6524ZM189.177 72.2424C189.212 72.2424 189.232 72.2424 189.267 72.2424C189.253 72.3186 189.177 72.3186 189.157 72.4075C189.157 72.3186 189.198 72.2805 189.177 72.2424ZM189.019 77.8324C188.964 77.9213 188.999 77.9086 188.834 77.8705C188.903 77.8324 188.958 77.8324 189.019 77.8324ZM189.136 86.5604C189.019 86.5985 188.903 86.6366 188.813 86.7637C188.889 86.5985 189.019 86.5985 189.136 86.5604ZM187.7 67.872C187.687 67.9482 187.755 67.9482 187.721 68.0372C187.68 67.9228 187.625 67.999 187.57 67.9228C187.611 67.9101 187.68 67.9101 187.7 67.872ZM187.474 58.2038L187.487 58.2419C187.481 58.2419 187.474 58.2419 187.467 58.2419C187.467 58.2419 187.474 58.2419 187.474 58.2038ZM187.13 16.6217C187.068 16.5836 187.02 16.5455 186.958 16.5074C187.02 16.5074 187.268 16.3677 187.13 16.6217ZM186.443 65.9282C186.333 65.8901 186.217 65.8901 186.113 65.8139C186.21 65.852 186.34 65.8901 186.443 65.9282ZM185.736 10.9936C185.749 11.0317 185.749 11.0317 185.756 11.0699C185.736 11.0699 185.722 11.0317 185.715 11.0317C185.715 11.0317 185.729 11.0317 185.736 10.9936ZM185.674 36.822C185.674 36.822 185.66 36.822 185.674 36.8601C185.66 36.8601 185.653 36.8601 185.639 36.8601C185.653 36.822 185.66 36.822 185.674 36.822ZM185.193 15.1226L185.207 15.1607H185.193C185.193 15.1226 185.193 15.1226 185.193 15.1226ZM184.685 71.1117C184.678 71.1117 184.691 71.1244 184.664 71.1244C184.788 70.9338 184.664 71.1117 185.083 70.8449C184.952 70.9338 184.815 71.01 184.685 71.1117ZM184.815 69.422C184.801 69.422 184.815 69.422 184.774 69.422C184.781 69.3838 184.794 69.422 184.815 69.422ZM184.678 9.48178C184.616 9.69776 184.698 9.60883 184.375 9.64694C184.472 9.57071 184.582 9.60883 184.678 9.48178ZM184.224 27.2809C184.375 27.2174 184.527 27.1284 184.691 27.0522C184.43 27.2682 184.568 27.2047 184.224 27.2809C184.059 27.3571 183.908 27.4079 183.764 27.4079C183.977 27.3444 184.121 27.3063 184.224 27.2809ZM183.379 42.9202C183.338 42.9964 183.263 42.9964 183.228 43.0854C183.242 42.971 183.201 42.8821 183.379 42.9202ZM182.692 58.6358C182.692 58.6358 182.658 58.6739 182.637 58.6739C182.658 58.6739 182.672 58.6358 182.692 58.6358ZM181.676 54.2654C181.662 54.3035 181.662 54.3035 181.662 54.3035C181.648 54.2654 181.621 54.3035 181.607 54.2654C181.628 54.2654 181.648 54.2654 181.676 54.2654ZM181.373 60.8591C181.373 60.8972 181.394 60.8972 181.394 60.8972C181.38 60.8972 181.36 60.8972 181.353 60.8972C181.36 60.8972 181.36 60.8972 181.373 60.8591ZM178.522 40.265C178.522 40.265 178.488 40.265 178.467 40.265C178.467 40.2904 178.509 39.9092 178.522 40.265ZM21.0335 17.7398C21.0472 17.7652 21.0747 17.6762 21.1228 17.7779C21.0953 17.7398 21.0679 17.7779 21.0335 17.7398ZM25.1622 17.5365C25.1897 17.4857 25.1966 17.4094 25.3889 17.4221C25.2721 17.4603 25.2721 17.4984 25.1622 17.5365ZM29.1329 14.1317C29.1261 14.2333 29.0642 14.0808 29.1535 14.0173C29.1329 14.0427 29.1329 14.0935 29.1329 14.1317ZM30.0741 29.5169C30.0878 29.5423 30.1016 29.4661 30.1703 29.555C30.1428 29.5169 30.1084 29.555 30.0741 29.5169ZM32.2724 21.945C32.2724 21.9069 32.2724 21.945 32.2175 21.8687C32.2106 21.8814 32.3549 21.8052 32.2724 21.945ZM21.4113 50.5811C21.4251 50.543 21.4251 50.5048 21.3976 50.4667C21.432 50.4794 21.4182 50.454 21.4388 50.5811H21.4113ZM21.638 44.7497C21.638 44.7116 21.638 44.7116 21.638 44.7116C21.6243 44.6989 21.6587 44.7497 21.638 44.7497ZM23.0601 49.0692C23.0463 49.0311 23.0738 49.0311 23.0738 48.993C23.1082 49.0057 23.1425 49.0057 23.1837 49.0057C23.1357 49.0057 23.0876 49.0184 23.0601 49.0692ZM23.8364 50.6573C23.8364 50.6573 23.8226 50.6573 23.8158 50.6573C23.8295 50.6573 23.8364 50.6446 23.8501 50.6446C23.8364 50.6446 23.8432 50.6573 23.8364 50.6573ZM23.8638 50.6192C23.8638 50.5938 23.8638 50.5811 23.8501 50.543C23.7677 50.4032 23.9257 50.5048 23.8638 50.6192ZM24.6676 50.2253C24.6882 50.238 24.6882 50.2126 24.6882 50.3016C24.6813 50.2635 24.6813 50.2635 24.6676 50.2253ZM24.8874 47.7988C24.8531 47.6844 24.8943 47.7352 24.7707 47.5955C24.8531 47.5955 24.8531 47.7098 24.963 47.6717C24.9287 47.7225 24.9149 47.7225 24.8874 47.7988ZM25.0111 52.8806C25.0111 52.8425 25.0111 52.8425 25.0111 52.8425C25.0111 52.8425 25.0248 52.8425 25.0317 52.8425C25.0248 52.8425 25.0248 52.8425 25.0111 52.8806ZM26.0553 49.9458L26.0416 49.9077H26.0759L26.0553 49.9458ZM27.6491 45.8169C27.7109 45.6898 27.7453 45.4865 28.0063 45.7787C27.8895 45.7787 27.7727 45.8169 27.6491 45.8169ZM28.0132 36.5044C28.1231 36.4663 28.1987 36.4282 28.2948 36.3901C28.1987 36.4155 28.1368 36.4663 28.0132 36.5044ZM2.03867 74.8976C2.03867 74.8976 2.03867 74.8976 2.05928 74.8595C2.05928 74.8595 2.1005 74.923 2.03867 74.8976ZM5.34302 76.2824C5.34302 76.2824 5.34301 76.2824 5.32928 76.2824C5.35675 76.2697 5.33614 76.2697 5.38423 76.2443C5.34988 76.2443 5.38423 76.2824 5.34302 76.2824ZM7.51385 73.4747C7.51385 73.4747 7.52759 73.5509 7.52759 73.5891C7.52072 73.5509 7.51385 73.5128 7.51385 73.4747ZM11.6907 69.9047C11.7044 69.8539 11.67 69.8031 11.7525 69.8285C11.6975 69.8539 11.6975 69.8793 11.6907 69.9047ZM11.9105 70.54C11.9242 70.5145 11.9311 70.5273 12.0479 70.5018C12.0067 70.4891 11.9311 70.54 11.9105 70.54ZM13.676 77.3115C13.4905 77.159 13.5043 76.9558 13.9302 76.7144C13.8271 76.9176 13.7172 77.1209 13.676 77.3115ZM14.9126 68.6343C14.9126 68.6343 14.9126 68.6343 14.8988 68.6343C14.9332 68.5962 14.9126 68.558 14.9332 68.5199C14.9194 68.5453 14.9126 68.5962 14.9126 68.6343ZM17.4269 75.0882C17.42 75.1009 17.4063 75.1263 17.3994 75.139C17.4063 75.1009 17.4063 75.1263 17.4612 75.0247C17.4612 75.0628 17.475 75.0628 17.475 75.0628C17.4544 75.0628 17.4406 75.0755 17.4269 75.0882ZM19.8794 79.2172C19.8657 79.2172 19.8657 79.2172 19.8657 79.2172C19.8725 79.2045 19.8863 79.2045 19.8931 79.2045C19.8863 79.2045 19.8794 79.2172 19.8794 79.2172ZM19.9618 79.1283C19.9687 79.1283 19.9618 79.1028 19.9893 79.1028C19.9824 79.1155 19.9756 79.1283 19.9618 79.1283ZM21.8579 69.6633H21.8441C21.8441 69.6633 21.8579 69.6633 21.8579 69.6252C21.8579 69.6633 21.8579 69.6633 21.8579 69.6633ZM30.4176 74.4276C30.4176 74.4276 30.4313 74.4276 30.4382 74.3894C30.4382 74.5038 30.5687 74.4657 30.6099 74.5927C30.5344 74.5038 30.4932 74.4657 30.4176 74.4276ZM31.2763 41.2178C31.2626 41.2178 31.2626 41.1797 31.2557 41.1797C31.2557 41.1797 31.2763 41.1797 31.29 41.2178H31.2763ZM31.8465 79.0266C31.7984 79.0139 31.8465 79.0266 31.8465 78.9504C31.8534 78.925 31.8327 79.0012 31.8602 79.0266H31.8465ZM32.293 36.2249C32.2999 36.1741 32.3342 36.0089 32.3274 36.2249C32.3136 36.2249 32.3068 36.2249 32.293 36.2249ZM38.9429 39.274C39.0254 39.2613 39.1009 39.2232 39.1765 39.1851C39.0941 39.2486 39.0116 39.3121 38.9223 39.3502C38.9361 39.3121 38.9361 39.3121 38.9429 39.274ZM38.0567 24.5621C38.0567 24.5621 38.0567 24.5621 38.0567 24.6002C38.043 24.6002 38.0361 24.6129 38.0567 24.5621ZM38.0361 24.6002C38.0293 24.5875 38.0293 24.6129 38.0224 24.524C38.0361 24.5621 38.0224 24.5621 38.0361 24.6002ZM34.8486 22.6564C34.8692 22.5548 34.8142 22.4913 34.9791 22.6564C34.931 22.6564 34.8898 22.6564 34.8486 22.6564ZM35.0409 66.3729H35.0066C34.9722 66.0679 34.9997 66.3728 35.0478 65.6233H35.0615C35.1165 65.9155 35.0272 65.6106 35.0409 66.3729ZM35.9821 43.7587H35.9683L35.9821 43.7206C35.9821 43.7587 35.9821 43.7587 35.9821 43.7587ZM35.9409 6.4708C35.9546 6.4708 36.0027 6.43268 36.0233 6.39457C36.037 6.43268 36.0439 6.43268 36.0576 6.4708C36.0164 6.4708 35.9821 6.4708 35.9409 6.4708ZM36.1744 54.5068C36.195 54.4941 36.2569 54.3797 36.3324 54.4687C36.305 54.4687 36.2294 54.5068 36.1744 54.5068ZM36.4698 75.1771C36.4698 75.1517 36.4561 75.0882 36.5179 75.1009C36.5042 75.139 36.4836 75.139 36.4698 75.1771ZM37.6033 75.139C37.6171 75.1136 37.6102 75.0628 37.6446 75.139C37.6446 75.139 37.6171 75.139 37.6033 75.139ZM37.7339 78.1881C38.3796 78.2262 38.9704 78.4295 39.2658 79.1028C38.7437 78.8614 38.3109 78.3914 37.7339 78.1881ZM39.3826 56.2092C39.4169 56.1711 39.4788 56.1711 39.5131 56.133C39.52 56.1457 39.465 56.4887 39.3826 56.2092ZM57.7866 44.5972C57.7866 44.5591 57.8073 44.5591 57.821 44.521C57.8416 44.5591 57.8759 44.521 57.8966 44.521C57.8622 44.5464 57.821 44.5464 57.7866 44.5972H57.8004L57.7866 44.6353C57.7866 44.5972 57.7866 44.5972 57.7866 44.5972ZM54.9357 24.7527C54.9082 24.7527 54.8807 24.9178 54.8739 24.7146C54.9014 24.7146 54.9013 24.7527 54.9357 24.7527ZM52.5519 2.46886C52.5382 2.50697 52.5519 2.51968 52.4763 2.50697C52.4901 2.46886 52.5313 2.46886 52.5519 2.46886ZM51.7894 24.8416C51.8031 24.8289 51.81 24.8162 51.8237 24.8035C51.6314 25.0576 51.8168 24.8035 51.3222 25.3625C51.281 24.9687 51.4253 24.8035 51.7894 24.8416ZM46.2936 22.2245C46.3073 22.2626 46.3142 22.2626 46.3279 22.3007C46.1974 22.3388 46.1012 22.3388 45.9844 22.3388C46.0669 22.3007 46.2249 22.2626 46.2936 22.2245ZM46.0531 22.6183C46.0462 22.6437 46.0188 22.6945 46.0325 22.6183C46.0325 22.6183 46.0462 22.6183 46.0531 22.6183ZM45.6822 16.1517L45.6959 16.1898C45.6615 16.1898 45.6409 16.1898 45.6135 16.1898C45.6272 16.1898 45.6615 16.1898 45.6822 16.1517ZM43.5182 20.2426C43.5182 20.2553 43.5182 20.268 43.5113 20.2807C43.5044 20.2934 43.5044 20.3061 43.4976 20.3188C43.5113 20.2807 43.5182 20.268 43.5182 20.2426ZM43.319 30.7492C43.2846 30.8001 43.3258 30.889 43.2228 30.7492C43.2571 30.7492 43.2915 30.7492 43.319 30.7492ZM43.106 35.9073C43.106 35.9073 43.106 35.9073 43.0923 35.9073C43.106 35.9073 43.0785 35.8692 43.0785 35.8692C43.106 35.8692 43.106 35.9073 43.106 35.9073ZM40.9283 9.83751C40.9214 9.86292 40.942 9.87562 40.9146 9.87562C40.9146 9.87562 40.9146 9.87562 40.9008 9.87562C40.9214 9.88833 40.9214 9.88833 40.9283 9.83751ZM40.2825 28.6403C40.3031 28.5768 40.2757 28.6149 40.3993 28.6022C40.3375 28.6403 40.3375 28.6022 40.2825 28.6403ZM40.5642 43.8349H40.5436C40.5505 43.7841 40.5642 43.7206 40.5985 43.6698C40.5848 43.7333 40.5848 43.8095 40.5642 43.8349ZM40.7703 61.0115C40.8665 61.0496 40.9832 61.0496 41.0519 61.164C40.942 61.1767 40.8665 61.0496 40.7703 61.0115ZM41.4435 40.3539L41.4298 40.3158C41.416 40.2904 41.5191 40.3539 41.4435 40.3539ZM41.5397 60.1476L41.4847 60.1857C41.4985 60.1476 41.526 60.1476 41.5397 60.1095C41.5397 60.0968 41.5534 60.1476 41.5397 60.1476ZM41.6977 34.4717C41.6565 34.4717 41.6221 34.4336 41.6015 34.3954C41.6359 34.3954 41.6634 34.3954 41.7114 34.3573C41.7114 34.3954 41.6908 34.4336 41.6977 34.4717ZM42.0549 45.3468C42.0961 45.3087 42.0893 45.3087 42.0893 45.3087C42.103 45.3087 42.1099 45.3087 42.1236 45.3087C42.0343 45.3976 41.9313 45.4611 42.0549 45.3468ZM42.0961 53.5539C42.0961 53.5285 42.0961 53.5158 42.1305 53.5158C42.1305 53.5158 42.1099 53.5158 42.0961 53.5539ZM42.4396 22.6564C42.4122 22.5929 42.4396 22.6564 42.419 22.4531C42.4396 22.4531 42.4602 22.4531 42.4809 22.4531C42.4396 22.4913 42.4328 22.5802 42.4396 22.6564ZM43.1404 81.6819C43.0991 81.6819 43.0648 81.6437 43.0304 81.6437C43.0923 81.6437 43.1472 81.6819 43.2228 81.6819C43.1884 81.6819 43.161 81.6819 43.1404 81.6819ZM42.9755 39.9473C42.7831 40.2268 42.6938 39.7568 43.3808 39.5154C43.264 39.7187 43.0923 39.6678 42.9755 39.9473ZM43.4907 64.2258C43.5319 64.2258 43.5731 64.1114 43.6281 64.1496C43.58 64.1877 43.5319 64.1877 43.4907 64.2258ZM43.8273 35.2212C43.7998 35.4499 43.6418 35.5516 43.4976 35.6659C43.6006 35.488 43.5251 35.7294 43.8411 35.145C43.8273 35.145 43.8685 35.1831 43.8273 35.2212ZM44.2739 22.4531C44.2601 22.3642 44.2258 22.3642 44.3632 22.3769C44.3494 22.415 44.2945 22.415 44.2739 22.4531ZM44.6723 45.7025C44.6517 45.6644 44.5967 45.6644 44.5624 45.6263C44.6036 45.5882 44.6173 45.5882 44.6723 45.5501C44.638 45.6263 44.6929 45.6263 44.6723 45.7025ZM45.2494 60.1857H45.2356L45.2494 60.1476V60.1857ZM45.002 32.0197C45.4829 32.0197 45.9913 32.0959 46.4722 32.0578C45.9776 32.134 45.4761 32.4135 45.002 32.0197ZM47.5026 47.8496C47.5164 47.8242 47.5232 47.8242 47.6126 47.8115C47.5645 47.7988 47.5439 47.7988 47.5026 47.8496ZM48.5537 69.8666C48.5331 69.9428 48.4781 70.0318 48.382 70.0572C48.43 70.0191 48.4163 70.0064 48.5949 69.8158C48.5812 69.8412 48.5674 69.8539 48.5537 69.8666ZM49.1239 44.864C49.0827 44.8259 49.014 44.9021 48.9728 44.864C49.1102 44.9021 49.1789 44.6989 49.275 44.6607C49.2269 44.7497 49.1651 44.7878 49.1239 44.864ZM49.5223 41.7387C49.5842 41.7006 49.6529 41.7006 49.7078 41.6243C49.6597 41.7006 49.5842 41.7006 49.5223 41.7387ZM49.8109 17.4221C49.8177 17.4348 49.804 17.3713 49.8658 17.384C49.8315 17.4221 49.8315 17.4221 49.8109 17.4221ZM50.7108 38.3593C50.7452 38.3974 50.7658 38.3974 50.7864 38.3974C50.7177 38.372 50.7589 38.3974 50.7108 38.3593ZM51.6863 83.9052C51.7 83.867 51.7069 83.8289 51.7001 83.7908C51.7344 83.7908 51.7619 83.7908 51.81 83.7908C51.7619 83.8289 51.7275 83.867 51.6863 83.9052ZM51.8649 45.5882C51.6726 45.6136 51.7825 45.6009 51.5558 45.4484C51.3703 45.3722 51.4115 45.423 51.3153 45.3087C51.4253 45.3595 51.5008 45.4103 51.5558 45.4484C51.6245 45.4738 51.7207 45.5119 51.8718 45.5882C51.8649 45.5882 51.8649 45.5882 51.8649 45.5882ZM52.3733 19.2389C52.3595 19.2008 52.3527 19.2008 52.3527 19.2008C52.3733 19.2008 52.3527 19.1881 52.4076 19.2389C52.3939 19.2389 52.3733 19.2389 52.3733 19.2389ZM52.8954 24.1683C52.8954 24.1937 52.9297 24.1174 52.9297 24.2064C52.916 24.1683 52.8954 24.1683 52.8954 24.1683ZM52.4695 19.0102C52.545 18.6926 52.8267 18.6926 53.0603 18.6164C52.8129 18.6545 52.6206 18.7688 52.4695 19.0102ZM53.0809 77.8705C53.0809 77.8705 53.0946 77.8705 53.1015 77.8705C53.0877 77.8705 53.1358 77.9086 53.1221 77.9467C53.1015 77.9086 53.0877 77.9086 53.0809 77.8705ZM53.3557 7.77937C53.3488 7.72855 53.3694 7.76666 53.335 7.70314C53.3488 7.70314 53.3694 7.74126 53.3694 7.74126C53.3694 7.74126 53.3557 7.74125 53.3557 7.77937ZM53.8434 64.9372H53.8297C53.8297 64.9372 53.8434 64.9372 53.8434 64.8991C53.8434 64.9372 53.8434 64.9372 53.8434 64.9372ZM54.1869 61.9263C54.2006 62.0406 54.2419 62.1295 54.3174 62.2058C54.2487 62.1295 54.1869 62.0914 54.1869 61.9263ZM54.3586 18.8832C54.338 18.8451 54.3037 18.8832 54.2762 18.8832C54.2968 18.8451 54.3518 18.845 54.3724 18.8069C54.3655 18.845 54.3449 18.8451 54.3586 18.8832ZM54.654 64.6196C54.6334 64.6196 54.6197 64.6577 54.5991 64.6577C54.6197 64.6196 54.6403 64.6196 54.6609 64.5815C54.6678 64.6196 54.654 64.6196 54.654 64.6196ZM54.8052 31.8545C54.8601 31.8291 54.9082 31.791 54.9494 31.7021C54.9632 31.7402 54.97 31.7783 54.9907 31.8164C54.9357 31.8037 54.867 31.8291 54.8052 31.8545ZM55.1693 61.0877C55.1693 61.0623 55.1693 61.0496 55.1693 61.0369C55.1693 61.0496 55.1693 61.075 55.183 61.0877H55.1693ZM55.1693 60.948C55.1761 60.948 55.1555 60.9099 55.183 60.8972C55.1761 60.9226 55.1761 60.9353 55.1693 60.948ZM55.2586 71.01C55.2654 71.01 55.2723 70.9973 55.2723 71.0481L55.2586 71.01ZM55.183 33.3283C55.1693 33.2901 55.1418 33.2901 55.1281 33.2901C55.2174 33.2901 55.2242 33.2901 55.2861 33.2901C55.2586 33.2901 55.2242 33.3283 55.183 33.3283ZM55.6639 2.74836C55.6227 2.71024 55.5677 2.74836 55.5265 2.71024C55.5815 2.67213 55.6433 2.71024 55.712 2.63402C55.6982 2.65943 55.6776 2.69754 55.6639 2.74836ZM56.1654 80.6909C56.186 80.7163 56.1654 80.6782 56.1791 80.8053C56.1585 80.7925 56.1723 80.8179 56.1654 80.6909ZM56.2547 55.7772C56.2547 55.7772 56.2409 55.7772 56.2341 55.7772C56.2478 55.7772 56.2547 55.7391 56.2547 55.7391V55.7772ZM56.4264 22.4531H56.4127C56.4127 22.4531 56.4333 22.4531 56.4333 22.415C56.4333 22.4531 56.4264 22.4531 56.4264 22.4531ZM56.4883 21.4622C56.4814 21.4749 56.4745 21.4241 56.4883 21.4241L56.502 21.4622H56.4883ZM56.7905 21.5003C56.7699 21.4622 56.8111 21.4622 56.7768 21.4241C56.7905 21.4241 56.7974 21.4241 56.8111 21.4241C56.8043 21.4622 56.8043 21.4622 56.7905 21.5003ZM57.0722 30.2665C57.0722 30.2665 57.0722 30.2665 57.0585 30.2283C57.0653 30.2283 57.1821 30.2283 57.0722 30.2665ZM57.2096 84.4642C57.2233 84.426 57.2096 84.3879 57.2096 84.3879C57.2439 84.3879 57.2714 84.426 57.292 84.4642C57.2645 84.4642 57.2302 84.4642 57.2096 84.4642ZM57.5599 46.6554C57.5668 46.6427 57.5256 46.5029 57.5805 46.6172C57.5737 46.6172 57.5599 46.6554 57.5599 46.6554ZM57.2645 37.8511C57.3745 37.7749 57.4912 37.813 57.5943 37.8892C57.4844 37.8892 57.3676 37.8511 57.2645 37.8511ZM57.608 77.8705C57.6973 77.7053 57.8416 77.6291 58.1095 77.6672C57.924 77.718 57.7248 77.718 57.608 77.8705ZM58.3362 84.731C58.3568 84.731 58.398 84.6928 58.4118 84.731C58.3843 84.731 58.3637 84.731 58.3362 84.731ZM58.7415 24.7146C58.7209 24.6764 58.7415 24.6383 58.7278 24.6002C58.7415 24.6383 58.7415 24.6764 58.7621 24.6764C58.7621 24.6764 58.7415 24.6764 58.7415 24.7146ZM125.261 47.6844L125.248 47.6463C125.254 47.6463 125.289 47.6463 125.261 47.6844ZM123.242 35.3864C123.228 35.4245 123.255 35.4245 123.255 35.4626C123.242 35.4245 123.235 35.4245 123.221 35.3864C123.221 35.3864 123.235 35.3864 123.242 35.3864ZM110.684 22.8089C110.704 22.8343 110.745 22.8216 110.794 22.9105C110.78 22.8851 110.752 22.8597 110.704 22.847C110.704 22.8343 110.684 22.8851 110.67 22.8089C110.677 22.8089 110.677 22.8089 110.684 22.8089ZM109.097 58.6358C109.104 58.6358 109.124 58.6993 109.076 58.6739L109.097 58.6358ZM108.362 38.715C108.355 38.715 108.396 38.7023 108.382 38.7531C108.382 38.7531 108.327 38.7658 108.362 38.715ZM106.301 26.1883C106.26 26.2518 106.294 26.2264 106.17 26.1883C106.211 26.1502 106.26 26.2264 106.301 26.1883ZM101.884 19.0102C101.884 18.9848 101.849 19.061 101.849 18.9721C101.856 19.0102 101.87 19.0102 101.884 19.0102ZM101.87 21.3478C101.856 21.2716 101.849 21.3224 101.856 21.1954C101.849 21.1827 101.89 21.3478 101.87 21.3478ZM59.4629 14.6017C59.3529 14.7542 59.456 14.6271 59.1949 14.7161C59.2018 14.7415 59.4079 14.5128 59.4835 14.6017C59.4835 14.6017 59.4697 14.6017 59.4629 14.6017ZM59.8957 72.8776C59.9506 72.8014 60.0056 72.7124 60.0468 72.5981C60.0193 72.8522 60.0331 72.776 59.8957 72.8776C59.8132 72.9919 59.7239 73.0809 59.6209 73.1571C59.7583 72.9919 59.8407 72.9284 59.8957 72.8776ZM59.9369 73.5001C59.8957 73.5382 59.8613 73.5636 59.8407 73.5128C59.8682 73.5128 59.9025 73.5001 59.9369 73.5001C60.0399 73.3985 101.41 73.1571 101.671 73.5891C101.485 73.4239 60.1017 73.4747 59.9369 73.5001ZM101.657 61.1386C101.657 61.1005 101.622 61.1005 101.643 61.0623C101.643 61.1005 101.657 61.1005 101.664 61.1386H101.657ZM101.815 84.6547C101.829 84.6166 101.835 84.6166 101.849 84.5785C101.87 84.6166 101.89 84.6166 101.925 84.6547C101.884 84.6547 101.849 84.6547 101.815 84.6547ZM102.055 11.3494C102.042 11.3494 102.042 11.3494 102.042 11.3112C102.042 11.3494 102.055 11.3112 102.055 11.3112C102.055 11.3494 102.055 11.3494 102.055 11.3494ZM103.814 69.6633C103.828 69.676 103.841 69.5998 103.896 69.6633C103.883 69.6633 103.848 69.6633 103.814 69.6633ZM104.549 1.59224C104.563 1.63036 104.583 1.63036 104.59 1.66847C104.549 1.63036 104.48 1.63036 104.439 1.59224C104.487 1.59224 104.508 1.59224 104.549 1.59224ZM104.838 67.3638C104.748 67.1987 104.68 67.1605 104.59 66.97C104.741 67.0843 104.803 67.0843 104.934 67.1732C104.872 67.1986 104.886 67.2876 104.838 67.3638ZM105.044 82.6347C105.03 82.5966 105.03 82.5966 105.009 82.5966C105.044 82.5966 105.05 82.5966 105.085 82.5966C105.078 82.5966 105.057 82.5966 105.044 82.6347ZM105.064 3.10409C105.05 3.06597 105.03 3.06597 105.009 3.06597C105.064 3.02786 105.126 3.06597 105.167 3.02786C105.154 3.06597 105.085 3.01515 105.064 3.10409ZM105.401 69.1806C105.415 69.1806 105.435 69.2187 105.442 69.2568C105.408 69.2568 105.38 69.2568 105.346 69.2568C105.366 69.1806 105.366 69.2314 105.401 69.1806ZM105.428 79.3061C105.415 79.268 105.394 79.3061 105.387 79.268C105.387 79.268 105.387 79.268 105.387 79.2299C105.421 79.268 105.449 79.268 105.476 79.268C105.449 79.2553 105.449 79.2553 105.428 79.3061ZM105.868 34.7131C106.026 34.5987 106.177 34.7131 106.342 34.7131C106.191 34.7131 106.026 34.7131 105.868 34.7131ZM106.816 14.5636C106.837 14.5255 106.905 14.5255 106.926 14.5255C106.892 14.5636 106.843 14.5255 106.816 14.5636ZM107.208 31.1812C107.187 31.1812 107.187 31.1431 107.166 31.1431C107.242 31.1431 107.317 31.105 107.393 31.0668C107.338 31.105 107.242 31.105 107.208 31.1812ZM107.427 23.8507C107.434 23.8634 107.414 23.7998 107.448 23.8125C107.434 23.8507 107.434 23.8507 107.427 23.8507ZM107.716 5.645C107.716 5.60689 107.654 5.645 107.64 5.60689C107.682 5.60689 107.716 5.56877 107.737 5.53066C107.737 5.55607 107.723 5.59418 107.716 5.645ZM107.846 65.6106C107.867 65.5725 107.867 65.5344 107.881 65.4962C107.867 65.5344 107.874 65.5725 107.846 65.6106ZM108.018 30.8255C108.08 30.9271 108.032 30.8382 108.114 31.0668C108.046 31.0923 108.059 31.0796 107.998 30.8636C108.004 30.8255 108.004 30.8255 108.018 30.8255ZM108.334 49.9458C108.259 50.0221 108.121 49.9077 108.011 49.9458C108.121 49.9458 108.231 49.9077 108.334 49.9458ZM108.087 80.6528C108.094 80.6401 108.101 80.5766 108.135 80.6528C108.114 80.6528 108.094 80.6528 108.087 80.6528ZM108.211 66.4872C108.286 66.5634 108.362 66.6524 108.444 66.6905C108.362 66.6524 108.272 66.6015 108.211 66.4872ZM108.52 59.3853C108.533 59.3345 108.52 59.3472 108.54 59.4235C108.533 59.3853 108.533 59.3853 108.52 59.3853ZM108.554 30.5841C108.547 30.5841 108.527 30.5206 108.575 30.546C108.554 30.546 108.575 30.5841 108.554 30.5841ZM109.11 62.0406C109.09 62.0025 109.09 62.0025 109.069 61.9644C109.159 62.0025 109.2 61.9263 109.275 61.9644C109.214 62.0025 109.138 61.9644 109.11 62.0406ZM109.385 73.9448C109.392 73.9448 109.433 73.8686 109.475 73.9448C109.433 73.9448 109.433 73.9448 109.385 73.9448ZM109.571 51.9278C109.571 51.9278 109.571 51.9278 109.557 51.9278C109.571 51.9278 109.571 51.8896 109.571 51.8896V51.9278ZM110.045 45.423C110.045 45.4484 110.079 45.3722 110.079 45.4611C110.065 45.4611 110.052 45.423 110.045 45.423ZM110.065 25.7055L110.052 25.6674C110.086 25.6674 110.107 25.6293 110.127 25.6293C110.086 25.6674 110.107 25.6674 110.065 25.7055ZM110.217 49.9077C110.313 49.9458 110.429 49.9458 110.526 49.9077C110.416 49.9458 110.313 49.9077 110.217 49.9077ZM110.388 65.6995C110.574 65.6614 110.691 65.7757 110.862 65.8139C110.697 65.8139 110.533 65.7376 110.388 65.6995ZM111.81 21.6274C111.776 21.6274 111.755 21.5892 111.735 21.5892C111.769 21.5892 111.79 21.5892 111.824 21.5892L111.81 21.6274ZM112.271 56.0567C112.332 56.1711 112.401 56.2981 112.484 56.3744C112.339 56.3362 112.291 56.1711 112.271 56.0567ZM113.445 16.3041H113.432C113.432 16.3041 113.445 16.3041 113.452 16.266C113.452 16.3041 113.445 16.3041 113.445 16.3041ZM113.507 26.8616C113.507 26.8616 113.487 26.8616 113.493 26.8235C113.493 26.8616 113.507 26.8616 113.514 26.8616C113.507 26.8616 113.507 26.8616 113.507 26.8616ZM113.926 8.9736C113.926 8.9736 113.912 8.9736 113.906 8.9736C113.926 8.9736 113.926 8.9736 113.926 8.93549C113.926 8.9736 113.926 8.9736 113.926 8.9736ZM114.05 66.4872C114.064 66.4618 114.098 66.411 114.125 66.5634C114.125 66.5253 114.084 66.4872 114.05 66.4872ZM114.606 40.3539C114.627 40.3412 114.648 40.3031 114.73 40.392C114.689 40.3539 114.648 40.3539 114.606 40.3539ZM114.977 37.6859C114.943 37.6478 114.902 37.6478 114.867 37.6097C114.909 37.6097 114.943 37.6097 114.984 37.5716C114.984 37.6097 114.984 37.6478 114.977 37.6859ZM115.341 47.9258C115.341 47.9258 115.341 47.9258 115.328 47.9258C115.341 47.9258 115.341 47.9258 115.341 47.8877C115.341 47.9258 115.341 47.9258 115.341 47.9258ZM116.303 83.0667C116.289 83.0667 116.283 83.0667 116.283 83.0667C116.296 83.0158 116.31 82.9777 116.324 82.9269C116.317 82.9777 116.31 83.0285 116.303 83.0667ZM116.303 30.0378C116.283 29.9234 116.221 29.9615 116.186 29.8853C116.241 29.8853 116.296 29.8853 116.324 29.8853C116.303 29.9107 116.337 29.9488 116.303 30.0378ZM116.379 82.7363C116.406 82.7617 116.379 82.4568 116.509 82.5585C116.447 82.5966 116.413 82.6601 116.379 82.7363ZM117.004 48.1164C117.011 48.1037 117.004 48.0783 117.011 48.0656C116.997 48.0783 117.024 48.1164 117.004 48.1164ZM117.519 69.0662C117.629 69.1043 117.725 69.2314 117.828 69.2314C117.698 69.2314 117.601 69.1424 117.519 69.0662ZM117.959 29.7202C117.945 29.7202 117.945 29.7202 117.945 29.6821C117.959 29.7202 117.959 29.6821 117.959 29.6821C117.959 29.7202 117.959 29.7202 117.959 29.7202ZM118.426 66.8048C118.467 66.8048 118.501 66.8429 118.536 66.9192C118.419 66.7921 118.419 66.8175 118.426 66.8048ZM119.319 66.6015C119.23 66.6397 119.161 66.6778 119.065 66.7159C119.161 66.6396 119.058 66.7032 119.367 66.5634C119.353 66.6015 119.333 66.6015 119.319 66.6015ZM119.326 14.7034C119.381 14.6779 119.47 14.6398 119.662 14.6907C119.546 14.6525 119.436 14.6779 119.326 14.7034ZM119.642 9.04982C119.635 9.07523 119.69 8.9863 119.704 9.08794C119.683 9.08794 119.662 9.04982 119.642 9.04982ZM120.033 40.3031C120.143 40.1506 120.04 40.3031 120.404 39.6805C120.322 39.9092 120.294 40.2141 120.033 40.3031ZM120.501 38.9945C120.501 38.9691 120.507 38.9183 120.521 38.9945H120.501ZM120.789 9.92644C120.83 9.96455 120.851 10.0408 120.899 10.0916C120.858 10.0916 120.844 10.0916 120.81 10.1297C120.823 10.0408 120.789 10.0027 120.789 9.92644ZM120.851 20.5093C121.084 20.7507 121.277 20.5093 121.483 20.5475C121.249 20.5475 121.153 20.827 121.078 21.1446C121.043 20.954 121.057 20.7507 120.851 20.5093ZM121.579 39.3502C121.428 39.3883 121.27 39.4265 121.126 39.5154C121.263 39.401 121.421 39.3502 121.579 39.3502ZM121.435 83.2699C121.435 83.2699 121.421 83.2699 121.414 83.2699C121.435 83.2318 121.449 83.1937 121.455 83.1556C121.476 83.2318 121.4 83.2318 121.435 83.2699ZM121.579 53.6302C121.579 53.6302 121.579 53.6302 121.565 53.5921C121.586 53.5921 121.627 53.5158 121.579 53.6302ZM121.964 12.5817C121.957 12.569 121.95 12.5563 121.943 12.5436C121.957 12.5436 121.964 12.5436 121.964 12.5436C122.026 12.7977 121.964 12.5563 122.197 13.0645C122.026 12.9501 121.943 12.7977 121.964 12.5817ZM122.204 47.532C122.19 47.4939 122.204 47.4939 122.184 47.4557C122.204 47.4557 122.225 47.4557 122.245 47.4557C122.239 47.4939 122.218 47.4939 122.204 47.532ZM122.582 20.4712C122.582 20.4204 122.589 20.4585 122.561 20.4331C122.568 20.4331 122.568 20.4331 122.616 20.4331C122.603 20.4331 122.589 20.4331 122.582 20.4712ZM122.706 73.5509C122.706 73.5128 122.685 73.5128 122.671 73.5128C122.671 73.5128 122.788 73.4874 122.706 73.5509ZM122.829 21.4241C122.829 21.386 122.864 21.3478 122.85 21.3478C122.857 21.3478 122.85 21.3351 122.829 21.4241ZM123.084 38.3212C123.118 38.2068 123.09 38.0798 123.276 38.2449C123.2 38.3212 123.159 38.2449 123.084 38.3212ZM123.441 10.9174C123.441 10.9174 123.406 10.8793 123.4 10.8793C123.42 10.8793 123.441 10.8793 123.461 10.8793C123.461 10.8793 123.448 10.9174 123.441 10.9174ZM123.681 22.4531C123.688 22.4531 123.695 22.4404 123.695 22.4913C123.695 22.4913 123.695 22.4913 123.681 22.4531ZM123.901 36.3011C123.867 36.263 123.915 36.2249 123.901 36.136C123.935 36.1741 123.963 36.1741 123.997 36.2122C123.949 36.2249 123.977 36.3392 123.901 36.3011ZM124.08 71.442C124.08 71.4039 124.08 71.4039 124.08 71.4039L124.114 71.442H124.08ZM124.856 65.3819H124.87C124.856 65.3946 124.856 65.3946 124.863 65.4073C124.856 65.3946 124.856 65.3819 124.856 65.3819ZM124.883 65.5343C124.883 65.4708 124.87 65.4327 124.856 65.3946C124.87 65.42 124.925 65.4454 124.883 65.5343ZM125.261 83.1937C125.261 83.1556 125.241 83.1556 125.248 83.1175C125.248 83.1556 125.268 83.1556 125.268 83.1556C125.261 83.1429 125.261 83.1937 125.261 83.1937ZM125.776 40.1125C125.776 40.0744 125.776 40.0744 125.776 40.0744C125.776 40.0744 125.776 40.0744 125.79 40.0363C125.776 40.0744 125.776 40.0744 125.776 40.1125ZM125.976 69.1806C125.962 69.1424 125.976 69.1043 125.955 69.0662C125.969 69.0662 125.989 69.0662 125.996 69.0281C125.976 69.1043 126.003 69.1424 125.976 69.1806ZM126.051 55.3453C126.065 55.3453 126.038 55.3453 126.038 55.3453L126.051 55.3072V55.3453ZM126.965 39.0326C127.041 39.2359 127.171 39.3121 127.35 39.3883C127.116 39.401 126.979 39.274 126.965 39.0326ZM127.329 29.123C127.329 29.0849 127.308 29.0468 127.295 29.0087C127.295 29.0087 127.398 28.996 127.329 29.123ZM127.542 58.4325C127.542 58.3944 127.542 58.4325 127.556 58.3944C127.542 58.3817 127.597 58.4452 127.542 58.4325ZM128.037 13.8903C128.037 13.8522 128.023 13.8522 128.023 13.8522C128.044 13.8522 128.057 13.8522 128.078 13.8522C128.071 13.8522 128.05 13.8522 128.037 13.8903ZM128.325 86.2428C128.332 86.2174 128.346 86.1793 128.346 86.2428C128.339 86.2428 128.332 86.2428 128.325 86.2428ZM128.195 85.976C128.215 85.9633 128.236 85.9252 128.353 86.0141C128.305 85.976 128.243 85.9887 128.195 85.976ZM128.153 20.2298C128.202 20.2553 128.202 20.1663 128.346 20.3442C128.305 20.2807 128.222 20.2807 128.153 20.2298ZM130.015 19.0864C129.974 19.0864 129.926 19.0483 129.885 19.0102C129.926 19.0102 129.967 19.0483 130.015 19.0102C130.001 19.0483 130.022 19.0483 130.015 19.0864ZM177.107 36.2249C177.093 36.2249 177.087 36.263 177.087 36.263C177.087 36.2503 177.093 36.1995 177.066 36.2249C177.1 36.2249 177.142 36.1868 177.183 36.1868C177.162 36.2249 177.121 36.1868 177.094 36.2249C177.107 36.2249 177.093 36.2249 177.107 36.2249ZM176.997 33.5188C177.032 33.5188 177.032 33.5951 177.073 33.5569C177.052 33.5951 177.011 33.6332 176.977 33.6713C176.984 33.6459 177.032 33.5696 176.997 33.5188ZM170.114 27.8907C170.107 27.9288 170.128 27.9288 170.093 27.9288C170.1 27.9288 170.114 27.9288 170.114 27.8907ZM169.99 3.53604L170.004 3.57415C169.97 3.57415 169.942 3.57415 169.915 3.57415C169.928 3.53604 169.97 3.57416 169.99 3.53604ZM166.617 38.2068C166.631 38.2449 166.617 38.2449 166.631 38.283C166.597 38.2703 166.617 38.283 166.617 38.2068ZM166.521 24.4859C166.5 24.4478 166.466 24.4478 166.439 24.4478C166.514 24.4732 166.487 24.4732 166.521 24.4859ZM164.419 37.9273C164.439 37.9654 164.433 38.0035 164.453 38.0417C164.453 38.0417 164.412 38.0035 164.391 38.0035C164.419 37.9654 164.398 37.9654 164.419 37.9273ZM162.262 46.2996H162.275L162.262 46.3377C162.262 46.2996 162.262 46.2996 162.262 46.2996ZM161.65 62.9934C161.664 62.9172 161.671 62.8791 161.692 62.7521C161.843 63.1459 162.056 63.0697 162.227 63.2729C162.001 63.1586 161.767 62.9934 161.65 62.9934ZM162.056 85.6457C162.056 85.6457 162.069 85.6457 162.056 85.6838C162.062 85.6965 162.035 85.5568 162.056 85.6457ZM161.822 1.7447C161.843 1.7447 161.863 1.7447 161.898 1.7447C161.877 1.78281 161.822 1.78281 161.801 1.82092C161.801 1.79552 161.822 1.79552 161.822 1.7447ZM161.705 45.423C161.492 45.5882 161.664 45.423 161.204 45.7406C161.279 45.5374 161.231 45.7406 161.705 45.423ZM157.487 36.5044C157.487 36.5298 157.48 36.5425 157.48 36.5806C157.48 36.5552 157.48 36.5425 157.473 36.5044H157.487ZM157.508 36.7712C157.473 36.7077 157.487 36.7204 157.48 36.5806C157.48 36.6187 157.487 36.6696 157.508 36.7712ZM154.787 54.3543C154.732 54.4306 154.787 54.3543 154.602 54.4687C154.623 54.3924 154.588 54.456 154.787 54.3543ZM153.798 24.2445C153.798 24.2445 153.812 24.2445 153.819 24.2826C153.805 24.2826 153.798 24.2826 153.784 24.2826C153.798 24.2445 153.791 24.2445 153.798 24.2445ZM152.994 2.3037C152.994 2.3037 153.036 2.3037 153.07 2.3037C153.049 2.34181 153.015 2.3037 152.994 2.34181C152.994 2.3037 152.994 2.3037 152.994 2.3037ZM149.635 22.3007C149.635 22.3515 149.642 22.3388 149.615 22.3007C149.628 22.3007 149.628 22.3007 149.635 22.3007ZM149.594 18.5655C149.573 18.5655 149.594 18.5655 149.539 18.5655C149.601 18.4766 149.532 18.3496 149.594 18.5655ZM145.541 16.7488C145.575 16.7869 145.582 16.825 145.603 16.8631C145.541 16.9013 145.445 16.9394 145.355 16.9775C145.424 16.8631 145.479 16.9013 145.541 16.7488ZM142.752 19.2897C142.745 19.3024 142.758 19.3532 142.71 19.3278C142.731 19.3278 142.745 19.2897 142.752 19.2897ZM133.519 43.5554L133.532 43.5936C133.505 43.5809 133.484 43.5681 133.457 43.5681C133.477 43.5681 133.498 43.5809 133.519 43.5554ZM131.011 83.9433C131.032 83.9814 131.039 83.9433 131.046 84.1465C131.018 84.0576 131.039 83.9814 131.011 83.9433ZM131.526 63.3111C131.506 63.3111 131.396 63.3111 131.547 63.2729C131.533 63.3111 131.526 63.3111 131.526 63.3111ZM131.671 59.7792C131.684 59.7284 131.678 59.7284 131.726 59.7792C131.698 59.7792 131.698 59.7792 131.671 59.7792ZM132.296 72.8776C132.282 72.8776 132.275 72.8776 132.275 72.8776C132.289 72.8395 132.296 72.8395 132.316 72.8395C132.31 72.8776 132.296 72.8395 132.296 72.8776ZM132.509 13.7251C132.426 13.6489 132.502 13.7886 132.262 13.6108C132.42 13.6489 132.474 13.6489 132.516 13.6489C132.509 13.687 132.523 13.687 132.509 13.7251ZM132.653 48.9168C132.667 48.8787 132.674 48.8787 132.674 48.8405C132.694 48.8787 132.736 48.8787 132.749 48.9168C132.715 48.9168 132.681 48.9168 132.653 48.9168ZM133.23 46.7316C133.175 46.7697 133.168 46.6427 133.017 46.8459C133.347 46.3123 133.017 46.7316 134.048 46.5283C133.787 46.7316 133.505 46.7697 133.23 46.7316ZM133.917 6.71219C133.938 6.71219 133.938 6.58514 134.048 6.67407C134 6.71218 133.945 6.67407 133.917 6.71219ZM134.357 44.6734C134.357 44.6353 134.357 44.6353 134.357 44.5972C134.371 44.6353 134.391 44.5972 134.391 44.5972C134.377 44.6353 134.377 44.6353 134.357 44.6734ZM134.975 85.5313C134.961 85.5313 134.961 85.5313 134.961 85.5313C134.975 85.5313 134.982 85.4932 134.996 85.4932L134.975 85.5313ZM134.879 73.7923C134.879 73.7542 134.92 73.7542 134.92 73.678C134.954 73.7161 134.975 73.678 135.003 73.678C134.968 73.7034 134.927 73.7415 134.879 73.7923ZM134.989 17.4603C134.996 17.4475 135.009 17.3967 135.044 17.4603C135.016 17.4603 135.003 17.4603 134.989 17.4603ZM135.532 51.8515C135.532 51.8515 135.532 51.8134 135.532 51.7753C135.552 51.8134 135.586 51.8134 135.607 51.8515C135.586 51.8515 135.559 51.8515 135.532 51.8515ZM136.136 75.139C136.136 74.8595 136.033 74.8087 136.425 74.9866C136.308 74.9738 136.198 75.012 136.136 75.139ZM136.61 40.9002C136.644 40.9383 136.672 40.7096 136.823 40.8621C136.706 40.824 136.713 40.9002 136.61 40.9002ZM137.022 82.0376C136.988 81.9995 136.988 81.9614 136.96 81.9232C137.002 81.9614 137.002 81.9995 137.036 82.0376H137.022ZM137.146 23.3298C137.139 23.3425 137.228 23.19 137.208 23.3679C137.187 23.3298 137.153 23.3298 137.146 23.3298ZM137.414 18.4512C137.4 18.4131 137.4 18.4131 137.393 18.375C137.414 18.375 137.428 18.4131 137.448 18.4131C137.441 18.4131 137.421 18.4131 137.414 18.4512ZM137.915 40.5445C137.929 40.5445 137.915 40.5445 137.957 40.5445C137.97 40.5699 137.963 40.5572 137.915 40.5445ZM138.932 62.2058C138.932 62.1931 138.939 62.2439 138.911 62.2439C138.925 62.2058 138.932 62.2058 138.932 62.2058ZM138.925 77.9086C138.911 77.8705 138.925 77.8324 138.925 77.7943C139.001 77.8324 139.063 77.7943 139.131 77.7561C139.076 77.7943 139.076 77.9086 138.925 77.9086ZM139.296 74.8595H139.282L139.296 74.8214C139.296 74.8595 139.296 74.8595 139.296 74.8595ZM139.461 27.103C139.571 27.2174 139.729 27.2555 139.887 27.3063C139.715 27.2936 139.557 27.2555 139.461 27.103ZM140.986 64.7467C141.034 64.7213 141.055 64.7721 141.082 64.7975C141.048 64.7848 141.014 64.7721 140.986 64.7467ZM141.144 64.8229C141.13 64.8102 141.117 64.8102 141.103 64.7975C141.117 64.7975 141.13 64.7975 141.144 64.7721C141.144 64.8229 141.144 64.8229 141.144 64.8229ZM141.165 70.0953C141.178 70.1207 141.165 69.9937 141.185 70.0953C141.185 70.0953 141.178 70.0953 141.165 70.0953ZM141.206 34.6749C141.192 34.6368 141.185 34.6368 141.185 34.5987C141.22 34.7131 141.295 34.6368 141.323 34.7131C141.295 34.7131 141.254 34.6749 141.206 34.6749ZM141.336 19.9631C141.144 20.0012 141.288 19.9631 140.917 20.1663C140.986 20.0393 140.972 20.1536 141.336 19.9249C141.336 19.9631 141.336 19.9631 141.336 19.9631ZM142.236 59.4235C142.209 59.3599 142.236 59.4235 142.216 59.2202C142.236 59.2202 142.257 59.2202 142.278 59.2202C142.25 59.271 142.23 59.3472 142.236 59.4235ZM142.23 30.5968C142.312 30.5714 142.319 30.4443 142.813 30.7111C142.642 30.5968 142.436 30.6222 142.23 30.5968ZM143.226 2.0242C143.184 1.98608 143.136 2.0242 143.109 1.98608C143.219 1.94797 143.336 1.98608 143.439 1.98608C143.363 1.98608 143.287 1.98608 143.226 2.0242ZM143.494 82.1519C143.48 82.0757 143.528 82.0757 143.507 82.0376C143.542 82.0376 143.528 82.0757 143.562 82.0757C143.535 82.0757 143.514 82.1138 143.494 82.1519ZM143.761 38.6007C143.81 38.6007 143.851 38.499 143.919 38.6388C143.865 38.6388 143.823 38.6007 143.761 38.6007ZM144.476 58.2419C144.998 57.8354 144.51 58.1657 145.719 57.5305C145.417 57.7973 145.719 57.4924 144.593 58.2038C144.655 58.2038 144.689 58.2038 144.744 58.2419C144.696 58.2419 144.545 58.2419 144.476 58.2419ZM145.541 54.8244C145.445 54.9006 145.355 54.9896 145.232 54.9896C145.314 54.8625 145.431 54.8625 145.541 54.8244ZM145.479 47.4939C145.486 47.4303 145.465 47.2906 145.52 47.4557C145.486 47.443 145.5 47.4939 145.479 47.4939ZM145.919 78.493C145.864 78.5947 145.816 78.709 145.692 78.7471C145.761 78.6836 145.712 78.7217 145.919 78.493C145.925 78.4803 145.939 78.4803 145.946 78.4676C145.932 78.4803 145.932 78.4803 145.919 78.493ZM145.822 21.5003C145.609 21.5384 145.767 21.8179 145.135 21.7036C145.39 21.6146 145.115 21.7925 145.747 21.5003C145.953 21.4622 145.802 21.4622 146.166 21.5003C146.056 21.4749 145.939 21.4876 145.822 21.5003ZM146.262 19.4803C146.283 19.4295 146.262 19.3405 146.324 19.4803C146.303 19.4803 146.283 19.4803 146.262 19.4803ZM146.482 80.2081C146.448 80.1954 146.482 80.2081 146.372 80.17C146.399 80.1827 146.413 80.1319 146.489 80.2081H146.482ZM146.475 39.7187C146.496 39.6805 146.489 39.6424 146.489 39.6424C146.523 39.6424 146.564 39.6805 146.585 39.6805C146.537 39.7187 146.53 39.6678 146.475 39.7187ZM146.626 80.3352C146.612 80.2971 146.612 80.2971 146.592 80.2971H146.633C146.633 80.2971 146.626 80.2971 146.626 80.3352ZM146.977 37.1396C146.99 37.1396 146.977 37.1015 146.99 37.0634C147.004 37.1015 147.011 37.1396 147.025 37.1777C146.997 37.1777 146.99 37.1396 146.977 37.1396ZM146.901 28.4116C146.935 28.6911 147.128 28.8054 147.244 29.0087C146.97 28.9579 146.805 28.8054 146.901 28.4116ZM147.801 32.6549C147.815 32.6549 147.808 32.6549 147.835 32.6803C147.828 32.6676 147.822 32.6549 147.801 32.6549ZM147.89 22.9359C147.89 22.8978 147.883 22.8978 147.87 22.8724C147.904 22.8851 148.089 22.8851 147.89 22.9359ZM148.158 11.235C148.158 11.2731 148.22 11.0571 148.241 11.235C148.213 11.1969 148.199 11.235 148.158 11.235ZM148.35 18.2479C148.33 18.2098 148.364 18.1717 148.364 18.1336C148.364 18.1717 148.35 18.2098 148.35 18.2479ZM148.44 78.6709C148.454 78.6709 148.447 78.6582 148.454 78.709C148.44 78.709 148.447 78.6709 148.44 78.6709ZM148.66 37.3302C148.66 37.2921 148.639 37.2159 148.625 37.165C148.701 37.2032 148.756 37.165 148.818 37.165C148.77 37.2159 148.715 37.254 148.66 37.3302ZM148.598 29.7202C148.735 29.6439 148.886 29.7202 149.051 29.6439C148.886 29.7202 148.749 29.682 148.598 29.7202ZM149.415 55.3072C149.443 55.358 149.546 54.8244 149.642 55.3072C149.573 55.3072 149.491 55.3072 149.415 55.3072ZM149.759 51.102C149.745 51.102 149.724 51.1147 149.711 51.1274C149.731 51.0893 149.752 51.013 149.903 51.0638C149.827 51.0638 149.807 51.102 149.759 51.102ZM150.061 36.5806C149.827 36.7712 149.546 36.7331 149.264 36.695C149.415 36.695 149.511 36.5171 150.061 36.5806C150.075 36.5679 150.089 36.5679 150.102 36.5552C150.164 36.5679 150.226 36.5806 150.281 36.6187C150.198 36.606 150.13 36.5933 150.061 36.5806ZM150.892 79.4586C150.906 79.4713 150.913 79.4332 150.927 79.4967C150.913 79.4967 150.906 79.4586 150.892 79.4586ZM151.696 37.5335C151.696 37.4572 151.696 37.4191 151.696 37.3302C151.717 37.4064 151.71 37.4572 151.696 37.5335ZM151.772 80.0557C151.82 80.0684 151.799 80.0557 151.854 80.17C151.847 80.0938 151.772 80.1319 151.772 80.0557ZM151.833 44.7116C151.888 44.7116 151.875 44.6353 151.943 44.5972C151.888 44.8005 152.019 44.7624 152.005 44.9148C151.943 44.8259 151.882 44.7497 151.833 44.7116ZM152.191 62.4853C152.191 62.4471 152.204 62.4471 152.204 62.4471C152.191 62.4853 152.225 62.4853 152.218 62.5234C152.204 62.4853 152.191 62.4853 152.191 62.4853ZM152.445 75.7361C152.445 75.6726 152.424 75.6853 152.5 75.7361C152.479 75.7361 152.472 75.7361 152.445 75.7361ZM152.981 25.2355C153.043 25.2736 153.091 25.3117 153.187 25.1973C153.125 25.3117 153.049 25.3498 152.981 25.2355ZM153.4 2.22747C153.496 2.3164 153.482 2.29099 153.558 2.34181C153.51 2.3164 153.441 2.27829 153.331 2.26559C153.352 2.22747 153.379 2.26558 153.4 2.22747ZM153.523 51.8896C153.503 51.8896 153.482 51.8896 153.468 51.8896C153.468 51.8896 153.482 51.8515 153.468 51.8515C153.489 51.8515 153.496 51.8515 153.523 51.8896ZM153.475 24.2826C153.475 24.2445 153.475 24.2826 153.489 24.2445C153.468 24.2318 153.551 24.2953 153.475 24.2826ZM153.379 76.2062C153.393 76.1681 153.393 76.2062 153.4 76.1681C153.393 76.1554 153.427 76.2189 153.379 76.2062ZM153.413 87.6657C153.393 87.6276 153.359 87.6276 153.338 87.6276C153.379 87.6276 153.448 87.5895 153.496 87.6276C153.475 87.6657 153.434 87.6276 153.413 87.6657ZM153.489 57.6829C153.489 57.6829 153.475 57.6829 153.468 57.6829C153.475 57.6829 153.482 57.6067 153.51 57.6829C153.51 57.6829 153.496 57.6829 153.489 57.6829ZM153.51 54.7863C153.523 54.7863 153.53 54.7863 153.53 54.7863C153.517 54.8625 153.571 54.8625 153.592 54.9387C153.496 54.9006 153.455 54.8625 153.51 54.7863ZM153.86 25.1592C153.75 25.1211 153.647 25.083 153.537 25.1211C153.75 25.0449 153.963 25.0068 154.135 25.1592C154.025 25.0703 153.949 25.1973 153.86 25.1592ZM154.252 80.0176C154.272 79.8524 154.265 79.9921 154.197 79.7381C154.293 79.6618 154.19 79.7762 154.293 80.0176C154.293 80.0176 154.258 80.0176 154.252 80.0176ZM154.671 55.8535C154.684 55.9678 154.787 55.9678 154.863 56.0567C154.753 56.0567 154.712 56.0567 154.458 56.0949C154.574 56.0186 154.595 55.9424 154.671 55.8535ZM154.753 82.1138C154.753 82.1519 154.719 82.1519 154.719 82.19C154.698 82.1519 154.705 82.1519 154.698 82.1138C154.719 82.1138 154.732 82.1519 154.753 82.1138ZM154.698 84.2609C154.746 84.2482 154.932 84.2863 154.98 84.5023C154.904 84.3752 154.794 84.3371 154.698 84.2609ZM155.213 64.1114C155.241 64.1241 155.227 64.1114 155.268 64.1877C155.248 64.1496 155.234 64.1496 155.213 64.1114ZM156.457 16.8631C156.498 16.8758 156.498 16.825 156.539 16.9775C156.347 16.7869 156.505 16.8885 156.038 16.8631C156.189 16.7996 156.34 16.7488 156.457 16.8631ZM156.505 49.984C156.436 49.9967 156.464 49.9967 156.381 50.0348C156.402 50.0221 156.436 50.0094 156.505 49.9458C156.505 49.984 156.505 49.984 156.505 49.984ZM156.574 29.1993C156.58 29.1612 156.519 29.1612 156.594 29.1612C156.601 29.1612 156.587 29.1993 156.574 29.1993ZM156.471 23.1773C156.374 23.1392 156.278 23.1011 156.175 23.0757C156.141 23.0884 156.113 23.0757 156.072 23.0884C156.429 22.9994 156.354 22.9994 156.471 23.1773C156.67 23.2662 156.835 23.3933 156.945 23.6093C156.656 23.406 156.532 23.2662 156.471 23.1773ZM157.24 11.5907C157.212 11.578 157.185 11.5653 157.157 11.5526C157.137 11.5653 157.309 11.5145 157.24 11.5907ZM157.309 47.6082C157.309 47.6082 157.295 47.5701 157.295 47.532C157.309 47.5701 157.295 47.5701 157.315 47.6082C157.309 47.6082 157.315 47.6082 157.309 47.6082ZM157.35 58.839C157.35 58.839 157.336 58.839 157.329 58.839C157.35 58.8009 157.364 58.8009 157.37 58.7628C157.377 58.8136 157.419 58.7755 157.35 58.839ZM157.405 53.0076H157.384C157.364 53.0331 157.446 52.906 157.405 53.0076ZM157.37 43.6825C157.384 43.6952 157.391 43.4665 157.522 43.5173C157.522 43.6444 157.542 43.5554 157.37 43.6825ZM158.291 66.5634C158.353 66.5634 158.408 66.6015 158.483 66.6015C158.408 66.6524 158.36 66.5634 158.291 66.5634ZM158.648 11.235C158.648 11.235 158.634 11.1969 158.628 11.1969C158.641 11.1969 158.648 11.1969 158.662 11.1969L158.648 11.235ZM158.751 64.6196C158.751 64.6704 158.834 64.4926 158.847 64.6577C158.82 64.6577 158.786 64.6196 158.751 64.6196ZM159.129 44.1144C159.143 44.0763 159.129 44.0763 159.129 44.0763C159.15 44.0763 159.17 44.0763 159.191 44.0763C159.17 44.0763 159.163 44.0763 159.129 44.1144ZM159.802 87.1575C159.789 87.1194 159.802 87.1194 159.789 87.0813C159.823 87.1194 159.789 87.1194 159.823 87.1575C159.823 87.1575 159.816 87.1575 159.802 87.1575ZM159.61 23.8507C159.672 23.7744 159.61 23.8379 159.864 23.7744C159.795 23.8507 159.686 23.7617 159.61 23.8507ZM159.988 74.2624C159.967 74.2624 159.947 74.3005 159.926 74.3005C159.94 74.2624 159.981 74.2624 159.988 74.2243C159.988 74.2624 159.988 74.2624 159.988 74.2624ZM160.043 74.8595C160.063 74.8722 159.981 74.8087 160.057 74.8214L160.043 74.8595ZM160.318 44.3177H160.304C160.318 44.3177 160.318 44.3177 160.318 44.2796C160.318 44.3177 160.318 44.3177 160.318 44.3177ZM160.386 86.8399C160.393 86.8145 160.373 86.8145 160.448 86.8018C160.427 86.8399 160.407 86.8399 160.386 86.8399ZM160.874 78.7344C160.874 78.6963 160.874 78.6582 160.867 78.6328C160.881 78.6328 160.902 78.6328 160.902 78.6328C160.888 78.6582 160.881 78.6963 160.874 78.7344ZM161.135 73.6526C161.128 73.6399 161.114 73.6399 161.108 73.6272C161.121 73.6272 161.121 73.6272 161.121 73.6272C161.211 73.7415 161.128 73.6399 161.334 73.8304C161.231 73.7923 161.176 73.7288 161.135 73.6526ZM161.65 71.2133C161.65 71.2133 161.65 71.2133 161.637 71.1752C161.698 71.2514 161.767 71.2133 161.829 71.2514C161.767 71.2514 161.712 71.2133 161.65 71.2133ZM161.904 87.1194C162.062 87.1956 162.282 87.1575 162.42 87.3227C162.241 87.2719 162.069 87.2338 161.904 87.1194ZM162.475 5.83557C162.53 5.83557 162.571 5.83557 162.612 5.83557C162.578 5.9118 162.633 6.00073 162.633 6.07696C162.591 6.00073 162.509 5.9118 162.475 5.83557ZM162.784 12.8612H162.804C162.798 12.8612 162.798 12.8993 162.784 12.8612ZM162.818 12.8612C162.818 12.8231 162.777 12.8231 162.763 12.785C162.784 12.785 162.818 12.8231 162.846 12.8231C162.832 12.8231 162.832 12.8612 162.818 12.8612ZM163.175 77.4385C163.162 77.3115 163.052 77.0828 163.313 77.2861C163.258 77.3115 163.223 77.4004 163.175 77.4385ZM163.615 71.7977H163.581L163.615 71.7596V71.7977ZM163.869 15.4021C163.965 15.4783 163.931 15.1861 164.199 15.364C164.082 15.4021 164 15.4402 163.869 15.4021ZM164.137 77.1971C164.309 77.3115 164.467 77.2734 164.652 77.1209C164.46 77.2734 164.226 77.3623 164.137 77.1971ZM164.419 10.5617C164.46 10.5236 164.515 10.4854 164.536 10.3965C164.57 10.4727 164.625 10.4346 164.652 10.5109C164.522 10.4727 164.522 10.5617 164.419 10.5617ZM165.051 83.1048C165.051 83.1048 165.051 83.1048 165.037 83.1048C165.154 82.8634 165.071 82.7109 165.051 82.5458C165.133 82.7109 165.147 82.8761 165.051 83.1048ZM165.298 63.1205C165.305 63.1586 165.394 63.0061 165.387 63.1586C165.346 63.1205 165.326 63.1586 165.298 63.1205ZM165.36 55.6629C165.367 55.6502 165.387 55.5867 165.381 55.6629H165.36ZM165.552 46.2615C165.532 46.2234 165.497 46.2234 165.463 46.2234C165.497 46.2234 165.518 46.2234 165.559 46.2234C165.566 46.2234 165.552 46.2234 165.552 46.2615ZM165.587 46.4902C165.587 46.4775 165.587 46.4521 165.58 46.4394C165.587 46.4648 165.587 46.4775 165.607 46.4902C165.607 46.4902 165.594 46.4902 165.587 46.4902ZM165.717 54.5068C165.697 54.4687 165.662 54.4687 165.642 54.4306C165.662 54.4306 165.697 54.4306 165.724 54.4306C165.717 54.4687 165.724 54.4687 165.717 54.5068ZM165.621 51.5339C165.587 50.8987 165.806 50.7843 165.91 50.4286C165.82 50.7843 165.758 51.1782 165.621 51.5339ZM165.841 47.2144C165.841 47.1762 165.841 47.1381 165.841 47.1C166.095 47.2017 165.944 47.0746 166.397 47.3795C166.308 47.4049 166.301 47.1508 165.841 47.2144ZM166.329 59.5505C166.377 59.5378 166.432 59.4743 166.727 59.6648C166.576 59.703 166.445 59.6394 166.329 59.5505ZM167.064 22.1355C167.064 22.1355 167.043 22.1355 167.029 22.1355C167.036 22.1228 167.091 21.9831 167.064 22.1355ZM167.345 31.5369C167.359 31.4988 167.345 31.4988 167.366 31.4607C167.38 31.4988 167.387 31.4988 167.407 31.4988C167.38 31.4988 167.38 31.5369 167.345 31.5369ZM167.448 24.524C167.483 24.524 167.462 24.4097 167.51 24.4097C167.483 24.4351 167.462 24.4859 167.448 24.524ZM167.558 86.0395C167.565 86.0268 167.545 86.0522 167.545 85.9633C167.565 86.0014 167.545 86.0014 167.565 86.0395C167.558 86.0395 167.558 86.0395 167.558 86.0395ZM167.806 57.6067C167.819 57.6067 167.819 57.6067 167.819 57.5686C167.84 57.6067 167.861 57.5686 167.881 57.6067C167.861 57.6067 167.826 57.6067 167.806 57.6067ZM167.84 51.4577V51.4196C167.895 51.445 167.95 51.445 168.012 51.445C167.95 51.445 167.895 51.4323 167.84 51.4577ZM168.602 48.2053C168.582 48.2053 168.582 48.1672 168.568 48.1672C168.548 48.1672 168.637 48.1418 168.602 48.2053ZM169.09 69.8539C169.09 69.892 169.09 69.8539 169.076 69.8539C169.083 69.8539 169.111 69.7777 169.09 69.8539ZM169.18 19.3659C169.2 19.4041 169.214 19.4041 169.234 19.4041C169.214 19.4041 169.2 19.4041 169.18 19.4041C169.18 19.4041 169.18 19.4041 169.18 19.3659ZM169.186 44.5464C169.221 44.5083 169.248 44.3939 169.283 44.305C169.317 44.4321 169.283 44.5083 169.186 44.5464ZM169.392 72.2805C169.392 72.2424 169.392 72.2424 169.392 72.2042C169.482 72.2805 169.551 72.2042 169.626 72.2042C169.551 72.2424 169.468 72.2424 169.392 72.2805ZM169.64 47.0111C169.64 47.0238 169.619 46.973 169.64 46.973C169.626 46.973 169.647 47.0111 169.64 47.0111ZM169.626 2.43074C169.605 2.43074 169.667 2.21477 169.702 2.43074C169.681 2.43074 169.66 2.43074 169.626 2.43074ZM169.812 32.5787C169.873 32.5787 169.928 32.4644 169.983 32.5406C169.942 32.4771 169.963 32.8328 169.812 32.5787ZM169.908 79.7762C169.942 79.7381 169.949 79.6618 169.997 79.6237C169.97 79.7 169.97 79.7762 169.908 79.7762ZM169.942 40.5063H169.976C169.963 40.5445 169.976 40.5445 169.976 40.5445C169.963 40.5445 169.949 40.5445 169.942 40.5063ZM169.908 35.3102C169.908 35.2721 169.908 35.2721 169.908 35.2339C169.949 35.2721 169.997 35.3483 170.038 35.3991C169.983 35.3483 169.963 35.2721 169.908 35.3102ZM170.086 31.1431L170.1 31.105C170.114 31.1431 170.121 31.105 170.134 31.1431C170.134 31.1431 170.114 31.1431 170.086 31.1431ZM170.286 14.9956V14.9575C170.286 14.9956 170.286 14.9956 170.299 14.9956C170.286 14.9956 170.286 14.9956 170.286 14.9956ZM170.402 62.841C170.402 62.841 170.423 62.841 170.437 62.8029C170.437 62.841 170.45 62.841 170.45 62.841H170.402ZM170.519 14.4112C170.54 14.3349 170.553 14.3349 170.574 14.246C170.595 14.2841 170.56 14.3222 170.595 14.3603C170.56 14.3603 170.553 14.4112 170.519 14.4112ZM170.904 47.4939H170.89C170.924 47.4939 170.952 47.4557 170.986 47.4557C170.959 47.443 170.924 47.4939 170.904 47.4939ZM171.68 17.3459C171.68 17.3205 171.694 17.2697 171.694 17.3459C171.687 17.3459 171.687 17.3459 171.68 17.3459ZM171.879 47.2525C171.866 47.2525 171.859 47.2525 171.845 47.2525C171.866 47.2144 171.859 47.1762 171.879 47.1381C171.879 47.1381 171.893 47.1762 171.9 47.1762C171.893 47.1762 171.9 47.2144 171.879 47.2525ZM172.12 38.1306C172.154 38.1306 172.175 38.1306 172.182 38.1306C172.161 38.1306 172.161 38.1687 172.147 38.2068C172.147 38.1687 172.12 38.1306 172.12 38.1306ZM172.175 88.5931C172.209 88.5677 172.237 88.5423 172.264 88.5042C172.271 88.5931 172.285 88.5296 172.175 88.5931ZM172.278 55.4977C172.264 55.4596 172.305 55.485 172.257 55.3834C172.298 55.4215 172.264 55.4215 172.367 55.4596C172.333 55.4596 172.312 55.4596 172.278 55.4977ZM172.36 31.0668H172.346C172.346 31.0668 172.36 31.0668 172.36 31.0287C172.36 31.0668 172.36 31.0668 172.36 31.0668ZM173.267 77.0828C173.267 76.8287 173.26 77.0701 173.281 76.4857C173.295 76.6636 173.253 76.4984 173.301 77.0828C173.274 77.0828 173.267 77.0828 173.267 77.0828ZM173.295 75.6091C173.281 75.5201 173.288 75.5074 173.356 75.6091C173.343 75.6091 173.315 75.6091 173.295 75.6091ZM174.153 10.7904C174.304 10.8158 174.208 10.7649 174.291 11.0699C174.243 10.9936 174.208 10.8793 174.153 10.7904ZM175.163 74.1099C175.177 74.1099 175.163 74.0718 175.177 74.0337C175.191 74.0718 175.177 74.0718 175.197 74.1099C175.184 74.1099 175.17 74.1099 175.163 74.1099ZM175.623 49.7172C175.603 49.7045 175.589 49.6917 175.534 49.679C175.548 49.679 175.568 49.679 175.568 49.679C175.589 49.6917 175.61 49.7045 175.623 49.7172C175.651 49.7299 175.706 49.7553 175.912 49.8188C175.864 49.8188 175.857 49.895 175.623 49.7172ZM175.946 71.442C175.967 71.4801 175.987 71.442 175.987 71.442C175.974 71.5182 175.946 71.5563 175.926 71.6071C175.912 71.569 175.967 71.5309 175.946 71.442ZM175.946 78.4295C175.967 78.4295 176.056 78.3914 176.077 78.4295C176.022 78.4295 175.994 78.4295 175.946 78.4295ZM175.981 48.5992C176.042 48.561 176.09 48.4848 176.152 48.5229C176.084 48.5229 176.042 48.561 175.981 48.5992ZM176.352 53.0076C176.365 53.0076 176.352 53.0076 176.386 52.9695C176.379 52.9822 176.441 53.1855 176.352 53.0076ZM177.32 44.9911C177.334 44.9657 177.265 44.9148 177.32 44.8767C177.306 44.9148 177.327 44.9529 177.32 44.9911ZM176.75 40.2268C176.963 40.0236 177.21 40.0617 177.458 40.1125C177.224 40.0744 176.984 40.1125 176.75 40.2268Z" fill="#DB2A2A"/>
<path fill-rule="evenodd" clip-rule="evenodd" d="M302.941 86.5224H302.955C302.899 86.4207 302.872 86.3699 302.851 86.3318C302.906 86.4588 302.892 86.4207 302.941 86.5224Z" fill="#DB2A2A"/>
<path fill-rule="evenodd" clip-rule="evenodd" d="M302.803 86.2047C302.817 86.2304 302.817 86.2433 302.831 86.269C302.824 86.2561 302.824 86.2304 302.817 86.2047H302.803Z" fill="#DB2A2A"/>
<path fill-rule="evenodd" clip-rule="evenodd" d="M290.63 2.25282C290.389 2.30364 288.665 1.33809 288.706 2.58314C289.311 2.31635 289.977 3.06592 290.63 2.25282Z" fill="#DB2A2A"/>
<path fill-rule="evenodd" clip-rule="evenodd" d="M24.0288 25.9088C25.0249 25.8707 26.0142 25.8326 26.9965 25.7945C26.021 25.2355 25.0249 25.7056 24.0288 25.9088Z" fill="#DB2A2A"/>
<path fill-rule="evenodd" clip-rule="evenodd" d="M199.489 2.86265C199.145 2.82453 199.035 3.10403 198.891 3.33271C198.905 3.20567 199.406 3.51058 199.489 2.86265Z" fill="#DB2A2A"/>
</svg>
