<svg width="588" height="87" viewBox="0 0 588 87" fill="none" xmlns="http://www.w3.org/2000/svg">
<g clip-path="url(#clip0_104_473)">
<path fill-rule="evenodd" clip-rule="evenodd" d="M60.461 66.762C60.4486 66.7451 60.3991 66.7366 60.3619 66.7197C60.3248 66.7197 60.3 66.7197 60.2629 66.7113C60.3248 66.7282 60.4114 66.7366 60.461 66.762Z" fill="#DB2A2A"/>
<path fill-rule="evenodd" clip-rule="evenodd" d="M16.8871 64.9375C17.1223 64.9375 17.3698 64.9375 17.6422 64.9375C17.4689 64.929 17.308 64.929 17.1346 64.9206C17.048 64.929 16.9613 64.9375 16.8871 64.9375Z" fill="#DB2A2A"/>
<path fill-rule="evenodd" clip-rule="evenodd" d="M16.8871 64.9375C13.6562 64.9459 14.9064 64.9375 13.4952 65.0135C16.8376 64.9037 16.1938 64.9966 16.8871 64.9375Z" fill="#DB2A2A"/>
<path fill-rule="evenodd" clip-rule="evenodd" d="M21.6034 42.2837C21.2692 42.3175 20.9226 42.3597 20.5512 42.4442C20.9226 42.3935 21.2568 42.3344 21.6034 42.2837Z" fill="#DB2A2A"/>
<path fill-rule="evenodd" clip-rule="evenodd" d="M557.451 64.9121C557.699 64.9375 557.934 64.9375 558.07 64.9882C558.095 64.9628 558.119 64.9375 558.144 64.9121C557.847 64.9882 557.699 64.8868 557.451 64.9121Z" fill="#DB2A2A"/>
<path fill-rule="evenodd" clip-rule="evenodd" d="M572.776 60.6128C572.132 60.4861 565.943 57.9015 549.566 55.4688C572.021 52.6646 541.309 48.323 550.742 46.0762C555.693 44.4545 570.412 46.8111 560.583 39.7244C563.69 40.569 577.072 37.5705 561.957 34.6564C549.702 31.5481 575.982 32.2491 544.763 21.7584C547.226 21.9189 545.555 22.1554 549.318 20.6773C546.174 20.0522 548.736 17.949 541.668 20.3648C542.534 20.5506 543.735 20.2549 544.428 20.6773C537.929 22.4173 536.295 17.5267 529.252 18.8021C528.682 17.9321 529.264 18.7515 525.773 18.4558C525.773 18.4558 525.773 18.4558 525.749 18.4558C523.632 17.5182 525.885 18.9373 497.859 15.8965C498.23 15.6853 499.022 15.9472 499.369 15.6093C489.367 15.508 379.244 16.0654 335.224 14.0551C314.192 11.3353 262.931 14.3339 225.769 12.898C200.789 14.1312 83.7581 7.93135 28.3128 17.9068C32.4969 18.6416 31.259 17.1382 53.5164 16.4286C51.053 17.1973 45.1111 16.1499 18.3849 21.8851C22.0986 21.8514 16.5033 21.6148 32.8188 21.1756C29.3155 21.75 25.9856 22.2906 19.3876 23.9968C15.8844 23.642 13.8047 24.5796 4.27292 24.8161C6.19166 25.1878 8.46939 24.5036 9.9301 25.2638C6.89726 26.0324 9.01406 24.8246 37.7951 25.7621C37.7332 25.7115 37.5847 25.7115 37.5104 25.6861C40.2338 26.1845 37.7951 26.0831 31.6552 28.8789C32.8559 28.3637 45.3958 28.0512 36.7924 30.0615C38.0056 30.5091 39.7634 29.9601 40.927 30.4078C41.9049 31.7846 8.79124 29.732 40.828 33.3049C43.378 32.6715 42.2887 34.4706 49.0971 34.0145C33.9453 34.9014 39.8253 39.471 21.5911 42.2668C23.5469 42.081 24.822 42.6469 26.2579 43.0354C25.4657 43.2635 26.0475 43.0608 26.7036 43.9815C24.3021 44.5474 13.8542 45.2062 24.4011 45.3751C21.3064 45.8313 23.8317 45.4089 15.6616 46.1691C16.4786 46.3549 17.3822 46.1184 18.1373 46.4056C15.2407 46.7942 16.4909 47.0138 9.63301 47.5628C13.619 48.3906 11.1432 47.9598 19.301 48.5933C18.3106 49.5393 16.1072 48.5933 14.3865 49.117C19.1524 50.3502 29.9469 47.9176 35.604 51.3553C35.5298 51.3807 35.4555 51.33 35.3688 51.3553C28.5357 51.2962 27.8301 52.7997 43.3533 54.5482C39.293 55.6462 40.4813 56.0601 -0.30729 58.1126C-0.30729 58.1126 -0.245396 58.138 -0.233016 58.1633C-1.17382 62.2599 -20.6211 59.4303 0.670647 63.8901C1.8714 63.3157 25.3419 64.7939 60.2382 66.6944C60.2258 66.6944 60.2134 66.6859 60.201 66.6859C60.6467 66.517 60.4734 66.5677 60.9685 66.593C61.377 66.5677 61.7484 66.5846 61.996 66.5846C61.476 66.6099 61.1789 66.6015 60.9685 66.593C60.7457 66.6099 60.5229 66.6352 60.2877 66.6859C60.2877 66.6944 60.3124 66.6944 60.3248 66.7028C151.681 71.6863 519.163 79.4741 572.776 60.6128ZM560.583 63.1721C560.62 63.2228 560.62 63.2819 560.682 63.3073C560.657 63.3073 560.62 63.3326 560.583 63.3326C560.669 63.2735 560.521 63.2228 560.583 63.1721ZM560.187 59.1347C560.051 59.1347 559.939 59.1093 559.803 59.1093C559.865 59.1431 560.088 58.763 560.187 59.1347ZM551.472 62.0065C551.843 62.0487 551.769 61.9981 551.942 62.1163C551.955 62.1163 551.955 62.1163 551.967 62.1248H551.942C551.942 62.1248 551.942 62.1248 551.93 62.1163C551.732 62.0656 551.583 62.0318 551.472 62.0065C551.336 61.9896 551.15 61.9643 550.853 61.9051C551.323 61.8883 551.063 61.8967 551.472 62.0065ZM555.458 33.3725C555.458 33.3979 555.433 33.4232 555.396 33.4485C555.421 33.4232 555.371 33.3979 555.359 33.3725C555.396 33.3725 555.421 33.3725 555.458 33.3725ZM552.784 41.9965C552.796 42.0049 552.796 42.0134 552.809 42.0218C553.032 42.0894 553.18 42.1485 553.292 42.1992C553.465 42.2246 553.737 42.2668 554.171 42.3682C554.158 42.3935 554.171 42.4188 554.133 42.4442C554.133 42.4188 554.109 42.3935 554.109 42.3682C553.403 42.4611 553.824 42.4357 553.292 42.1992C552.896 42.1401 552.945 42.1739 552.809 42.0218C552.772 42.0134 552.759 42.0049 552.722 41.9965H552.784ZM527.952 27.0122H527.94C527.952 27.0038 527.952 26.9953 527.952 26.9869C527.952 26.9953 527.952 27.0122 527.952 27.0122ZM528.831 47.0814C528.806 47.0814 528.806 47.056 528.781 47.056C528.893 47.0307 528.88 47.056 529.017 47.0307C528.979 47.0814 528.868 47.056 528.831 47.0814ZM530.452 27.7724C530.452 27.7724 530.477 27.7302 530.465 27.7809C530.465 27.7724 530.452 27.7724 530.452 27.7724ZM530.663 36.1683C530.663 36.143 530.688 36.1683 530.688 36.143C530.688 36.1683 530.712 36.1683 530.712 36.1683C530.712 36.1683 530.688 36.1683 530.663 36.1683ZM532.891 23.8194C532.866 23.8448 532.866 23.8448 532.866 23.8448C532.879 23.8616 532.842 23.8194 532.891 23.8194ZM532.916 24.2164C532.891 24.2417 532.916 24.2417 532.916 24.2417C532.916 24.2417 532.879 24.2417 532.866 24.2164C532.891 24.2164 532.903 24.2417 532.916 24.2164ZM532.904 50.2235C532.891 50.1982 532.904 50.1982 532.891 50.1728C532.916 50.1644 532.978 50.1813 532.904 50.2235ZM534.859 23.8194C534.872 23.8194 534.872 23.7941 534.872 23.7941L534.897 23.8194C534.897 23.8194 534.872 23.8194 534.859 23.8194ZM544.577 65.0473C544.626 65.0473 544.651 65.0473 544.713 65.0219C544.713 65.0473 544.75 65.0726 544.763 65.0726C544.688 65.0726 544.639 65.0726 544.577 65.0473ZM548.885 24.6218C548.897 24.5881 548.897 24.5881 548.971 24.5627C548.934 24.5881 548.91 24.5965 548.885 24.6218C548.872 24.6556 548.848 24.7148 548.736 24.8499C548.451 24.681 548.65 24.7908 548.885 24.6218ZM548.612 57.3947C548.65 57.2088 548.612 57.0821 548.476 56.9216C548.91 57.0821 548.885 57.2342 548.612 57.3947ZM546.397 29.335C546.421 29.3604 546.409 29.3773 546.372 29.335C546.397 29.335 546.397 29.335 546.397 29.335ZM544.936 52.7828C544.936 52.7828 544.936 52.7828 544.936 52.7575C545.245 52.8166 545.183 52.749 546.038 53.0447C545.629 52.918 546.038 53.0024 544.936 52.7828ZM545.035 46.5323C545.171 46.4732 545.047 46.4816 545.406 46.4563C545.295 46.4732 545.159 46.4732 545.035 46.5323ZM545.344 27.0376C545.344 27.0376 545.344 27.0376 545.344 27.0629C545.32 27.0376 545.32 27.0376 545.32 27.0376H545.344ZM544.849 26.2267C544.948 26.3027 545.134 26.3027 545.258 26.3618C545.097 26.3112 544.985 26.2858 544.824 26.252C544.824 26.252 544.849 26.252 544.849 26.2267ZM544.911 29.335C544.837 29.3857 544.812 29.4111 544.639 29.4111C544.639 29.4111 544.639 29.3857 544.614 29.3604C544.676 29.3857 544.824 29.335 544.911 29.335ZM544.849 52.3858C544.701 52.4112 544.564 52.3858 544.428 52.3858C544.478 52.3774 544.478 52.3351 544.849 52.3858ZM544.267 61.77C544.23 61.77 544.193 61.77 544.168 61.77C544.131 61.7953 544.267 61.7193 544.267 61.77ZM543.772 41.4644L543.747 41.4897C543.735 41.5066 543.723 41.4644 543.772 41.4644ZM542.708 34.6395C542.46 34.6986 542.596 34.6902 542.076 34.6649C542.274 34.6395 542.485 34.6648 542.708 34.6395ZM543.339 65.7821C542.893 65.7821 542.448 65.7315 542.039 65.7568C542.472 65.6808 542.918 65.7061 543.339 65.7821ZM541.693 57.817C541.693 57.8423 541.631 57.8423 541.631 57.8677C541.618 57.8677 541.594 57.8677 541.581 57.8677C541.618 57.8677 541.631 57.8423 541.693 57.817ZM540.95 55.5786C540.814 55.5786 540.677 55.5533 540.541 55.5533C540.739 55.5533 540.913 55.528 541.098 55.528C541.036 55.5533 540.975 55.5533 540.95 55.5786ZM540.306 22.2399C540.405 22.2652 540.418 22.3159 540.541 22.3159C540.405 22.3413 540.294 22.3413 540.133 22.3413C540.182 22.3159 540.281 22.2906 540.306 22.2399ZM540.108 38.2462C540.108 38.2969 540.046 38.3476 540.034 38.4067C539.885 38.5165 539.947 38.4743 539.675 38.5165C539.799 38.4743 539.947 38.3982 540.108 38.2462ZM539.823 45.637C539.811 45.637 539.823 45.637 539.811 45.6623C539.811 45.6285 539.823 45.6539 539.786 45.6116C539.786 45.6116 539.811 45.6116 539.823 45.6116L539.811 45.637C539.799 45.637 539.799 45.637 539.823 45.637ZM539.39 38.5672C539.316 38.5841 539.254 38.5925 539.167 38.6179C539.204 38.5587 539.279 38.5672 539.39 38.5672ZM539.861 58.4505C539.526 58.3998 539.266 58.29 538.895 58.2647C539.266 58.29 539.551 58.3998 539.861 58.4505ZM538.722 41.515C538.709 41.5657 538.796 41.5995 538.585 41.6249C538.647 41.5742 538.66 41.5742 538.722 41.515ZM537.929 26.3281C537.905 26.3281 537.905 26.3281 537.892 26.3281C537.892 26.3281 538.041 26.2605 537.929 26.3281ZM537.372 42.6553C537.261 42.6807 537.323 42.7651 537.447 42.8412C537.273 42.7905 537.298 42.706 537.075 42.6807C537.187 42.6807 537.249 42.6553 537.372 42.6553ZM536.964 28.0681C537.001 28.0681 536.964 28.0934 536.989 28.0934C536.989 28.0934 536.964 28.0934 536.951 28.0934C536.976 28.0934 536.964 28.0681 536.964 28.0681ZM536.902 48.3737C536.927 48.3737 536.939 48.3484 536.976 48.3484C536.914 48.4835 536.989 48.3821 536.902 48.6609C536.877 48.5849 536.964 48.6524 536.902 48.3737ZM536.89 64.5658C536.865 64.5405 536.79 64.5658 536.778 64.5405C536.815 64.5489 536.79 64.532 536.89 64.5658ZM535.874 21.8936C535.874 21.8936 535.825 21.8682 535.8 21.8682C535.825 21.8851 535.862 21.8345 535.874 21.8936ZM535.416 26.6997C535.454 26.6997 535.478 26.6744 535.515 26.6744C535.491 26.6997 535.454 26.725 535.416 26.7504C535.416 26.725 535.416 26.6997 535.416 26.6997ZM535.553 53.2051C535.528 53.2305 535.528 53.2812 535.528 53.3065C535.355 53.2812 535.218 53.3318 535.045 53.3065C535.28 53.2812 535.355 53.2558 535.553 53.2051ZM535.169 60.4523C535.156 60.4946 535.194 60.4861 534.971 60.4523C535.033 60.4523 534.971 60.4523 535.169 60.4523ZM534.934 22.8481C534.909 22.8734 534.934 22.8734 534.934 22.8734C534.996 22.8818 534.723 22.8396 534.934 22.8481ZM534.513 56.7865C534.339 56.8372 534.278 56.947 534.129 57.023C534.166 56.9048 533.894 56.6598 534.513 56.7865ZM533.386 29.5969C533.386 29.5969 533.374 29.5715 533.349 29.5715C533.411 29.5715 534.191 29.2928 533.386 29.5969ZM532.829 20.8969C532.879 20.9222 532.916 20.9391 532.965 20.9645C532.916 20.9476 532.879 20.9222 532.78 20.9222C532.792 20.9222 532.829 20.9222 532.829 20.8969ZM531.913 47.6388C531.926 47.6304 531.901 47.5966 531.987 47.6135C531.95 47.6135 531.95 47.6388 531.913 47.6388ZM531.802 42.5962C531.851 42.6216 531.901 42.6047 531.938 42.6215C531.913 42.63 531.851 42.6553 531.802 42.5962ZM531.839 41.836C531.864 41.8191 531.752 41.8698 531.765 41.8107C531.777 41.8107 531.802 41.8107 531.839 41.836ZM531.876 44.7332C531.591 44.6825 531.294 44.6741 530.985 44.6318C531.096 44.6234 531.084 44.4798 531.876 44.7332ZM531.047 31.4974C531.047 31.472 531.022 31.472 531.022 31.472C531.096 31.472 531.158 31.4467 531.232 31.4467C531.183 31.472 531.109 31.472 531.047 31.4974ZM531.109 22.4257C530.898 22.3497 530.651 22.3159 530.378 22.2906C530.626 22.3159 530.91 22.3159 531.109 22.4257ZM530.465 27.2487C530.502 27.3248 530.44 27.3248 530.465 27.3839C530.428 27.3839 530.415 27.3585 530.366 27.3585C530.415 27.3332 530.452 27.3079 530.465 27.2487ZM529.351 41.5742C529.239 41.6502 529.066 41.7093 529.017 41.7853C528.992 41.7853 528.992 41.8107 528.992 41.8107C528.918 41.7093 528.781 41.6502 528.719 41.5742C528.93 41.6249 529.128 41.6249 529.351 41.5742ZM528.633 56.474C528.559 56.4993 528.596 56.5838 528.596 56.6598C528.559 56.6091 528.559 56.55 528.521 56.474C528.571 56.474 528.559 56.4486 528.633 56.474ZM528.088 21.8936C528.026 21.9189 527.989 21.9696 527.964 22.0034C527.915 21.9781 527.828 22.0034 527.791 21.9781C527.915 21.9527 527.977 21.8936 528.088 21.8936ZM526.9 27.5444C526.825 27.5444 526.788 27.5697 526.726 27.5697C526.751 27.5275 526.714 27.5444 526.9 27.5444ZM526.083 54.5228V54.5482C526.058 54.5482 526.058 54.5482 526.058 54.5482C526.058 54.5482 526.058 54.5482 526.083 54.5228ZM506.066 47.926C506.066 47.926 506.103 47.926 506.103 47.9007C506.14 47.9345 506.177 47.9598 506.227 47.9851C506.165 47.9683 506.116 47.9514 506.066 47.926ZM525.6 57.5805C525.563 57.5889 525.513 57.5974 525.476 57.6058C525.501 57.5889 525.55 57.5467 525.6 57.5805ZM525.241 57.6481C525.229 57.6481 525.204 57.6565 525.191 57.6565H525.167C525.204 57.6565 525.216 57.6481 525.241 57.6481ZM523.149 55.3421C523.161 55.3421 523.161 55.3421 523.161 55.3421C523.186 55.3675 523.161 55.3675 523.149 55.3675C523.149 55.3675 523.149 55.3675 523.149 55.3421ZM522.53 24.5374C522.48 24.5627 522.493 24.5627 522.456 24.5881C522.431 24.5627 522.48 24.5627 522.431 24.5374C522.468 24.5374 522.505 24.5374 522.53 24.5374ZM523.236 59.0586C523.236 59.0586 523.223 59.0586 523.211 59.0586C522.79 59.1262 523.211 59.0671 522.072 59.0586C522.505 59.0333 522.084 59.0586 523.236 59.0586ZM521.502 56.6345C521.478 56.6345 521.403 56.6345 521.403 56.6345C521.366 56.6345 521.366 56.6091 521.354 56.6091C521.403 56.6007 521.441 56.6345 521.502 56.6345ZM521.379 61.5588C521.403 61.5842 521.354 61.5842 521.379 61.6095C521.342 61.6095 521.304 61.6095 521.267 61.6095C521.292 61.5926 521.366 61.5926 521.379 61.5588ZM520.549 23.1352C520.525 23.1606 520.5 23.1859 520.475 23.2113H520.413C520.5 23.1859 520.475 23.1606 520.549 23.1352ZM520.029 26.1169C520.017 26.1169 519.992 26.1169 519.98 26.1169C519.967 26.1338 520.029 26.0578 520.029 26.1169ZM519.027 43.9223C518.99 43.897 518.952 43.897 518.891 43.897C518.94 43.897 518.903 43.8801 519.027 43.9223ZM516.588 62.2768C516.6 62.2261 516.539 62.2092 516.786 62.2261C516.724 62.2515 516.675 62.2515 516.588 62.2768ZM516.576 28.4904C516.613 28.4904 516.675 28.5157 516.712 28.5157C516.675 28.5157 516.588 28.5411 516.576 28.5664C516.539 28.5411 516.613 28.5157 516.576 28.4904ZM515.845 59.6668C515.87 59.6921 515.87 59.6921 515.882 59.7175C515.858 59.709 515.66 59.7344 515.845 59.6668ZM516.229 63.3326C516.068 63.358 515.957 63.3833 515.759 63.3833C515.92 63.358 516.068 63.3326 516.229 63.3326ZM515.882 66.0947C515.858 66.1369 515.969 66.1538 515.759 66.1453C515.796 66.1538 515.845 66.1284 515.882 66.0947ZM513.431 46.3972C513.407 46.5577 513.221 46.6337 512.924 46.6337C512.862 46.6337 512.862 46.6083 512.825 46.583C513.147 46.6083 513.283 46.5323 513.431 46.3972ZM512.85 52.9349C512.85 52.9602 512.874 52.9602 512.887 52.9855H512.825C512.85 52.9686 512.8 52.9686 512.85 52.9349ZM513.023 59.0586C512.949 59.008 512.85 58.9657 512.763 58.915C512.874 58.9235 513.221 58.8813 513.023 59.0586ZM512.788 59.3205C512.775 59.3205 512.788 59.3205 512.775 59.3458C512.738 59.3289 512.713 59.3289 512.701 59.3205C512.726 59.3205 512.751 59.3205 512.788 59.3205ZM512.231 59.3458C512.416 59.2445 512.28 59.312 512.577 59.3205C512.528 59.3289 512.441 59.3374 512.243 59.3458C512.268 59.3458 512.243 59.3712 512.243 59.3712C512.243 59.3712 512.218 59.3458 512.206 59.3458C512.231 59.3458 512.231 59.3458 512.231 59.3458ZM511.03 38.6685C511.03 38.6939 510.968 38.6939 510.993 38.7192C510.918 38.7192 510.894 38.6939 510.819 38.6939C510.869 38.6432 510.968 38.6939 511.03 38.6685ZM510.584 30.4669C510.201 30.3909 510.337 30.2304 510.25 30.1206C510.312 30.2304 510.46 30.3655 510.584 30.4669ZM509.866 19.2076C509.842 19.2076 509.866 19.2076 509.829 19.1822C509.817 19.1907 509.879 19.1569 509.866 19.2076ZM509.458 41.3799C509.396 41.3883 509.346 41.3968 509.284 41.4137C509.297 41.3968 509.384 41.3883 509.458 41.3799ZM509.421 58.1633C509.384 58.214 509.284 58.2393 509.284 58.2731C509.247 58.2731 509.223 58.2478 509.21 58.2478C509.272 58.2393 509.346 58.1886 509.421 58.1633ZM508.665 28.9634C508.628 28.9634 508.591 28.9634 508.566 28.9634C508.616 28.9634 508.628 28.9381 508.665 28.9634ZM508.529 37.1397C508.529 37.1397 508.505 37.1397 508.492 37.1397C508.48 37.1228 508.455 37.1144 508.43 37.0975C508.467 37.1144 508.505 37.1313 508.529 37.1397ZM508.245 36.9792C508.282 36.9792 508.307 37.0046 508.344 37.0046C508.331 37.0215 508.356 37.0468 508.381 37.0637C508.331 37.0383 508.294 37.013 508.245 36.9792ZM508.356 34.4537C508.294 34.4537 508.356 34.4537 508.207 34.4283C508.269 34.4283 508.319 34.4537 508.356 34.4537ZM508.146 26.4379C508.108 26.4632 508.071 26.4885 508.047 26.5139C508.084 26.5139 507.972 26.421 508.146 26.4379ZM506.97 47.5882C507.069 47.5628 507.131 47.5628 507.242 47.5375C507.118 47.5544 507.044 47.5544 506.97 47.5882ZM506.994 46.507C506.982 46.5661 507.019 46.5746 506.833 46.5323C506.895 46.5323 506.945 46.5323 506.994 46.507ZM506.772 58.4251C506.734 58.4505 506.734 58.4251 506.697 58.4251C506.697 58.4251 506.722 58.4251 506.772 58.4251ZM506.413 40.89C506.388 40.9153 506.388 40.9407 506.375 40.9407C506.388 40.9576 506.314 40.8816 506.413 40.89ZM506.338 20.8378C506.239 20.8462 506.153 20.8631 506.078 20.8969C505.905 20.7617 505.744 20.8462 506.338 20.8378ZM505.397 48.4666C505.596 48.5088 505.608 48.5088 505.695 48.5595C505.744 48.5764 505.794 48.5933 505.868 48.6102L505.831 48.6355C505.769 48.6017 505.732 48.5764 505.707 48.5595C505.583 48.5257 505.472 48.4919 505.397 48.4666C505.298 48.4413 505.15 48.4075 504.915 48.3484C505.15 48.3737 505.076 48.3568 505.397 48.4666ZM504.221 55.7053C504.246 55.7307 504.259 55.7307 504.259 55.7307C504.259 55.7307 504.234 55.7307 504.221 55.7307C504.221 55.7307 504.221 55.7307 504.221 55.7053ZM503.838 37.1904C503.776 37.1904 503.838 37.1904 503.677 37.1904C503.689 37.2242 503.875 37.0299 503.838 37.1904ZM503.689 38.5418C503.578 38.5418 503.454 38.5418 503.417 38.4912C503.491 38.5165 503.565 38.5418 503.689 38.5418ZM503.801 47.9514C503.739 48.0274 503.627 48.0865 503.59 48.1372C503.479 48.1625 503.491 48.0865 503.392 48.1118C503.603 48.0865 503.64 48.0105 503.801 47.9514ZM502.674 39.2007C502.154 39.15 501.944 39.3865 501.473 39.3612C501.808 39.2514 502.154 39.1162 502.674 39.2007ZM501.87 16.7581C501.87 16.7581 501.87 16.7581 501.87 16.7834C501.87 16.7581 501.832 16.7581 501.808 16.7581C501.832 16.7581 501.845 16.7581 501.87 16.7581ZM501.486 21.3952C501.51 21.4206 501.56 21.3952 501.597 21.4206C501.56 21.4206 501.498 21.4206 501.461 21.4459C501.486 21.4206 501.486 21.4206 501.486 21.3952ZM500.879 64.9628C500.854 64.9628 500.854 64.9628 500.842 64.9375C500.867 64.9375 500.991 64.9375 500.879 64.9628ZM500.731 44.8177C500.619 44.7923 500.483 44.7923 500.359 44.767C500.471 44.7923 500.632 44.7923 500.731 44.8177ZM499.418 63.7803C499.381 63.755 499.344 63.755 499.282 63.755C499.307 63.7803 499.369 63.6705 499.418 63.7803ZM499.047 24.5627C499.121 24.5627 499.208 24.5627 499.295 24.5627C499.196 24.5881 499.121 24.5627 499.047 24.5881C499.047 24.5627 499.047 24.5627 499.047 24.5627ZM498.886 59.6921C498.861 59.6921 498.874 59.7006 498.861 59.6668C498.886 59.6668 498.874 59.6668 498.886 59.6921ZM498.923 62.4288C498.923 62.4542 498.948 62.4795 498.948 62.4795C498.861 62.4795 498.775 62.488 498.701 62.488C498.8 62.488 498.886 62.4711 498.923 62.4288ZM340.782 64.3293C340.77 64.2955 340.758 64.2955 340.807 64.3293H340.782ZM341.104 32.7644C341.116 32.7306 341.092 32.7306 341.216 32.7644C341.191 32.7644 341.141 32.739 341.104 32.7644ZM341.649 68.0205C341.735 67.9867 341.686 67.8938 341.933 67.9445C341.822 67.9698 341.748 67.9951 341.649 68.0205ZM343.902 57.4707C343.927 57.4622 343.951 57.4284 344.149 57.4707C344.063 57.4538 343.988 57.4791 343.902 57.4707ZM346.514 50.4347C346.477 50.4347 346.514 50.4093 346.477 50.4093C346.514 50.4093 346.538 50.4093 346.551 50.4093C346.538 50.4347 346.538 50.4093 346.514 50.4347ZM346.613 57.6565L346.588 57.6312C346.613 57.6312 346.625 57.6312 346.65 57.6565H346.613ZM347.702 62.5386C347.813 62.488 347.838 62.3782 347.937 62.3275C348.012 62.3782 347.875 62.4626 347.702 62.5386ZM475.416 35.7714C475.391 35.746 475.453 35.746 475.453 35.7207C475.478 35.746 475.478 35.746 475.49 35.7714C475.49 35.7714 475.428 35.7714 475.416 35.7714ZM480.182 45.4765C480.194 45.4512 480.021 45.4512 480.219 45.4512L480.182 45.4765ZM483.066 45.6032C483.004 45.6285 483.041 45.5779 483.004 45.5779C483.029 45.5779 483.029 45.6032 483.066 45.5779C483.066 45.6032 483.066 45.6032 483.066 45.6032ZM495.494 65.8919C495.47 65.8919 495.494 65.8919 495.457 65.8919C495.482 65.8666 495.457 65.8159 495.42 65.7821C495.494 65.7906 495.494 65.7315 495.494 65.8919ZM496.188 57.5551C496.126 57.5805 496.15 57.6058 496.113 57.6312C496.15 57.6481 495.952 57.4791 496.188 57.5551ZM495.742 58.0535C495.742 58.1042 495.643 58.1295 495.668 58.1549C496.076 58.1295 493.724 58.5265 495.742 58.0535ZM495.259 50.0377C495.284 50.0883 495.148 50.1475 495.197 50.1982H495.16C495.197 50.139 495.222 50.0883 495.259 50.0377ZM494.789 16.0148C494.851 16.0148 494.9 16.0148 494.95 16.0148C494.888 16.0401 494.813 16.0401 494.776 16.0401L494.789 16.0148ZM494.851 37.2749C494.851 37.2749 494.851 37.2917 494.851 37.3509C494.813 37.3255 494.776 37.3002 494.714 37.2749C494.776 37.2749 494.813 37.2749 494.851 37.2749ZM494.504 39.2429C494.479 39.2514 494.455 39.2598 494.417 39.2767C494.417 39.2514 494.393 39.2514 494.393 39.2514C494.417 39.2514 494.467 39.2429 494.504 39.2429ZM494.294 44.1842C494.331 44.2349 494.318 44.2349 494.256 44.2602C494.256 44.2349 494.294 44.2095 494.294 44.1842ZM493.093 28.0174C493.068 27.992 493.093 27.992 493.056 27.9667C493.093 27.9667 493.155 27.9498 493.093 28.0174ZM492.672 50.1982C492.647 50.2235 492.647 50.2488 492.635 50.2742C492.598 50.2488 492.598 50.2235 492.561 50.1982C492.585 50.1982 492.635 50.1982 492.672 50.1982ZM491.892 29.9432C491.855 29.9432 491.818 29.9432 491.793 29.9432C491.793 29.9432 491.731 29.9432 491.719 29.9432C491.781 29.9179 491.843 29.9432 491.892 29.9432ZM490.654 15.7276C490.629 15.7529 490.629 15.7529 490.617 15.7782C490.555 15.7529 490.444 15.7276 490.382 15.7276C490.481 15.7276 490.568 15.7276 490.654 15.7276ZM490.345 67.6826C490.308 67.6573 490.283 67.6826 490.233 67.6826C490.196 67.6826 490.196 67.6573 490.134 67.6319C490.209 67.6573 490.27 67.6573 490.345 67.6826ZM489.231 30.7034V30.7287C489.119 30.7034 488.983 30.7541 488.847 30.7287C488.983 30.7034 489.107 30.7287 489.231 30.7034ZM488.005 65.1993C487.968 65.1486 487.98 65.1909 487.968 65.098C487.993 65.1064 488.005 65.0726 488.005 65.1993ZM487.646 35.6362C487.2 35.7714 486.755 35.6616 486.297 35.6616C486.755 35.6362 487.2 35.6109 487.646 35.6362ZM485.059 35.425C485.034 35.4504 485.022 35.4504 485.022 35.4757C484.96 35.4757 484.91 35.4757 484.848 35.4504C484.96 35.4504 484.848 35.4588 485.059 35.425ZM484.799 55.7053C484.824 55.7307 484.824 55.7307 484.836 55.7307C484.811 55.7307 484.799 55.7307 484.799 55.7307C484.799 55.7307 484.799 55.7307 484.799 55.7053ZM484.514 31.8437C484.403 31.8183 484.279 31.793 484.168 31.7677C484.18 31.7592 484.675 31.7761 484.514 31.8437ZM484.353 26.9615C484.329 26.9869 484.353 27.0376 484.378 27.0714C484.279 27.0629 483.945 27.1389 484.353 26.9615ZM483.103 22.9832C483.103 22.9832 483.103 22.9832 483.103 23.0085C483.115 23.0085 482.979 22.9156 483.103 22.9832ZM483.214 29.2252C483.214 29.2506 483.252 29.2506 483.252 29.2506C483.091 29.2506 483.053 29.2759 482.942 29.2759C483.066 29.259 483.115 29.259 483.214 29.2252ZM482.682 27.519C482.657 27.4937 482.645 27.4937 482.62 27.4937C482.62 27.5021 482.682 27.4599 482.682 27.519ZM481.32 32.7644C481.345 32.7897 481.382 32.7897 481.395 32.7897C481.358 32.7897 481.333 32.7897 481.296 32.7644C481.32 32.7644 481.32 32.7644 481.32 32.7644ZM480.528 40.3832C480.528 40.3832 480.553 40.3832 480.553 40.4085C480.553 40.3832 480.516 40.3832 480.516 40.3832C480.516 40.3832 480.516 40.3832 480.528 40.3832ZM480.726 63.3326C480.553 63.358 480.454 63.3326 480.392 63.2566C480.491 63.3073 480.565 63.3326 480.726 63.3326ZM480.305 23.2197C480.281 23.245 480.33 23.245 480.33 23.245C480.268 23.2197 480.157 23.245 480.12 23.2197C480.169 23.2197 480.219 23.2197 480.305 23.2197ZM479.067 51.5918C479.142 51.6172 479.142 51.6425 479.204 51.6425C479.129 51.6679 478.956 51.7185 478.832 51.7523C478.869 51.7016 479.067 51.6763 479.067 51.5918ZM478.114 44.767C478.052 44.7923 478.09 44.8177 478.003 44.843C477.941 44.843 477.966 44.8177 477.904 44.8177C478.003 44.8177 478.052 44.7923 478.114 44.767ZM477.731 51.3047C477.755 51.33 477.768 51.33 477.768 51.33C477.743 51.3047 477.731 51.3553 477.669 51.3553C477.693 51.33 477.706 51.33 477.731 51.3047ZM477.037 66.8886C477.062 66.8886 477.099 66.8886 477.099 66.8886C477.099 66.8886 477.062 66.914 477.037 66.914C477.037 66.914 477.05 66.8886 477.037 66.8886ZM476.394 57.1835C476.394 57.2088 476.394 57.2088 476.394 57.2088H476.369L476.394 57.1835ZM475.985 29.4702C475.997 29.4955 476.134 29.5378 475.911 29.58C475.985 29.5462 475.985 29.4702 475.985 29.4702ZM476.158 34.1834C476.084 34.2087 475.96 34.2087 475.911 34.2087C475.923 34.1581 475.886 34.1834 476.158 34.1834ZM475.502 15.8881C475.478 15.8881 475.478 15.9134 475.465 15.9387C475.478 15.9303 475.44 15.8543 475.502 15.8881ZM475.49 31.869C475.428 31.869 475.379 31.869 475.329 31.869C475.354 31.8859 475.379 31.7508 475.49 31.869ZM351.181 38.0435C351.156 38.0435 351.193 38.0688 351.131 38.0857C351.156 38.0688 351.168 38.0604 351.181 38.0435ZM351.143 40.7802C351.106 40.7802 351.131 40.7886 351.069 40.7549C351.082 40.7549 351.094 40.7802 351.143 40.7802ZM475.044 42.309C474.933 42.3344 351.044 42.3344 350.945 42.3344C351.02 42.309 474.945 42.3344 475.044 42.309ZM350.351 63.4086C350.376 63.434 350.351 63.434 350.351 63.434H350.289C350.289 63.434 350.351 63.434 350.351 63.4086ZM349.398 62.9863C349.472 63.0623 349.398 63.1975 349.287 63.358C349.435 63.1975 349.423 63.0961 349.398 62.9863ZM349.027 22.6876C349.002 22.7129 348.965 22.7129 348.965 22.7382C348.928 22.7129 348.866 22.7382 348.829 22.7129C348.89 22.6876 348.977 22.7129 349.027 22.6876ZM347.987 25.0357C347.987 25.0104 347.888 25.1117 347.913 25.0104C347.95 25.0357 347.974 25.0357 347.987 25.0357ZM348.494 29.3857C348.321 29.3857 348.148 29.4364 347.974 29.4364C347.838 29.4364 347.69 29.4364 347.554 29.4111C347.813 29.4702 348.16 29.4111 348.494 29.3857ZM347.776 40.096C347.665 40.096 347.702 40.1214 347.615 40.1467C347.64 40.0876 347.578 40.0876 347.776 40.096ZM347.776 40.8562C347.702 40.8562 347.615 40.8562 347.541 40.8562C347.603 40.8055 347.578 40.738 347.776 40.8562ZM347.925 46.11L347.863 46.1353C347.405 45.8988 347.851 46.1353 346.897 45.5863C346.885 45.5779 346.873 45.5948 346.873 45.5525C347.516 45.7046 346.848 45.5694 347.925 46.11ZM346.712 14.7224C346.712 14.7224 346.638 14.7478 346.6 14.7478C346.526 14.7478 346.427 14.7984 346.365 14.7224C346.551 14.7562 346.353 14.714 346.712 14.7224ZM345.164 53.6021C345.103 53.6021 345.065 53.6021 345.028 53.6021C345.041 53.6106 345.078 53.5346 345.164 53.6021ZM345.053 65.9933C344.942 65.9426 344.805 65.8919 344.595 65.9173C344.818 65.8582 344.979 65.8919 345.053 65.9933ZM342.726 15.7276C342.701 15.7782 342.738 15.7445 342.565 15.7529C342.639 15.7529 342.689 15.7529 342.726 15.7276ZM342.193 14.4944C342.206 14.5282 342.231 14.5619 342.243 14.5873C342.218 14.5873 342.181 14.5873 342.144 14.5873C342.169 14.5535 342.193 14.5282 342.193 14.4944ZM342.292 30.3148C342.231 30.298 342.317 30.4753 342.082 30.3909C342.193 30.3655 342.193 30.3402 342.292 30.3148ZM342.961 48.2977C343.444 48.2892 342.986 48.2892 344.174 48.2723C343.803 48.2977 343.444 48.3568 343.06 48.3061C342.441 48.4413 343.035 48.3399 341.575 48.3484C342.045 48.2977 341.587 48.399 342.961 48.2977ZM341.748 24.8499C341.364 24.8246 340.931 24.9006 340.584 24.7739C340.968 24.7992 341.364 24.8246 341.748 24.8499ZM340.411 43.9983C340.436 44.0237 340.436 44.049 340.473 44.049C340.436 44.049 340.398 44.049 340.374 44.049C340.374 44.049 340.398 44.0237 340.411 43.9983ZM340.522 52.124C340.46 52.1493 340.423 52.1747 340.374 52.1747C340.324 52.1578 340.411 52.1409 340.522 52.124ZM340.225 36.0585C340.25 36.0585 340.25 36.0501 340.225 36.0839C340.225 36.0839 340.225 36.0839 340.225 36.0585ZM339.928 42.9172C339.891 42.9172 339.903 42.9172 339.891 42.8918C339.879 42.8918 339.953 42.8834 339.928 42.9172ZM338.17 36.4302C338.195 36.4555 338.207 36.4555 338.232 36.4809C338.195 36.4809 338.17 36.4809 338.133 36.4809C338.146 36.4555 338.17 36.4555 338.17 36.4302ZM336.648 55.0212C336.648 55.0212 336.685 55.0212 336.722 55.0212C336.697 55.0212 336.66 55.0212 336.648 55.0465C336.648 55.0212 336.648 55.0212 336.648 55.0212ZM336.239 14.2748L336.264 14.3254C336.227 14.3254 336.165 14.3254 336.091 14.3254C336.14 14.3001 336.202 14.3001 336.239 14.2748ZM335.818 15.6431C335.794 15.6178 335.781 15.6431 335.756 15.6178C335.781 15.6262 335.794 15.6009 335.818 15.6431ZM322.499 45.4765C322.474 45.4512 322.437 45.4512 322.4 45.4258C322.437 45.4258 322.461 45.4005 322.499 45.4005C322.461 45.4512 322.536 45.4512 322.499 45.4765ZM322.919 42.4949C322.932 42.5117 322.932 42.4273 322.944 42.4949C322.944 42.4949 322.944 42.4949 322.919 42.4949ZM324.021 69.448C323.972 69.4395 323.984 69.4564 323.959 69.3719C323.984 69.4057 324.046 69.355 324.021 69.448ZM326.571 68.578C326.534 68.6033 326.534 68.578 326.497 68.578C326.522 68.5526 326.596 68.5526 326.596 68.5273C326.608 68.5526 326.559 68.5526 326.571 68.578ZM334.618 53.864C334.667 53.9231 334.853 53.7288 335.1 53.9991C334.927 53.9653 334.853 53.8893 334.618 53.864ZM335.038 50.3502C335.063 50.3755 335.038 50.3755 335.038 50.4009C335.014 50.3755 335.001 50.3755 334.977 50.3502H335.038ZM334.902 42.7567C334.642 42.5709 334.939 42.7482 334.419 42.2583C335.038 42.385 334.395 42.2583 334.939 42.7567C334.927 42.7567 334.902 42.7567 334.902 42.7567ZM334.457 15.4066C334.568 15.4066 334.63 15.4573 334.741 15.4573C334.58 15.4657 334.618 15.4911 334.32 15.4066C334.382 15.4066 334.419 15.4066 334.457 15.4066ZM333.726 37.089L333.751 37.1144H333.714L333.726 37.089ZM334.234 57.817C333.9 57.9775 333.887 58.0535 333.751 58.1633C333.64 58.0873 333.503 58.0282 333.404 57.9775C333.689 57.9521 333.937 57.9268 334.234 57.817ZM333.417 67.9445C333.392 67.9445 333.305 67.9445 333.243 67.9445C333.281 67.936 333.318 67.9107 333.417 67.9445ZM332.835 41.9965C332.835 41.9712 332.897 41.9458 332.897 41.9205C332.934 41.9712 332.897 41.9965 332.996 42.0556C332.934 42.0218 332.897 42.0218 332.835 41.9965V42.0218C332.847 41.9881 332.699 42.0134 332.724 41.8614C332.798 41.912 332.761 41.9374 332.835 41.9965ZM332.699 54.6833C332.674 54.7086 332.699 54.6917 332.662 54.7593C332.686 54.7593 332.575 54.6833 332.699 54.6833ZM332.414 65.4949C332.55 65.5203 332.625 65.4696 332.724 65.4696C332.625 65.5203 332.563 65.4949 332.476 65.5794C332.389 65.5625 332.389 65.5879 332.414 65.4949ZM331.696 56.4233C331.708 56.4486 331.746 56.4486 331.671 56.4486L331.696 56.4233ZM331.634 60.1398C331.696 60.1398 331.733 60.1398 331.795 60.1398C331.77 60.1905 331.634 60.1905 331.597 60.2496C331.597 60.1905 331.671 60.1651 331.634 60.1398ZM331.349 63.8563C331.25 63.9154 331.312 63.907 331.015 63.8816C331.139 63.8563 331.238 63.8563 331.349 63.8563ZM331.56 69.6591C331.35 69.6845 331.139 69.7098 330.978 69.7943C331.114 69.6845 331.35 69.6845 331.56 69.6591ZM328.973 57.2342C328.948 57.2849 329.072 57.2849 329.01 57.344C328.936 57.268 328.837 57.3186 328.738 57.268C328.812 57.2595 328.936 57.2595 328.973 57.2342ZM328.564 50.8063L328.589 50.8316C328.577 50.8316 328.564 50.8316 328.552 50.8316C328.552 50.8316 328.564 50.8316 328.564 50.8063ZM327.945 23.1606C327.834 23.1352 327.747 23.1099 327.636 23.0846C327.747 23.0846 328.193 22.9916 327.945 23.1606ZM326.707 55.9418C326.509 55.9165 326.299 55.9165 326.113 55.8658C326.286 55.8912 326.522 55.9165 326.707 55.9418ZM325.432 19.4187C325.457 19.4441 325.457 19.4441 325.469 19.4694C325.432 19.4694 325.408 19.4441 325.395 19.4441C325.395 19.4441 325.42 19.4441 325.432 19.4187ZM325.321 36.5907C325.321 36.5907 325.296 36.5907 325.321 36.616C325.296 36.616 325.284 36.616 325.259 36.616C325.284 36.5907 325.296 36.5907 325.321 36.5907ZM324.454 22.1639L324.479 22.1892H324.454C324.454 22.1639 324.454 22.1639 324.454 22.1639ZM323.538 59.3881C323.526 59.3881 323.551 59.3965 323.501 59.3965C323.724 59.2698 323.501 59.3881 324.256 59.2107C324.021 59.2698 323.774 59.3205 323.538 59.3881ZM323.774 58.2647C323.749 58.2647 323.774 58.2647 323.699 58.2647C323.712 58.2393 323.736 58.2647 323.774 58.2647ZM323.526 18.4136C323.415 18.5572 323.563 18.4981 322.981 18.5234C323.155 18.4727 323.353 18.4981 323.526 18.4136ZM322.709 30.2473C322.981 30.205 323.254 30.1459 323.551 30.0952C323.08 30.2388 323.328 30.1966 322.709 30.2473C322.412 30.298 322.14 30.3317 321.88 30.3317C322.263 30.2895 322.523 30.2642 322.709 30.2473ZM321.186 40.645C321.112 40.6957 320.976 40.6957 320.914 40.7549C320.939 40.6788 320.865 40.6197 321.186 40.645ZM319.948 51.0935C319.948 51.0935 319.887 51.1188 319.849 51.1188C319.887 51.1188 319.911 51.0935 319.948 51.0935ZM318.116 48.1879C318.092 48.2132 318.092 48.2132 318.092 48.2132C318.067 48.1879 318.017 48.2132 317.993 48.1879C318.03 48.1879 318.067 48.1879 318.116 48.1879ZM317.572 52.5717C317.572 52.597 317.609 52.597 317.609 52.597C317.584 52.597 317.547 52.597 317.535 52.597C317.547 52.597 317.547 52.597 317.572 52.5717ZM312.434 38.8797C312.434 38.8797 312.373 38.8797 312.335 38.8797C312.335 38.8966 312.41 38.6432 312.434 38.8797ZM28.6471 23.9039C28.6718 23.9208 28.7213 23.8616 28.808 23.9292C28.7585 23.9039 28.709 23.9292 28.6471 23.9039ZM36.0868 23.7687C36.1363 23.7349 36.1487 23.6843 36.4953 23.6927C36.2849 23.7181 36.2849 23.7434 36.0868 23.7687ZM43.2418 21.505C43.2295 21.5726 43.1181 21.4713 43.279 21.429C43.2419 21.4459 43.2418 21.4797 43.2418 21.505ZM44.9378 31.7339C44.9625 31.7508 44.9873 31.7001 45.1111 31.7592C45.0616 31.7339 44.9997 31.7592 44.9378 31.7339ZM48.899 26.6997C48.899 26.6744 48.899 26.6997 48.8 26.649C48.7876 26.6575 49.0476 26.6068 48.899 26.6997ZM29.3279 45.7383C29.3527 45.713 29.3527 45.6877 29.3032 45.6623C29.365 45.6708 29.3403 45.6539 29.3774 45.7383H29.3279ZM29.7364 41.8614C29.7364 41.836 29.7364 41.836 29.7364 41.836C29.7117 41.8276 29.7736 41.8614 29.7364 41.8614ZM32.2989 44.7332C32.2741 44.7079 32.3236 44.7079 32.3236 44.6825C32.3855 44.691 32.4474 44.691 32.5217 44.691C32.435 44.691 32.3484 44.6994 32.2989 44.7332ZM33.6977 45.789C33.6977 45.789 33.6729 45.789 33.6605 45.789C33.6853 45.789 33.6977 45.7806 33.7224 45.7806C33.6977 45.7806 33.7101 45.789 33.6977 45.789ZM33.7472 45.7637C33.7472 45.7468 33.7472 45.7383 33.7224 45.713C33.5739 45.6201 33.8586 45.6877 33.7472 45.7637ZM35.1955 45.5018C35.2327 45.5103 35.2327 45.4934 35.2327 45.5525C35.2203 45.5272 35.2203 45.5272 35.1955 45.5018ZM35.5917 43.8885C35.5298 43.8125 35.604 43.8463 35.3812 43.7534C35.5298 43.7534 35.5298 43.8294 35.7278 43.8041C35.6659 43.8379 35.6412 43.8379 35.5917 43.8885ZM35.8145 47.2672C35.8145 47.2418 35.8145 47.2418 35.8145 47.2418C35.8145 47.2418 35.8392 47.2418 35.8516 47.2418C35.8392 47.2418 35.8392 47.2418 35.8145 47.2672ZM37.6961 45.316L37.6713 45.2907H37.7332L37.6961 45.316ZM40.568 42.5709C40.6794 42.4864 40.7413 42.3513 41.2117 42.5455C41.0013 42.5455 40.7908 42.5709 40.568 42.5709ZM41.2241 36.3795C41.4221 36.3542 41.5583 36.3288 41.7316 36.3035C41.5583 36.3204 41.4469 36.3542 41.2241 36.3795ZM-5.58072 61.9051C-5.58072 61.9051 -5.58072 61.9051 -5.54358 61.8798C-5.54358 61.8798 -5.46931 61.922 -5.58072 61.9051ZM0.373552 62.8258C0.373552 62.8258 0.373552 62.8258 0.348794 62.8258C0.39831 62.8174 0.361173 62.8174 0.447825 62.8005C0.385931 62.8005 0.447826 62.8258 0.373552 62.8258ZM4.2853 60.9591C4.2853 60.9591 4.31006 61.0098 4.31006 61.0351C4.29768 61.0098 4.2853 60.9845 4.2853 60.9591ZM11.8117 58.5856C11.8365 58.5518 11.7746 58.5181 11.9231 58.535C11.8241 58.5518 11.8241 58.5687 11.8117 58.5856ZM12.2078 59.008C12.2326 58.9911 12.245 58.9995 12.4554 58.9826C12.3811 58.9742 12.245 59.008 12.2078 59.008ZM15.3892 63.51C15.055 63.4086 15.0797 63.2735 15.8472 63.113C15.6616 63.2482 15.4635 63.3833 15.3892 63.51ZM17.6174 57.741C17.6174 57.741 17.6174 57.741 17.5927 57.741C17.6546 57.7156 17.6174 57.6903 17.6546 57.6649C17.6298 57.6818 17.6174 57.7156 17.6174 57.741ZM22.1481 62.0318C22.1357 62.0403 22.111 62.0572 22.0986 62.0656C22.111 62.0403 22.111 62.0572 22.21 61.9896C22.21 62.0149 22.2348 62.0149 22.2348 62.0149C22.1976 62.0149 22.1729 62.0234 22.1481 62.0318ZM26.5674 64.777C26.5426 64.777 26.5426 64.777 26.5426 64.777C26.555 64.7685 26.5798 64.7685 26.5922 64.7685C26.5798 64.7685 26.5674 64.777 26.5674 64.777ZM26.716 64.7179C26.7283 64.7179 26.716 64.701 26.7655 64.701C26.7531 64.7094 26.7407 64.7179 26.716 64.7179ZM30.1325 58.4251H30.1078C30.1078 58.4251 30.1325 58.4251 30.1325 58.3998C30.1325 58.4251 30.1325 58.4251 30.1325 58.4251ZM45.5567 61.5926C45.5567 61.5926 45.5815 61.5926 45.5938 61.5673C45.5938 61.6433 45.8291 61.618 45.9033 61.7024C45.7672 61.6433 45.6929 61.618 45.5567 61.5926ZM47.1041 39.5132C47.0793 39.5132 47.0793 39.4879 47.0669 39.4879C47.0669 39.4879 47.1041 39.4879 47.1288 39.5132H47.1041ZM48.1315 64.6503C48.0449 64.6418 48.1315 64.6503 48.1315 64.5996C48.1439 64.5827 48.1068 64.6334 48.1563 64.6503H48.1315ZM48.9362 36.1937C48.9485 36.1599 49.0104 36.0501 48.9981 36.1937C48.9733 36.1937 48.9609 36.1937 48.9362 36.1937ZM60.919 38.2209C61.0675 38.2124 61.2037 38.1871 61.3399 38.1617C61.1913 38.204 61.0428 38.2462 60.8819 38.2716C60.9066 38.2462 60.9066 38.2462 60.919 38.2209ZM59.3221 28.4397C59.3221 28.4397 59.3221 28.4397 59.3221 28.465C59.2973 28.465 59.285 28.4735 59.3221 28.4397ZM59.285 28.465C59.2726 28.4566 59.2726 28.4735 59.2602 28.4144C59.285 28.4397 59.2602 28.4397 59.285 28.465ZM53.5411 27.1727C53.5783 27.1051 53.4792 27.0629 53.7763 27.1727C53.6897 27.1727 53.6154 27.1727 53.5411 27.1727ZM53.8877 56.2375H53.8259C53.764 56.0348 53.8135 56.2375 53.9001 55.7391H53.9249C54.0239 55.9334 53.863 55.7307 53.8877 56.2375ZM55.5837 41.2025H55.5589L55.5837 41.1772C55.5837 41.2025 55.5837 41.2025 55.5837 41.2025ZM55.5094 16.4117C55.5341 16.4117 55.6208 16.3864 55.6579 16.3611C55.6827 16.3864 55.6951 16.3864 55.7198 16.4117C55.6456 16.4117 55.5837 16.4117 55.5094 16.4117ZM55.9303 48.3484C55.9674 48.3399 56.0788 48.2639 56.215 48.323C56.1655 48.323 56.0293 48.3484 55.9303 48.3484ZM56.4626 62.091C56.4626 62.0741 56.4378 62.0318 56.5492 62.0403C56.5245 62.0656 56.4873 62.0656 56.4626 62.091ZM58.5051 62.0656C58.5299 62.0487 58.5175 62.015 58.5794 62.0656C58.5794 62.0656 58.5299 62.0656 58.5051 62.0656ZM58.7403 64.0928C59.9039 64.1182 60.9685 64.2533 61.5008 64.701C60.56 64.5405 59.7801 64.228 58.7403 64.0928ZM61.7112 49.4802C61.7731 49.4549 61.8845 49.4549 61.9464 49.4295C61.9588 49.438 61.8598 49.666 61.7112 49.4802ZM94.8744 41.76C94.8744 41.7347 94.9116 41.7347 94.9363 41.7093C94.9735 41.7347 95.0354 41.7093 95.0725 41.7093C95.0106 41.7262 94.9363 41.7262 94.8744 41.76H94.8992L94.8744 41.7853C94.8744 41.76 94.8744 41.76 94.8744 41.76ZM89.7372 28.5664C89.6877 28.5664 89.6382 28.6762 89.6258 28.5411C89.6753 28.5411 89.6753 28.5664 89.7372 28.5664ZM85.4417 13.7511C85.4169 13.7764 85.4417 13.7848 85.3055 13.7764C85.3303 13.7511 85.4045 13.7511 85.4417 13.7511ZM84.0676 28.6255C84.0924 28.6171 84.1048 28.6086 84.1295 28.6002C83.7829 28.7691 84.1171 28.6002 83.2258 28.9718C83.1516 28.71 83.4115 28.6002 84.0676 28.6255ZM74.1645 26.8855C74.1892 26.9109 74.2016 26.9109 74.2264 26.9362C73.9912 26.9615 73.8179 26.9615 73.6074 26.9615C73.756 26.9362 74.0407 26.9109 74.1645 26.8855ZM73.7312 27.1474C73.7188 27.1643 73.6693 27.1981 73.6941 27.1474C73.6941 27.1474 73.7188 27.1474 73.7312 27.1474ZM73.0627 22.8481L73.0875 22.8734C73.0256 22.8734 72.9885 22.8734 72.9389 22.8734C72.9637 22.8734 73.0256 22.8734 73.0627 22.8481ZM69.1634 25.5679C69.1634 25.5763 69.1634 25.5848 69.151 25.5932C69.1386 25.6016 69.1386 25.6101 69.1262 25.6185C69.151 25.5932 69.1634 25.5848 69.1634 25.5679ZM68.8044 32.5532C68.7425 32.587 68.8168 32.6461 68.6311 32.5532C68.693 32.5532 68.7549 32.5532 68.8044 32.5532ZM68.4206 35.9825C68.4206 35.9825 68.4206 35.9825 68.3959 35.9825C68.4206 35.9825 68.3711 35.9572 68.3711 35.9572C68.4206 35.9572 68.4206 35.9825 68.4206 35.9825ZM64.4965 18.6501C64.4841 18.667 64.5213 18.6754 64.4717 18.6754C64.4717 18.6754 64.4717 18.6754 64.447 18.6754C64.4841 18.6839 64.4841 18.6839 64.4965 18.6501ZM63.3329 31.1511C63.37 31.1088 63.3205 31.1342 63.5433 31.1257C63.4319 31.1511 63.4319 31.1257 63.3329 31.1511ZM63.8404 41.2532H63.8033C63.8157 41.2194 63.8404 41.1772 63.9023 41.1434C63.8776 41.1856 63.8776 41.2363 63.8404 41.2532ZM64.2118 52.673C64.3851 52.6983 64.5955 52.6983 64.7193 52.7744C64.5213 52.7828 64.3851 52.6983 64.2118 52.673ZM65.4249 38.9388L65.4002 38.9135C65.3754 38.8966 65.5611 38.9388 65.4249 38.9388ZM65.5982 52.0986L65.4992 52.124C65.524 52.0986 65.5735 52.0986 65.5982 52.0733C65.5982 52.0649 65.623 52.0986 65.5982 52.0986ZM65.8829 35.0281C65.8087 35.0281 65.7468 35.0027 65.7096 34.9774C65.7715 34.9774 65.8211 34.9774 65.9077 34.952C65.9077 34.9774 65.8706 35.0027 65.8829 35.0281ZM66.5266 42.2583C66.6009 42.233 66.5885 42.233 66.5885 42.233C66.6133 42.233 66.6257 42.233 66.6504 42.233C66.4895 42.2921 66.3038 42.3344 66.5266 42.2583ZM66.6009 47.7149C66.6009 47.698 66.6009 47.6895 66.6628 47.6895C66.6628 47.6895 66.6257 47.6895 66.6009 47.7149ZM67.2199 27.1727C67.1704 27.1305 67.2199 27.1727 67.1827 27.0376C67.2199 27.0376 67.257 27.0376 67.2941 27.0376C67.2199 27.0629 67.2075 27.122 67.2199 27.1727ZM68.4825 66.4156C68.4083 66.4156 68.3464 66.3903 68.2845 66.3903C68.3959 66.3903 68.4949 66.4156 68.6311 66.4156C68.5692 66.4156 68.5197 66.4156 68.4825 66.4156ZM68.1854 38.6685C67.8388 38.8544 67.6779 38.5418 68.9158 38.3814C68.7053 38.5165 68.3959 38.4827 68.1854 38.6685ZM69.1139 54.81C69.1881 54.81 69.2624 54.734 69.3614 54.7593C69.2748 54.7847 69.1881 54.7847 69.1139 54.81ZM69.7204 35.5264C69.6709 35.6784 69.3862 35.746 69.1262 35.822C69.3119 35.7038 69.1757 35.8643 69.7452 35.4757C69.7204 35.4757 69.7947 35.5011 69.7204 35.5264ZM70.5251 27.0376C70.5003 26.9784 70.4384 26.9784 70.686 26.9869C70.6612 27.0122 70.5622 27.0122 70.5251 27.0376ZM71.243 42.4949C71.2059 42.4695 71.1069 42.4695 71.045 42.4442C71.1192 42.4188 71.144 42.4188 71.243 42.3935C71.1811 42.4442 71.2802 42.4442 71.243 42.4949ZM72.2829 52.124H72.2581L72.2829 52.0986V52.124ZM71.8372 33.3979C72.7038 33.3979 73.6198 33.4485 74.4863 33.4232C73.595 33.4739 72.6914 33.6597 71.8372 33.3979ZM76.3432 43.9223C76.3679 43.9054 76.3803 43.9054 76.5412 43.897C76.4546 43.8885 76.4174 43.8885 76.3432 43.9223ZM78.2371 58.5603C78.2 58.611 78.101 58.6701 77.9277 58.687C78.0143 58.6617 77.9896 58.6532 78.3114 58.5265C78.2866 58.5434 78.2619 58.5518 78.2371 58.5603ZM79.2646 41.9374C79.1903 41.912 79.0665 41.9627 78.9922 41.9374C79.2398 41.9627 79.3636 41.8276 79.5369 41.8022C79.4503 41.8614 79.3389 41.8867 79.2646 41.9374ZM79.9826 39.8595C80.094 39.8342 80.2178 39.8342 80.3168 39.7835C80.2301 39.8342 80.094 39.8342 79.9826 39.8595ZM80.5025 23.6927C80.5149 23.7012 80.4901 23.6589 80.6015 23.6674C80.5396 23.6927 80.5396 23.6927 80.5025 23.6927ZM82.1241 37.6127C82.186 37.6381 82.2232 37.6381 82.2603 37.6381C82.1365 37.6212 82.2108 37.6381 82.1241 37.6127ZM83.8819 67.8938C83.9067 67.8684 83.9191 67.8431 83.9067 67.8178C83.9686 67.8178 84.0181 67.8178 84.1048 67.8178C84.0181 67.8431 83.9562 67.8684 83.8819 67.8938ZM84.2038 42.4188C83.8572 42.4357 84.0552 42.4273 83.6467 42.3259C83.3125 42.2752 83.3868 42.309 83.2135 42.233C83.4115 42.2668 83.5477 42.3006 83.6467 42.3259C83.7705 42.3428 83.9438 42.3682 84.2162 42.4188C84.2038 42.4188 84.2038 42.4188 84.2038 42.4188ZM85.1198 24.9006C85.0951 24.8752 85.0827 24.8752 85.0827 24.8752C85.1198 24.8752 85.0827 24.8668 85.1817 24.9006C85.157 24.9006 85.1198 24.9006 85.1198 24.9006ZM86.0606 28.1779C86.0606 28.1948 86.1225 28.1441 86.1225 28.2032C86.0978 28.1779 86.0606 28.1779 86.0606 28.1779ZM85.2931 24.7485C85.4293 24.5374 85.9368 24.5374 86.3577 24.4867C85.9121 24.512 85.5655 24.5881 85.2931 24.7485ZM86.3949 63.8816C86.3949 63.8816 86.4196 63.8816 86.432 63.8816C86.4072 63.8816 86.4939 63.907 86.4691 63.9323C86.432 63.907 86.4072 63.907 86.3949 63.8816ZM86.89 17.2817C86.8776 17.248 86.9148 17.2733 86.8529 17.2311C86.8776 17.2311 86.9148 17.2564 86.9148 17.2564C86.9148 17.2564 86.89 17.2564 86.89 17.2817ZM87.7689 55.283H87.7442C87.7442 55.283 87.7689 55.283 87.7689 55.2577C87.7689 55.283 87.7689 55.283 87.7689 55.283ZM88.3879 53.2812C88.4126 53.3572 88.4869 53.4163 88.6231 53.467C88.4993 53.4163 88.3879 53.391 88.3879 53.2812ZM88.6973 24.6641C88.6602 24.6387 88.5983 24.6641 88.5488 24.6641C88.5859 24.6387 88.685 24.6387 88.7221 24.6134C88.7097 24.6387 88.6726 24.6387 88.6973 24.6641ZM89.2296 55.0718C89.1925 55.0718 89.1677 55.0972 89.1306 55.0972C89.1677 55.0718 89.2049 55.0718 89.242 55.0465C89.2544 55.0718 89.2296 55.0718 89.2296 55.0718ZM89.502 33.2881C89.601 33.2712 89.6877 33.2458 89.7619 33.1867C89.7867 33.212 89.7991 33.2374 89.8362 33.2627C89.7372 33.2543 89.6134 33.2712 89.502 33.2881ZM90.1581 52.7237C90.1581 52.7068 90.1581 52.6983 90.1581 52.6899C90.1581 52.6983 90.1581 52.7152 90.1828 52.7237H90.1581ZM90.1581 52.6308C90.1704 52.6308 90.1333 52.6054 90.1828 52.597C90.1704 52.6139 90.1704 52.6223 90.1581 52.6308ZM90.319 59.3205C90.3314 59.3205 90.3437 59.312 90.3437 59.3458L90.319 59.3205ZM90.1828 34.2679C90.1581 34.2425 90.1085 34.2425 90.0838 34.2425C90.2447 34.2425 90.2571 34.2425 90.3685 34.2425C90.319 34.2425 90.2571 34.2679 90.1828 34.2679ZM91.0493 13.9369C90.9751 13.9115 90.876 13.9369 90.8018 13.9115C90.9008 13.8862 91.0122 13.9115 91.136 13.8609C91.1112 13.8778 91.0741 13.9031 91.0493 13.9369ZM91.953 65.7568C91.9902 65.7737 91.953 65.7483 91.9778 65.8328C91.9406 65.8244 91.9654 65.8413 91.953 65.7568ZM92.1139 49.193C92.1139 49.193 92.0892 49.193 92.0768 49.193C92.1016 49.193 92.1139 49.1677 92.1139 49.1677V49.193ZM92.4234 27.0376H92.3987C92.3987 27.0376 92.4358 27.0376 92.4358 27.0122C92.4358 27.0376 92.4234 27.0376 92.4234 27.0376ZM92.5348 26.3787C92.5224 26.3872 92.5101 26.3534 92.5348 26.3534L92.5596 26.3787H92.5348ZM93.0795 26.4041C93.0424 26.3787 93.1166 26.3787 93.0547 26.3534C93.0795 26.3534 93.0919 26.3534 93.1166 26.3534C93.1043 26.3787 93.1042 26.3787 93.0795 26.4041ZM93.587 32.2322C93.587 32.2322 93.587 32.2322 93.5623 32.2069C93.5747 32.2069 93.7851 32.2069 93.587 32.2322ZM93.8346 68.2654C93.8594 68.2401 93.8346 68.2148 93.8346 68.2148C93.8965 68.2148 93.946 68.2401 93.9832 68.2654C93.9336 68.2654 93.8717 68.2654 93.8346 68.2654ZM94.4659 43.1283C94.4783 43.1199 94.404 43.027 94.5031 43.103C94.4907 43.103 94.4659 43.1283 94.4659 43.1283ZM93.9336 37.2749C94.1317 37.2242 94.3421 37.2495 94.5278 37.3002C94.3298 37.3002 94.1193 37.2749 93.9336 37.2749ZM94.5526 63.8816C94.7135 63.7718 94.9735 63.7212 95.4563 63.7465C95.122 63.7803 94.763 63.7803 94.5526 63.8816ZM95.8648 68.4428C95.9019 68.4428 95.9762 68.4175 96.0009 68.4428C95.9514 68.4428 95.9143 68.4428 95.8648 68.4428ZM96.5951 28.5411C96.558 28.5157 96.5951 28.4904 96.5704 28.465C96.5951 28.4904 96.5951 28.5157 96.6322 28.5157C96.6322 28.5157 96.5951 28.5157 96.5951 28.5411ZM216.46 43.8125L216.436 43.7872C216.448 43.7872 216.51 43.7872 216.46 43.8125ZM212.821 35.6362C212.796 35.6615 212.846 35.6615 212.846 35.6869C212.821 35.6615 212.809 35.6615 212.784 35.6362C212.784 35.6362 212.809 35.6362 212.821 35.6362ZM190.192 27.2741C190.229 27.291 190.304 27.2825 190.39 27.3416C190.366 27.3248 190.316 27.3079 190.229 27.2994C190.229 27.291 190.192 27.3248 190.168 27.2741C190.18 27.2741 190.18 27.2741 190.192 27.2741ZM187.333 51.0935C187.345 51.0935 187.382 51.1357 187.296 51.1188L187.333 51.0935ZM186.008 37.8492C185.996 37.8492 186.07 37.8408 186.045 37.8746C186.045 37.8746 185.946 37.883 186.008 37.8492ZM182.295 29.5209C182.22 29.5631 182.282 29.5462 182.059 29.5209C182.134 29.4955 182.22 29.5462 182.295 29.5209ZM174.335 24.7485C174.335 24.7316 174.273 24.7823 174.273 24.7232C174.285 24.7485 174.31 24.7485 174.335 24.7485ZM174.31 26.3027C174.285 26.252 174.273 26.2858 174.285 26.2014C174.273 26.1929 174.347 26.3027 174.31 26.3027ZM97.8949 21.8176C97.6968 21.9189 97.8825 21.8345 97.4121 21.8936C97.4245 21.9105 97.7959 21.7584 97.932 21.8176C97.932 21.8176 97.9073 21.8176 97.8949 21.8176ZM98.6748 60.5621C98.7738 60.5115 98.8728 60.4523 98.9471 60.3763C98.8976 60.5452 98.9224 60.4946 98.6748 60.5621C98.5262 60.6381 98.3653 60.6973 98.1796 60.748C98.4272 60.6382 98.5757 60.5959 98.6748 60.5621ZM98.7491 60.976C98.6748 61.0014 98.6129 61.0182 98.5757 60.9845C98.6253 60.9845 98.6872 60.976 98.7491 60.976C98.9347 60.9084 173.481 60.748 173.951 61.0351C173.617 60.9253 99.0461 60.9591 98.7491 60.976ZM173.926 52.7575C173.926 52.7321 173.865 52.7321 173.902 52.7068C173.902 52.7321 173.926 52.7321 173.939 52.7575H173.926ZM174.211 68.3921C174.236 68.3668 174.248 68.3668 174.273 68.3415C174.31 68.3668 174.347 68.3668 174.409 68.3921C174.335 68.3921 174.273 68.3921 174.211 68.3921ZM174.644 19.6552C174.62 19.6552 174.62 19.6552 174.62 19.6299C174.62 19.6552 174.644 19.6299 174.644 19.6299C174.644 19.6552 174.644 19.6552 174.644 19.6552ZM177.813 58.4251C177.838 58.4336 177.863 58.3829 177.962 58.4251C177.937 58.4251 177.875 58.4251 177.813 58.4251ZM179.138 13.1682C179.163 13.1936 179.2 13.1936 179.212 13.2189C179.138 13.1936 179.014 13.1936 178.94 13.1682C179.027 13.1682 179.064 13.1682 179.138 13.1682ZM179.658 56.8963C179.497 56.7865 179.373 56.7612 179.212 56.6345C179.485 56.7105 179.596 56.7105 179.831 56.7696C179.72 56.7865 179.745 56.8456 179.658 56.8963ZM180.029 67.0491C180.004 67.0238 180.004 67.0238 179.967 67.0238C180.029 67.0238 180.042 67.0238 180.104 67.0238C180.091 67.0238 180.054 67.0238 180.029 67.0491ZM180.066 14.1734C180.042 14.1481 180.004 14.1481 179.967 14.1481C180.066 14.1227 180.178 14.1481 180.252 14.1227C180.227 14.1481 180.103 14.1143 180.066 14.1734ZM180.673 58.1042C180.698 58.1042 180.735 58.1295 180.747 58.1549C180.685 58.1549 180.636 58.1549 180.574 58.1549C180.611 58.1042 180.611 58.138 180.673 58.1042ZM180.722 64.8361C180.698 64.8108 180.661 64.8361 180.648 64.8108C180.648 64.8108 180.648 64.8108 180.648 64.7854C180.71 64.8108 180.76 64.8108 180.809 64.8108C180.76 64.8023 180.76 64.8023 180.722 64.8361ZM181.515 35.1885C181.799 35.1125 182.072 35.1885 182.369 35.1885C182.096 35.1885 181.799 35.1885 181.515 35.1885ZM183.223 21.7922C183.26 21.7669 183.384 21.7669 183.421 21.7669C183.359 21.7922 183.272 21.7669 183.223 21.7922ZM183.929 32.8404C183.891 32.8404 183.891 32.815 183.854 32.815C183.99 32.815 184.127 32.7897 184.263 32.7644C184.164 32.7897 183.99 32.7897 183.929 32.8404ZM184.325 27.9667C184.337 27.9751 184.3 27.9329 184.362 27.9414C184.337 27.9667 184.337 27.9667 184.325 27.9667ZM184.845 15.8627C184.845 15.8374 184.733 15.8627 184.708 15.8374C184.783 15.8374 184.845 15.812 184.882 15.7867C184.882 15.8036 184.857 15.8289 184.845 15.8627ZM185.08 55.7307C185.117 55.7053 185.117 55.68 185.142 55.6547C185.117 55.68 185.129 55.7053 185.08 55.7307ZM185.389 32.6039C185.501 32.6715 185.414 32.6123 185.563 32.7644C185.439 32.7813 185.464 32.7728 185.352 32.6292C185.365 32.6039 185.365 32.6039 185.389 32.6039ZM185.959 45.316C185.823 45.3667 185.575 45.2907 185.377 45.316C185.575 45.316 185.773 45.2907 185.959 45.316ZM185.513 65.7315C185.525 65.723 185.538 65.6808 185.6 65.7315C185.563 65.7315 185.525 65.7315 185.513 65.7315ZM185.736 56.3135C185.872 56.3642 186.008 56.4233 186.157 56.4486C186.008 56.4233 185.847 56.3895 185.736 56.3135ZM186.293 51.5918C186.318 51.5581 186.293 51.5665 186.33 51.6172C186.318 51.5918 186.318 51.5918 186.293 51.5918ZM186.355 32.4434C186.342 32.4434 186.305 32.4012 186.392 32.4181C186.355 32.4181 186.392 32.4434 186.355 32.4434ZM187.358 53.3572C187.32 53.3318 187.32 53.3318 187.283 53.3065C187.444 53.3318 187.518 53.2812 187.655 53.3065C187.543 53.3318 187.407 53.3065 187.358 53.3572ZM187.853 61.2716C187.865 61.2716 187.939 61.221 188.014 61.2716C187.939 61.2716 187.939 61.2716 187.853 61.2716ZM188.187 46.6337C188.187 46.6337 188.187 46.6337 188.162 46.6337C188.187 46.6337 188.187 46.6083 188.187 46.6083V46.6337ZM189.041 42.309C189.041 42.3259 189.103 42.2752 189.103 42.3344C189.078 42.3344 189.053 42.309 189.041 42.309ZM189.078 29.1999L189.053 29.1746C189.115 29.1746 189.152 29.1492 189.19 29.1492C189.115 29.1746 189.153 29.1746 189.078 29.1999ZM189.351 45.2907C189.524 45.316 189.734 45.316 189.908 45.2907C189.71 45.316 189.524 45.2907 189.351 45.2907ZM189.66 55.7898C189.994 55.7645 190.205 55.8405 190.514 55.8658C190.217 55.8658 189.92 55.8151 189.66 55.7898ZM192.222 26.4885C192.161 26.4885 192.123 26.4632 192.086 26.4632C192.148 26.4632 192.185 26.4632 192.247 26.4632L192.222 26.4885ZM193.052 49.3788C193.163 49.4549 193.287 49.5393 193.436 49.59C193.176 49.5647 193.089 49.4549 193.052 49.3788ZM195.169 22.9494H195.144C195.144 22.9494 195.169 22.9494 195.181 22.9241C195.181 22.9494 195.169 22.9494 195.169 22.9494ZM195.28 29.9685C195.28 29.9685 195.243 29.9685 195.255 29.9432C195.255 29.9685 195.28 29.9685 195.292 29.9685C195.28 29.9685 195.28 29.9685 195.28 29.9685ZM196.035 18.0757C196.035 18.0757 196.01 18.0757 195.998 18.0757C196.035 18.0757 196.035 18.0757 196.035 18.0504C196.035 18.0757 196.035 18.0757 196.035 18.0757ZM196.258 56.3135C196.283 56.2966 196.345 56.2628 196.394 56.3642C196.394 56.3388 196.32 56.3135 196.258 56.3135ZM197.261 38.9388C197.298 38.9304 197.335 38.905 197.484 38.9642C197.409 38.9388 197.335 38.9388 197.261 38.9388ZM197.929 37.165C197.867 37.1397 197.793 37.1397 197.731 37.1144C197.805 37.1144 197.867 37.1144 197.942 37.089C197.942 37.1144 197.942 37.1397 197.929 37.165ZM198.585 43.973C198.585 43.973 198.585 43.973 198.56 43.973C198.585 43.973 198.585 43.973 198.585 43.9477C198.585 43.973 198.585 43.973 198.585 43.973ZM200.318 67.3363C200.294 67.3363 200.281 67.3363 200.281 67.3363C200.306 67.3025 200.331 67.2772 200.355 67.2434C200.343 67.2772 200.331 67.311 200.318 67.3363ZM200.318 32.0802C200.281 32.0042 200.17 32.0295 200.108 31.9788C200.207 31.9788 200.306 31.9788 200.355 31.9788C200.318 31.9957 200.38 32.0211 200.318 32.0802ZM200.454 67.1167C200.504 67.1336 200.454 66.9309 200.69 66.9984C200.578 67.0238 200.516 67.066 200.454 67.1167ZM201.581 44.0997C201.593 44.0913 201.581 44.0744 201.593 44.0659C201.569 44.0744 201.618 44.0997 201.581 44.0997ZM202.509 58.0282C202.707 58.0535 202.881 58.138 203.066 58.138C202.831 58.138 202.658 58.0788 202.509 58.0282ZM203.302 31.869C203.277 31.869 203.277 31.869 203.277 31.8437C203.302 31.869 203.302 31.8437 203.302 31.8437C203.302 31.869 203.302 31.869 203.302 31.869ZM204.143 56.5247C204.218 56.5247 204.28 56.55 204.341 56.6007C204.131 56.5162 204.131 56.5331 204.143 56.5247ZM205.753 56.3895C205.592 56.4149 205.468 56.4402 205.295 56.4655C205.468 56.4149 205.282 56.4571 205.839 56.3642C205.815 56.3895 205.777 56.3895 205.753 56.3895ZM205.765 21.8851C205.864 21.8682 206.025 21.8429 206.372 21.8767C206.161 21.8514 205.963 21.8682 205.765 21.8851ZM206.334 18.1264C206.322 18.1433 206.421 18.0842 206.446 18.1517C206.409 18.1517 206.372 18.1264 206.334 18.1264ZM207.04 38.905C207.238 38.8037 207.052 38.905 207.709 38.4912C207.56 38.6432 207.51 38.8459 207.04 38.905ZM207.882 38.035C207.882 38.0182 207.894 37.9844 207.919 38.035H207.882ZM208.402 18.7092C208.476 18.7346 208.513 18.7852 208.6 18.819C208.526 18.819 208.501 18.819 208.439 18.8444C208.464 18.7852 208.402 18.7599 208.402 18.7092ZM208.513 25.7452C208.934 25.9057 209.281 25.7452 209.652 25.7706C209.231 25.7706 209.058 25.9564 208.922 26.1676C208.86 26.0409 208.885 25.9057 208.513 25.7452ZM209.825 38.2716C209.553 38.2969 209.268 38.3222 209.008 38.3814C209.256 38.3053 209.541 38.2716 209.825 38.2716ZM209.565 67.4715C209.565 67.4715 209.541 67.4715 209.528 67.4715C209.565 67.4461 209.59 67.4208 209.603 67.3954C209.64 67.4461 209.503 67.4461 209.565 67.4715ZM209.825 47.7655C209.825 47.7655 209.825 47.7655 209.801 47.7402C209.838 47.7402 209.912 47.6895 209.825 47.7655ZM210.519 20.4746C210.506 20.4661 210.494 20.4577 210.481 20.4492C210.506 20.4492 210.519 20.4492 210.519 20.4492C210.63 20.6181 210.519 20.4577 210.939 20.7955C210.63 20.7195 210.481 20.6182 210.519 20.4746ZM210.952 43.7112C210.927 43.6858 210.952 43.6858 210.915 43.6605C210.952 43.6605 210.989 43.6605 211.026 43.6605C211.014 43.6858 210.977 43.6858 210.952 43.7112ZM211.633 25.7199C211.633 25.6861 211.645 25.7115 211.596 25.6946C211.608 25.6946 211.608 25.6946 211.695 25.6946C211.67 25.6946 211.645 25.6946 211.633 25.7199ZM211.855 61.0098C211.855 60.9845 211.818 60.9845 211.794 60.9845C211.794 60.9845 212.004 60.9676 211.855 61.0098ZM212.078 26.3534C212.078 26.3281 212.14 26.3027 212.115 26.3027C212.128 26.3027 212.115 26.2943 212.078 26.3534ZM212.536 37.5874C212.598 37.5114 212.549 37.4269 212.883 37.5367C212.747 37.5874 212.673 37.5367 212.536 37.5874ZM213.18 19.3681C213.18 19.3681 213.118 19.3427 213.106 19.3427C213.143 19.3427 213.18 19.3427 213.217 19.3427C213.217 19.3427 213.192 19.3681 213.18 19.3681ZM213.613 27.0376C213.626 27.0376 213.638 27.0291 213.638 27.0629C213.638 27.0629 213.638 27.0629 213.613 27.0376ZM214.009 36.2444C213.948 36.219 214.034 36.1937 214.009 36.1346C214.071 36.1599 214.121 36.1599 214.183 36.1852C214.096 36.1937 214.146 36.2697 214.009 36.2444ZM214.331 59.6077C214.331 59.5823 214.331 59.5823 214.331 59.5823L214.393 59.6077H214.331ZM215.73 55.5786H215.755C215.73 55.5871 215.73 55.5871 215.742 55.5955C215.73 55.5871 215.73 55.5786 215.73 55.5786ZM215.78 55.68C215.78 55.6378 215.755 55.6124 215.73 55.5871C215.755 55.604 215.854 55.6209 215.78 55.68ZM216.46 67.4208C216.46 67.3954 216.423 67.3954 216.436 67.3701C216.436 67.3954 216.473 67.3954 216.473 67.3954C216.46 67.387 216.46 67.4208 216.46 67.4208ZM217.389 38.7783C217.389 38.753 217.389 38.753 217.389 38.753C217.389 38.753 217.389 38.753 217.414 38.7277C217.389 38.753 217.389 38.753 217.389 38.7783ZM217.748 58.1042C217.723 58.0788 217.748 58.0535 217.711 58.0282C217.735 58.0282 217.773 58.0282 217.785 58.0028C217.748 58.0535 217.797 58.0788 217.748 58.1042ZM217.884 48.9058C217.909 48.9058 217.859 48.9058 217.859 48.9058L217.884 48.8805V48.9058ZM219.53 38.0604C219.667 38.1955 219.902 38.2462 220.224 38.2969C219.803 38.3053 219.555 38.2209 219.53 38.0604ZM220.187 31.472C220.187 31.4467 220.149 31.4214 220.125 31.396C220.125 31.396 220.31 31.3876 220.187 31.472ZM220.57 50.9583C220.57 50.933 220.57 50.9583 220.595 50.933C220.57 50.9246 220.669 50.9668 220.57 50.9583ZM221.462 21.3446C221.462 21.3192 221.437 21.3192 221.437 21.3192C221.474 21.3192 221.499 21.3192 221.536 21.3192C221.523 21.3192 221.486 21.3192 221.462 21.3446ZM221.981 69.448C221.994 69.4311 222.019 69.4057 222.019 69.448C222.006 69.448 221.994 69.448 221.981 69.448ZM221.746 69.2706C221.783 69.2621 221.821 69.2368 222.031 69.2959C221.944 69.2706 221.833 69.279 221.746 69.2706ZM221.672 25.5594C221.759 25.5763 221.759 25.5172 222.019 25.6354C221.944 25.5932 221.796 25.5932 221.672 25.5594ZM225.027 24.7992C224.952 24.7992 224.866 24.7739 224.791 24.7485C224.866 24.7485 224.94 24.7739 225.027 24.7485C225.002 24.7739 225.039 24.7739 225.027 24.7992ZM309.884 36.1937C309.86 36.1937 309.847 36.219 309.847 36.219C309.847 36.2106 309.86 36.1768 309.81 36.1937C309.872 36.1937 309.946 36.1683 310.021 36.1683C309.983 36.1937 309.909 36.1683 309.86 36.1937C309.884 36.1937 309.86 36.1937 309.884 36.1937ZM309.686 34.3946C309.748 34.3946 309.748 34.4452 309.822 34.4199C309.785 34.4452 309.711 34.4706 309.649 34.4959C309.662 34.479 309.748 34.4283 309.686 34.3946ZM297.283 30.6527C297.27 30.6781 297.307 30.6781 297.245 30.6781C297.258 30.6781 297.283 30.6781 297.283 30.6527ZM297.06 14.4606L297.085 14.4859C297.023 14.4859 296.973 14.4859 296.924 14.4859C296.948 14.4606 297.023 14.4859 297.06 14.4606ZM290.982 37.5114C291.006 37.5367 290.982 37.5367 291.006 37.562C290.945 37.5536 290.982 37.562 290.982 37.5114ZM290.808 28.389C290.771 28.3637 290.709 28.3637 290.66 28.3637C290.796 28.3806 290.747 28.3806 290.808 28.389ZM287.02 37.3255C287.058 37.3509 287.045 37.3762 287.082 37.4015C287.082 37.4015 287.008 37.3762 286.971 37.3762C287.02 37.3509 286.983 37.3509 287.02 37.3255ZM283.133 42.8918H283.158L283.133 42.9172C283.133 42.8918 283.133 42.8918 283.133 42.8918ZM282.032 53.9907C282.057 53.94 282.069 53.9147 282.106 53.8302C282.378 54.092 282.762 54.0414 283.072 54.1765C282.663 54.1005 282.242 53.9907 282.032 53.9907ZM282.762 69.051C282.762 69.051 282.787 69.051 282.762 69.0763C282.774 69.0848 282.725 68.9918 282.762 69.051ZM282.341 13.2696C282.378 13.2696 282.415 13.2696 282.477 13.2696C282.44 13.2949 282.341 13.2949 282.304 13.3203C282.304 13.3034 282.341 13.3034 282.341 13.2696ZM282.131 42.309C281.747 42.4188 282.056 42.309 281.227 42.5202C281.363 42.385 281.277 42.5202 282.131 42.309ZM274.53 36.3795C274.53 36.3964 274.518 36.4049 274.518 36.4302C274.518 36.4133 274.518 36.4049 274.505 36.3795H274.53ZM274.567 36.5569C274.505 36.5147 274.53 36.5231 274.518 36.4302C274.518 36.4555 274.53 36.4893 274.567 36.5569ZM269.665 48.247C269.566 48.2977 269.665 48.247 269.331 48.323C269.368 48.2723 269.306 48.3146 269.665 48.247ZM267.883 28.2285C267.883 28.2285 267.907 28.2285 267.92 28.2539C267.895 28.2539 267.883 28.2539 267.858 28.2539C267.883 28.2285 267.87 28.2285 267.883 28.2285ZM266.434 13.6413C266.434 13.6413 266.509 13.6413 266.57 13.6413C266.533 13.6666 266.471 13.6413 266.434 13.6666C266.434 13.6413 266.434 13.6413 266.434 13.6413ZM260.381 26.9362C260.381 26.97 260.393 26.9615 260.344 26.9362C260.369 26.9362 260.369 26.9362 260.381 26.9362ZM260.307 24.4529C260.27 24.4529 260.307 24.4529 260.208 24.4529C260.319 24.3938 260.195 24.3093 260.307 24.4529ZM253.003 23.245C253.065 23.2704 253.077 23.2957 253.115 23.3211C253.003 23.3464 252.83 23.3717 252.669 23.3971C252.793 23.3211 252.892 23.3464 253.003 23.245ZM247.977 24.9344C247.965 24.9428 247.99 24.9766 247.903 24.9597C247.94 24.9597 247.965 24.9344 247.977 24.9344ZM231.34 41.0674L231.365 41.0927C231.315 41.0843 231.278 41.0758 231.229 41.0758C231.266 41.0758 231.303 41.0843 231.34 41.0674ZM226.822 67.9191C226.859 67.9445 226.871 67.9191 226.884 68.0543C226.834 67.9951 226.871 67.9445 226.822 67.9191ZM227.75 54.2018C227.713 54.2018 227.515 54.2018 227.787 54.1765C227.762 54.2018 227.75 54.2018 227.75 54.2018ZM228.01 51.8537C228.035 51.8199 228.022 51.8199 228.109 51.8537C228.06 51.8537 228.06 51.8537 228.01 51.8537ZM229.136 60.5621C229.112 60.5621 229.099 60.5621 229.099 60.5621C229.124 60.5368 229.137 60.5368 229.174 60.5368C229.161 60.5621 229.136 60.5368 229.136 60.5621ZM229.52 21.2348C229.372 21.1841 229.508 21.277 229.075 21.1587C229.359 21.1841 229.458 21.1841 229.533 21.1841C229.52 21.2094 229.545 21.2094 229.52 21.2348ZM229.78 44.6318C229.805 44.6065 229.817 44.6065 229.817 44.5812C229.854 44.6065 229.929 44.6065 229.954 44.6318C229.892 44.6318 229.83 44.6318 229.78 44.6318ZM230.82 43.179C230.721 43.2044 230.709 43.1199 230.436 43.255C231.03 42.9003 230.436 43.179 232.293 43.0439C231.823 43.179 231.315 43.2044 230.82 43.179ZM232.058 16.5722C232.095 16.5722 232.095 16.4878 232.293 16.5469C232.206 16.5722 232.107 16.5469 232.058 16.5722ZM232.85 41.8107C232.85 41.7853 232.85 41.7853 232.85 41.76C232.875 41.7853 232.912 41.76 232.912 41.76C232.887 41.7853 232.887 41.7853 232.85 41.8107ZM233.964 68.975C233.94 68.975 233.94 68.975 233.94 68.975C233.964 68.975 233.977 68.9496 234.001 68.9496L233.964 68.975ZM233.791 61.1703C233.791 61.1449 233.865 61.145 233.865 61.0943C233.927 61.1196 233.964 61.0943 234.014 61.0943C233.952 61.1112 233.878 61.1365 233.791 61.1703ZM233.989 23.7181C234.001 23.7096 234.026 23.6758 234.088 23.7181C234.039 23.7181 234.014 23.7181 233.989 23.7181ZM234.967 46.583C234.967 46.583 234.967 46.5577 234.967 46.5323C235.004 46.5577 235.066 46.5577 235.103 46.583C235.066 46.583 235.016 46.583 234.967 46.583ZM236.056 62.0656C236.056 61.8798 235.871 61.846 236.576 61.9643C236.366 61.9558 236.168 61.9812 236.056 62.0656ZM236.91 39.302C236.972 39.3274 237.022 39.1753 237.294 39.2767C237.084 39.2514 237.096 39.302 236.91 39.302ZM237.653 66.6521C237.591 66.6268 237.591 66.6015 237.542 66.5761C237.616 66.6015 237.616 66.6268 237.678 66.6521H237.653ZM237.876 27.6204C237.864 27.6288 238.025 27.5275 237.987 27.6457C237.95 27.6204 237.888 27.6204 237.876 27.6204ZM238.359 24.3769C238.334 24.3515 238.334 24.3515 238.322 24.3262C238.359 24.3262 238.384 24.3515 238.421 24.3515C238.408 24.3515 238.371 24.3515 238.359 24.3769ZM239.262 39.0655C239.287 39.0655 239.262 39.0655 239.337 39.0655C239.362 39.0824 239.349 39.074 239.262 39.0655ZM241.095 53.467C241.095 53.4585 241.107 53.4923 241.057 53.4923C241.082 53.467 241.095 53.467 241.095 53.467ZM241.082 63.907C241.057 63.8817 241.082 63.8563 241.082 63.831C241.218 63.8563 241.33 63.831 241.454 63.8056C241.355 63.831 241.355 63.907 241.082 63.907ZM241.751 61.8798H241.726L241.751 61.8545C241.751 61.8798 241.751 61.8798 241.751 61.8798ZM242.048 30.129C242.246 30.205 242.531 30.2304 242.815 30.2642C242.506 30.2557 242.221 30.2304 242.048 30.129ZM244.796 55.1563C244.883 55.1394 244.92 55.1732 244.969 55.1901C244.907 55.1816 244.845 55.1732 244.796 55.1563ZM245.081 55.207C245.056 55.1985 245.031 55.1985 245.006 55.1901C245.031 55.1901 245.056 55.1901 245.081 55.1732C245.081 55.207 245.081 55.207 245.081 55.207ZM245.118 58.7123C245.142 58.7292 245.118 58.6448 245.155 58.7123C245.155 58.7123 245.142 58.7123 245.118 58.7123ZM245.192 35.1632C245.167 35.1379 245.155 35.1379 245.155 35.1125C245.217 35.1885 245.353 35.1379 245.402 35.1885C245.353 35.1885 245.279 35.1632 245.192 35.1632ZM245.427 25.382C245.081 25.4074 245.341 25.382 244.672 25.5172C244.796 25.4327 244.771 25.5087 245.427 25.3567C245.427 25.382 245.427 25.382 245.427 25.382ZM247.049 51.6172C246.999 51.575 247.049 51.6172 247.012 51.482C247.049 51.482 247.086 51.482 247.123 51.482C247.074 51.5158 247.036 51.5665 247.049 51.6172ZM247.036 32.4518C247.185 32.4349 247.197 32.3505 248.089 32.5279C247.779 32.4518 247.408 32.4687 247.036 32.4518ZM248.831 13.4554C248.757 13.4301 248.67 13.4554 248.621 13.4301C248.819 13.4048 249.029 13.4301 249.215 13.4301C249.079 13.4301 248.943 13.4301 248.831 13.4554ZM249.314 66.7282C249.289 66.6775 249.376 66.6775 249.339 66.6521C249.401 66.6521 249.376 66.6775 249.438 66.6775C249.388 66.6775 249.351 66.7028 249.314 66.7282ZM249.797 37.7732C249.884 37.7732 249.958 37.7056 250.082 37.7985C249.983 37.7985 249.908 37.7732 249.797 37.7732ZM251.084 50.8316C252.025 50.5614 251.146 50.781 253.325 50.3586C252.78 50.536 253.325 50.3333 251.295 50.8063C251.406 50.8063 251.468 50.8063 251.567 50.8316C251.48 50.8316 251.208 50.8316 251.084 50.8316ZM253.003 48.5595C252.83 48.6102 252.669 48.6693 252.446 48.6693C252.595 48.5849 252.805 48.5849 253.003 48.5595ZM252.892 43.6858C252.904 43.6436 252.867 43.5507 252.966 43.6605C252.904 43.652 252.929 43.6858 252.892 43.6858ZM253.684 64.2955C253.585 64.3631 253.498 64.4391 253.275 64.4645C253.399 64.4222 253.313 64.4476 253.684 64.2955C253.696 64.2871 253.721 64.2871 253.733 64.2786C253.709 64.2871 253.709 64.2871 253.684 64.2955ZM253.511 26.4041C253.127 26.4294 253.412 26.6152 252.273 26.5392C252.731 26.4801 252.236 26.5983 253.374 26.4041C253.746 26.3787 253.474 26.3787 254.13 26.4041C253.932 26.3872 253.721 26.3956 253.511 26.4041ZM254.303 25.0611C254.34 25.0273 254.303 24.9682 254.414 25.0611C254.377 25.0611 254.34 25.0611 254.303 25.0611ZM254.699 65.4358C254.637 65.4274 254.699 65.4358 254.501 65.4105C254.55 65.4189 254.575 65.3851 254.711 65.4358H254.699ZM254.687 38.5165C254.724 38.4912 254.711 38.4658 254.711 38.4658C254.773 38.4658 254.848 38.4912 254.885 38.4912C254.798 38.5165 254.786 38.4827 254.687 38.5165ZM254.959 65.5203C254.934 65.4949 254.934 65.4949 254.897 65.4949H254.971C254.971 65.4949 254.959 65.4949 254.959 65.5203ZM255.59 36.8018C255.615 36.8018 255.59 36.7765 255.615 36.7512C255.64 36.7765 255.652 36.8018 255.677 36.8272C255.627 36.8272 255.615 36.8018 255.59 36.8018ZM255.454 30.999C255.516 31.1849 255.863 31.2609 256.073 31.396C255.578 31.3622 255.281 31.2609 255.454 30.999ZM257.076 33.8202C257.101 33.8202 257.088 33.8202 257.138 33.8371C257.125 33.8286 257.113 33.8202 257.076 33.8202ZM257.237 27.3585C257.237 27.3332 257.224 27.3332 257.2 27.3163C257.261 27.3248 257.596 27.3248 257.237 27.3585ZM257.719 19.5792C257.719 19.6046 257.831 19.461 257.868 19.5792C257.819 19.5539 257.794 19.5792 257.719 19.5792ZM258.066 24.2417C258.029 24.2164 258.091 24.1911 258.091 24.1657C258.091 24.1911 258.066 24.2164 258.066 24.2417ZM258.227 64.4138C258.252 64.4138 258.239 64.4053 258.252 64.4391C258.227 64.4391 258.239 64.4138 258.227 64.4138ZM258.623 36.9285C258.623 36.9032 258.586 36.8525 258.561 36.8187C258.697 36.8441 258.796 36.8187 258.908 36.8187C258.821 36.8525 258.722 36.8779 258.623 36.9285ZM258.512 31.869C258.759 31.8183 259.032 31.869 259.329 31.8183C259.032 31.869 258.784 31.8437 258.512 31.869ZM259.985 48.8805C260.034 48.9143 260.22 48.5595 260.393 48.8805C260.27 48.8805 260.121 48.8805 259.985 48.8805ZM260.604 46.0847C260.579 46.0847 260.542 46.0931 260.517 46.1016C260.554 46.0762 260.591 46.0255 260.864 46.0593C260.728 46.0593 260.69 46.0847 260.604 46.0847ZM261.148 36.4302C260.728 36.5569 260.22 36.5315 259.712 36.5062C259.985 36.5062 260.158 36.388 261.148 36.4302C261.173 36.4217 261.198 36.4217 261.223 36.4133C261.334 36.4217 261.446 36.4302 261.545 36.4555C261.396 36.4471 261.272 36.4386 261.148 36.4302ZM262.646 64.9375C262.671 64.9459 262.683 64.9206 262.708 64.9628C262.683 64.9628 262.671 64.9375 262.646 64.9375ZM264.095 37.0637C264.095 37.013 264.095 36.9877 264.095 36.9285C264.132 36.9792 264.119 37.013 264.095 37.0637ZM264.231 65.3345C264.317 65.3429 264.28 65.3345 264.379 65.4105C264.367 65.3598 264.231 65.3851 264.231 65.3345ZM264.342 41.836C264.441 41.836 264.417 41.7853 264.54 41.76C264.441 41.8951 264.676 41.8698 264.652 41.9712C264.54 41.912 264.429 41.8614 264.342 41.836ZM264.986 53.6528C264.986 53.6275 265.011 53.6275 265.011 53.6275C264.986 53.6528 265.048 53.6528 265.035 53.6782C265.011 53.6528 264.986 53.6528 264.986 53.6528ZM265.444 62.4626C265.444 62.4204 265.407 62.4288 265.543 62.4626C265.506 62.4626 265.493 62.4626 265.444 62.4626ZM266.41 28.8874C266.521 28.9127 266.608 28.9381 266.781 28.862C266.669 28.9381 266.533 28.9634 266.41 28.8874ZM267.165 13.5906C267.338 13.6497 267.313 13.6328 267.449 13.6666C267.363 13.6497 267.239 13.6244 267.041 13.6159C267.078 13.5906 267.127 13.6159 267.165 13.5906ZM267.387 46.6083C267.35 46.6083 267.313 46.6083 267.288 46.6083C267.288 46.6083 267.313 46.583 267.288 46.583C267.326 46.583 267.338 46.583 267.387 46.6083ZM267.301 28.2539C267.301 28.2285 267.301 28.2539 267.326 28.2285C267.288 28.2201 267.437 28.2623 267.301 28.2539ZM267.127 62.7751C267.152 62.7498 267.152 62.7751 267.165 62.7498C267.152 62.7414 267.214 62.7836 267.127 62.7751ZM267.189 70.394C267.152 70.3686 267.09 70.3686 267.053 70.3686C267.127 70.3686 267.251 70.3433 267.338 70.3686C267.301 70.394 267.227 70.3686 267.189 70.394ZM267.326 50.46C267.326 50.46 267.301 50.46 267.288 50.46C267.301 50.46 267.313 50.4093 267.363 50.46C267.363 50.46 267.338 50.46 267.326 50.46ZM267.363 48.5342C267.387 48.5342 267.4 48.5342 267.4 48.5342C267.375 48.5849 267.474 48.5849 267.511 48.6355C267.338 48.6102 267.264 48.5849 267.363 48.5342ZM267.994 28.8367C267.796 28.8114 267.61 28.786 267.412 28.8114C267.796 28.7607 268.18 28.7353 268.489 28.8367C268.291 28.7776 268.155 28.862 267.994 28.8367ZM268.7 65.3091C268.737 65.1993 268.724 65.2922 268.601 65.1233C268.774 65.0726 268.588 65.1486 268.774 65.3091C268.774 65.3091 268.712 65.3091 268.7 65.3091ZM269.455 49.2437C269.479 49.3197 269.665 49.3197 269.801 49.3788C269.603 49.3788 269.529 49.3788 269.071 49.4042C269.281 49.3535 269.319 49.3028 269.455 49.2437ZM269.603 66.7028C269.603 66.7282 269.541 66.7282 269.541 66.7535C269.504 66.7282 269.517 66.7282 269.504 66.7028C269.541 66.7028 269.566 66.7282 269.603 66.7028ZM269.504 68.1303C269.591 68.1218 269.925 68.1472 270.012 68.2908C269.876 68.2063 269.678 68.181 269.504 68.1303ZM270.433 54.734C270.482 54.7424 270.457 54.734 270.532 54.7847C270.495 54.7593 270.47 54.7593 270.433 54.734ZM272.673 23.3211C272.748 23.3295 272.748 23.2957 272.822 23.3971C272.475 23.2704 272.76 23.338 271.918 23.3211C272.19 23.2788 272.463 23.245 272.673 23.3211ZM272.76 45.3414C272.636 45.3498 272.686 45.3498 272.537 45.3751C272.574 45.3667 272.636 45.3582 272.76 45.316C272.76 45.3414 272.76 45.3414 272.76 45.3414ZM272.884 31.5227C272.896 31.4974 272.785 31.4974 272.921 31.4974C272.933 31.4974 272.908 31.5227 272.884 31.5227ZM272.698 27.519C272.525 27.4937 272.351 27.4683 272.166 27.4515C272.104 27.4599 272.054 27.4515 271.98 27.4599C272.624 27.4008 272.488 27.4008 272.698 27.519C273.057 27.5782 273.354 27.6626 273.552 27.8062C273.032 27.6711 272.809 27.5782 272.698 27.519ZM274.084 19.8157C274.035 19.8073 273.985 19.7988 273.936 19.7904C273.899 19.7988 274.208 19.765 274.084 19.8157ZM274.208 43.7618C274.208 43.7618 274.184 43.7365 274.184 43.7112C274.208 43.7365 274.184 43.7365 274.221 43.7618C274.208 43.7618 274.221 43.7618 274.208 43.7618ZM274.283 51.2286C274.283 51.2286 274.258 51.2286 274.245 51.2286C274.283 51.2033 274.307 51.2033 274.32 51.178C274.332 51.2117 274.406 51.1864 274.283 51.2286ZM274.382 47.3517H274.344C274.307 47.3685 274.456 47.2841 274.382 47.3517ZM274.32 41.1518C274.344 41.1603 274.357 41.0082 274.592 41.042C274.592 41.1265 274.629 41.0674 274.32 41.1518ZM275.978 56.3642C276.09 56.3642 276.189 56.3895 276.325 56.3895C276.189 56.4233 276.102 56.3642 275.978 56.3642ZM276.622 19.5792C276.622 19.5792 276.597 19.5539 276.585 19.5539C276.61 19.5539 276.622 19.5539 276.647 19.5539L276.622 19.5792ZM276.808 55.0718C276.808 55.1056 276.956 54.9874 276.981 55.0972C276.932 55.0972 276.87 55.0718 276.808 55.0718ZM277.489 41.439C277.513 41.4137 277.489 41.4137 277.489 41.4137C277.526 41.4137 277.563 41.4137 277.6 41.4137C277.563 41.4137 277.551 41.4137 277.489 41.439ZM278.702 70.0561C278.677 70.0308 278.702 70.0308 278.677 70.0054C278.739 70.0308 278.677 70.0308 278.739 70.0561C278.739 70.0561 278.727 70.0561 278.702 70.0561ZM278.355 27.9667C278.467 27.916 278.355 27.9582 278.813 27.916C278.689 27.9667 278.491 27.9076 278.355 27.9667ZM279.036 61.4828C278.999 61.4828 278.962 61.5082 278.925 61.5082C278.949 61.4828 279.024 61.4828 279.036 61.4575C279.036 61.4828 279.036 61.4828 279.036 61.4828ZM279.135 61.8798C279.172 61.8883 279.024 61.846 279.16 61.8545L279.135 61.8798ZM279.63 41.5742H279.605C279.63 41.5742 279.63 41.5742 279.63 41.5488C279.63 41.5742 279.63 41.5742 279.63 41.5742ZM279.754 69.845C279.766 69.8281 279.729 69.8281 279.865 69.8196C279.828 69.845 279.791 69.845 279.754 69.845ZM280.633 64.456C280.633 64.4307 280.633 64.4053 280.621 64.3884C280.645 64.3884 280.682 64.3884 280.682 64.3884C280.658 64.4053 280.645 64.4307 280.633 64.456ZM281.103 61.0774C281.091 61.0689 281.066 61.0689 281.054 61.0605C281.079 61.0605 281.079 61.0605 281.079 61.0605C281.24 61.1365 281.091 61.0689 281.462 61.1956C281.277 61.1703 281.178 61.1281 281.103 61.0774ZM282.032 59.4556C282.032 59.4556 282.032 59.4556 282.007 59.4303C282.118 59.481 282.242 59.4556 282.354 59.481C282.242 59.481 282.143 59.4556 282.032 59.4556ZM282.49 70.0308C282.774 70.0815 283.171 70.0561 283.418 70.1659C283.096 70.1321 282.787 70.1068 282.49 70.0308ZM283.517 15.9894C283.616 15.9894 283.691 15.9894 283.765 15.9894C283.703 16.0401 283.802 16.0992 283.802 16.1499C283.728 16.0992 283.579 16.0401 283.517 15.9894ZM284.074 20.6604H284.111C284.099 20.6604 284.099 20.6857 284.074 20.6604ZM284.136 20.6604C284.136 20.635 284.062 20.635 284.037 20.6097C284.074 20.6097 284.136 20.635 284.186 20.635C284.161 20.635 284.161 20.6604 284.136 20.6604ZM284.78 63.5945C284.755 63.51 284.557 63.358 285.027 63.4931C284.928 63.51 284.867 63.5691 284.78 63.5945ZM285.572 59.8442H285.51L285.572 59.8188V59.8442ZM286.03 22.3497C286.203 22.4004 286.142 22.2061 286.624 22.3244C286.414 22.3497 286.265 22.375 286.03 22.3497ZM286.513 63.434C286.822 63.51 287.107 63.4847 287.441 63.3833C287.095 63.4847 286.674 63.5438 286.513 63.434ZM287.02 19.1315C287.095 19.1062 287.194 19.0809 287.231 19.0217C287.293 19.0724 287.392 19.0471 287.441 19.0978C287.206 19.0724 287.206 19.1315 287.02 19.1315ZM288.159 67.3616C288.159 67.3616 288.159 67.3616 288.135 67.3616C288.345 67.2012 288.196 67.0998 288.159 66.99C288.308 67.0998 288.333 67.2096 288.159 67.3616ZM288.605 54.0751C288.617 54.1005 288.778 53.9991 288.766 54.1005C288.692 54.0751 288.654 54.1005 288.605 54.0751ZM288.716 49.117C288.729 49.1085 288.766 49.0663 288.754 49.117H288.716ZM289.063 42.8665C289.026 42.8412 288.964 42.8412 288.902 42.8412C288.964 42.8412 289.001 42.8412 289.075 42.8412C289.088 42.8412 289.063 42.8412 289.063 42.8665ZM289.125 43.0185C289.125 43.0101 289.125 42.9932 289.113 42.9848C289.125 43.0016 289.125 43.0101 289.162 43.0185C289.162 43.0185 289.137 43.0185 289.125 43.0185ZM289.36 48.3484C289.323 48.323 289.261 48.323 289.224 48.2977C289.261 48.2977 289.323 48.2977 289.372 48.2977C289.36 48.323 289.372 48.323 289.36 48.3484ZM289.187 46.3718C289.125 45.9495 289.521 45.8735 289.707 45.637C289.546 45.8735 289.434 46.1353 289.187 46.3718ZM289.583 43.5C289.583 43.4747 289.583 43.4493 289.583 43.424C290.041 43.4916 289.769 43.4071 290.586 43.6098C290.425 43.6267 290.412 43.4578 289.583 43.5ZM290.462 51.7016C290.548 51.6932 290.647 51.651 291.18 51.7777C290.907 51.803 290.672 51.7608 290.462 51.7016ZM291.786 26.8264C291.786 26.8264 291.749 26.8264 291.724 26.8264C291.737 26.818 291.836 26.725 291.786 26.8264ZM292.294 33.0769C292.319 33.0515 292.294 33.0515 292.331 33.0262C292.356 33.0515 292.368 33.0515 292.405 33.0515C292.356 33.0515 292.356 33.0769 292.294 33.0769ZM292.48 28.4144C292.541 28.4144 292.504 28.3383 292.591 28.3383C292.541 28.3552 292.504 28.389 292.48 28.4144ZM292.678 69.3128C292.69 69.3044 292.653 69.3213 292.653 69.2621C292.69 69.2875 292.653 69.2875 292.69 69.3128C292.678 69.3128 292.678 69.3128 292.678 69.3128ZM293.123 50.4093C293.148 50.4093 293.148 50.4093 293.148 50.384C293.185 50.4093 293.222 50.384 293.259 50.4093C293.222 50.4093 293.16 50.4093 293.123 50.4093ZM293.185 46.3212V46.2958C293.284 46.3127 293.383 46.3127 293.495 46.3127C293.383 46.3127 293.284 46.3043 293.185 46.3212ZM294.559 44.1588C294.522 44.1588 294.522 44.1335 294.497 44.1335C294.46 44.1335 294.621 44.1166 294.559 44.1588ZM295.438 58.5518C295.438 58.5772 295.438 58.5518 295.413 58.5518C295.426 58.5518 295.475 58.5012 295.438 58.5518ZM295.599 24.985C295.636 25.0104 295.661 25.0104 295.698 25.0104C295.661 25.0104 295.636 25.0104 295.599 25.0104C295.599 25.0104 295.599 25.0104 295.599 24.985ZM295.611 41.7262C295.673 41.7009 295.723 41.6249 295.785 41.5657C295.847 41.6502 295.785 41.7009 295.611 41.7262ZM295.983 60.1651C295.983 60.1398 295.983 60.1398 295.983 60.1145C296.144 60.1651 296.268 60.1145 296.404 60.1145C296.268 60.1398 296.119 60.1398 295.983 60.1651ZM296.428 43.3649C296.428 43.3733 296.391 43.3395 296.428 43.3395C296.404 43.3395 296.441 43.3649 296.428 43.3649ZM296.404 13.7257C296.367 13.7257 296.478 13.5821 296.54 13.7257C296.503 13.7257 296.466 13.7257 296.404 13.7257ZM296.738 33.7695C296.849 33.7695 296.948 33.6935 297.047 33.7442C296.973 33.7019 297.01 33.9384 296.738 33.7695ZM296.911 65.1486C296.973 65.1233 296.986 65.0726 297.072 65.0473C297.023 65.098 297.023 65.1486 296.911 65.1486ZM296.973 39.0402H297.035C297.01 39.0655 297.035 39.0655 297.035 39.0655C297.01 39.0655 296.986 39.0655 296.973 39.0402ZM296.911 35.5855C296.911 35.5602 296.911 35.5602 296.911 35.5348C296.986 35.5602 297.072 35.6109 297.146 35.6447C297.047 35.6109 297.01 35.5602 296.911 35.5855ZM297.233 32.815L297.258 32.7897C297.283 32.815 297.295 32.7897 297.32 32.815C297.32 32.815 297.283 32.815 297.233 32.815ZM297.592 22.0794V22.0541C297.592 22.0794 297.592 22.0794 297.617 22.0794C297.592 22.0794 297.592 22.0794 297.592 22.0794ZM297.803 53.8893C297.803 53.8893 297.84 53.8893 297.864 53.864C297.864 53.8893 297.889 53.8893 297.889 53.8893H297.803ZM298.013 21.6909C298.05 21.6402 298.075 21.6402 298.112 21.5811C298.149 21.6064 298.087 21.6317 298.149 21.6571C298.087 21.6571 298.075 21.6909 298.013 21.6909ZM298.706 43.6858H298.681C298.743 43.6858 298.793 43.6605 298.855 43.6605C298.805 43.652 298.743 43.6858 298.706 43.6858ZM300.105 23.642C300.105 23.6251 300.13 23.5914 300.13 23.642C300.117 23.642 300.117 23.642 300.105 23.642ZM300.464 43.5253C300.439 43.5253 300.427 43.5253 300.402 43.5253C300.439 43.5 300.427 43.4747 300.464 43.4493C300.464 43.4493 300.489 43.4747 300.501 43.4747C300.489 43.4747 300.501 43.5 300.464 43.5253ZM300.897 37.4607C300.959 37.4607 300.996 37.4607 301.009 37.4607C300.972 37.4607 300.972 37.486 300.947 37.5114C300.947 37.486 300.897 37.4607 300.897 37.4607ZM300.996 71.0106C301.058 70.9937 301.108 70.9768 301.157 70.9515C301.17 71.0106 301.194 70.9683 300.996 71.0106ZM301.182 49.0072C301.157 48.9818 301.232 48.9987 301.145 48.9312C301.219 48.9565 301.157 48.9565 301.343 48.9818C301.281 48.9818 301.244 48.9818 301.182 49.0072ZM301.331 32.7644H301.306C301.306 32.7644 301.331 32.7644 301.331 32.739C301.331 32.7644 301.331 32.7644 301.331 32.7644ZM302.965 63.358C302.965 63.189 302.952 63.3495 302.989 62.961C303.014 63.0792 302.94 62.9694 303.026 63.358C302.977 63.358 302.965 63.358 302.965 63.358ZM303.014 62.3782C302.989 62.319 303.002 62.3106 303.125 62.3782C303.101 62.3782 303.051 62.3782 303.014 62.3782ZM304.561 19.2836C304.834 19.3005 304.66 19.2667 304.809 19.4694C304.722 19.4187 304.66 19.3427 304.561 19.2836ZM306.381 61.3815C306.406 61.3815 306.381 61.3561 306.406 61.3308C306.431 61.3561 306.406 61.3561 306.443 61.3815C306.418 61.3815 306.394 61.3815 306.381 61.3815ZM307.211 45.164C307.173 45.1555 307.149 45.1471 307.05 45.1386C307.074 45.1386 307.112 45.1386 307.112 45.1386C307.149 45.1471 307.186 45.1555 307.211 45.164C307.26 45.1724 307.359 45.1893 307.73 45.2316C307.644 45.2316 307.631 45.2822 307.211 45.164ZM307.792 59.6077C307.829 59.633 307.867 59.6077 307.867 59.6077C307.842 59.6583 307.792 59.6837 307.755 59.7175C307.73 59.6921 307.829 59.6668 307.792 59.6077ZM307.792 64.2533C307.829 64.2533 307.99 64.228 308.028 64.2533C307.929 64.2533 307.879 64.2533 307.792 64.2533ZM307.854 44.4207C307.966 44.3953 308.052 44.3447 308.164 44.37C308.04 44.37 307.966 44.3953 307.854 44.4207ZM308.523 47.3517C308.547 47.3517 308.523 47.3516 308.585 47.3263C308.572 47.3348 308.684 47.4699 308.523 47.3517ZM310.268 42.0218C310.293 42.0049 310.169 41.9712 310.268 41.9458C310.243 41.9712 310.281 41.9965 310.268 42.0218ZM309.241 38.8544C309.624 38.7192 310.07 38.7446 310.516 38.7783C310.095 38.753 309.662 38.7783 309.241 38.8544Z" fill="#DB2A2A"/>
<path fill-rule="evenodd" clip-rule="evenodd" d="M536.63 69.6338H536.654C536.555 69.5662 536.506 69.5324 536.469 69.5071C536.568 69.5915 536.543 69.5662 536.63 69.6338Z" fill="#DB2A2A"/>
<path fill-rule="evenodd" clip-rule="evenodd" d="M536.382 69.4226C536.407 69.4397 536.407 69.4482 536.432 69.4653C536.42 69.4568 536.42 69.4397 536.407 69.4226H536.382Z" fill="#DB2A2A"/>
<path fill-rule="evenodd" clip-rule="evenodd" d="M514.446 13.6075C514.013 13.6413 510.906 12.9993 510.98 13.8271C512.07 13.6497 513.27 14.1481 514.446 13.6075Z" fill="#DB2A2A"/>
<path fill-rule="evenodd" clip-rule="evenodd" d="M34.0443 29.335C35.8392 29.3097 37.6218 29.2844 39.392 29.259C37.6342 28.8874 35.8392 29.1999 34.0443 29.335Z" fill="#DB2A2A"/>
<path fill-rule="evenodd" clip-rule="evenodd" d="M350.215 14.0129C349.596 13.9876 349.398 14.1734 349.138 14.3254C349.163 14.241 350.066 14.4437 350.215 14.0129Z" fill="#DB2A2A"/>
</g>
<defs>
<clipPath id="clip0_104_473">
<rect width="588" height="87" fill="white"/>
</clipPath>
</defs>
</svg>
