<svg width="230" height="233" viewBox="0 0 230 233" fill="none" xmlns="http://www.w3.org/2000/svg">
<g filter="url(#filter0_d_43_6853)">
<path d="M69.3955 31.8405C79.0807 24.1483 91.7797 21.3691 103.793 24.3127L132.208 31.2753L159.419 42.0177C170.924 46.5593 179.68 56.1673 183.137 68.0425L191.315 96.1319L195.618 125.069C197.437 137.303 193.494 149.69 184.938 158.622L164.701 179.749L141.792 197.944C132.107 205.636 119.408 208.415 107.395 205.472L78.98 198.509L51.7681 187.766C40.2638 183.225 31.5075 173.617 28.0502 161.742L19.8726 133.652L15.5698 104.715C13.7508 92.4811 17.6934 80.094 26.2491 71.1623L46.4863 50.0355L69.3955 31.8405Z" fill="#FFC801"/>
</g>
<path fill-rule="evenodd" clip-rule="evenodd" d="M144.864 30.5651L114.931 23.2304C103.143 20.342 90.6819 23.0691 81.1782 30.6172L57.0449 49.7844L35.7263 72.04C27.331 80.8043 23.4623 92.9593 25.2472 104.964L29.7799 135.447L38.3945 165.038C41.7869 176.69 50.3791 186.118 61.6678 190.575L90.3337 201.891L120.267 209.226C132.055 212.114 144.516 209.387 154.019 201.839L178.153 182.672L199.471 160.416C207.867 151.652 211.735 139.497 209.95 127.492L205.418 97.0088L196.803 67.4186C193.411 55.7659 184.818 46.3379 173.53 41.8815L144.864 30.5651ZM145.831 27.5255L115.688 20.1394C102.944 17.0168 89.4732 19.965 79.1989 28.1251L54.8963 47.4268L33.4281 69.8385C24.3521 79.3134 20.1697 92.454 22.0994 105.432L26.6638 136.129L35.3389 165.927C39.0064 178.525 48.2953 188.717 60.4993 193.535L89.3663 204.931L119.51 212.317C132.253 215.439 145.724 212.491 155.999 204.331L180.301 185.03L201.769 162.618C210.845 153.143 215.028 140.002 213.098 127.024L208.534 96.3269L199.859 66.529C196.191 53.9315 186.902 43.7391 174.698 38.9213L145.831 27.5255Z" fill="#6111B0"/>
<defs>
<filter id="filter0_d_43_6853" x="10.1345" y="23.163" width="185.919" height="191.458" filterUnits="userSpaceOnUse" color-interpolation-filters="sRGB">
<feFlood flood-opacity="0" result="BackgroundImageFix"/>
<feColorMatrix in="SourceAlpha" type="matrix" values="0 0 0 0 0 0 0 0 0 0 0 0 0 0 0 0 0 0 127 0" result="hardAlpha"/>
<feOffset dx="-5" dy="8"/>
<feComposite in2="hardAlpha" operator="out"/>
<feColorMatrix type="matrix" values="0 0 0 0 0 0 0 0 0 0 0 0 0 0 0 0 0 0 0.25 0"/>
<feBlend mode="normal" in2="BackgroundImageFix" result="effect1_dropShadow_43_6853"/>
<feBlend mode="normal" in="SourceGraphic" in2="effect1_dropShadow_43_6853" result="shape"/>
</filter>
</defs>
</svg>
